<?xml version="1.0" encoding="UTF-8"?>
<!DOCTYPE svg PUBLIC "-//W3C//DTD SVG 1.1//EN" "http://www.w3.org/Graphics/SVG/1.1/DTD/svg11.dtd">
<svg xmlns="http://www.w3.org/2000/svg" version="1.1" width="2600px" height="1080px" style="shape-rendering:geometricPrecision; text-rendering:geometricPrecision; image-rendering:optimizeQuality; fill-rule:evenodd; clip-rule:evenodd" xmlns:xlink="http://www.w3.org/1999/xlink">
<g><path style="opacity:0.862" fill="#27251d" d="M 490.5,269.5 C 490.5,270.5 490.5,271.5 490.5,272.5C 491.959,272.433 493.292,272.766 494.5,273.5C 527.059,299.557 556.892,328.557 584,360.5C 584.749,361.635 584.583,362.635 583.5,363.5C 562.013,341.846 540.679,320.012 519.5,298C 500.392,281.271 479.392,267.271 456.5,256C 399.609,234.471 341.609,230.804 282.5,245C 258.447,251.905 235.78,261.905 214.5,275C 200.443,285.39 186.11,295.39 171.5,305C 167.5,309 163.5,313 159.5,317C 158.552,317.483 157.552,317.649 156.5,317.5C 156.5,316.5 156.5,315.5 156.5,314.5C 158.22,311.269 160.553,308.436 163.5,306C 190,283.905 219,265.572 250.5,251C 303.435,229.949 357.769,225.616 413.5,238C 441.511,243.013 467.177,253.513 490.5,269.5 Z"/></g>
<g><path style="opacity:0.962" fill="#f7e673" d="M 494.5,273.5 C 494.5,273.167 494.5,272.833 494.5,272.5C 544.119,299.449 580.119,338.782 602.5,390.5C 599.025,384.897 595.525,379.231 592,373.5C 590.736,371.393 588.903,370.393 586.5,370.5C 586.343,371.873 586.51,373.207 587,374.5C 596.996,388.494 604.329,403.827 609,420.5C 615.345,449.226 620.012,478.226 623,507.5C 622.972,541.315 617.639,574.315 607,606.5C 585.83,653.692 556.663,695.192 519.5,731C 496.242,748.243 471.908,763.91 446.5,778C 437.948,781.462 429.282,784.629 420.5,787.5C 419.571,788.689 419.238,790.022 419.5,791.5C 424.167,790.5 428.833,789.5 433.5,788.5C 424.359,792.874 414.693,795.874 404.5,797.5C 404.539,796.417 404.873,795.417 405.5,794.5C 395.119,794.051 384.785,794.884 374.5,797C 324.656,800.581 276.656,792.915 230.5,774C 214.248,766.042 198.248,757.875 182.5,749.5C 182.561,751.592 183.561,753.092 185.5,754C 226.822,779.919 271.822,795.253 320.5,800C 347.919,801.189 375.252,800.356 402.5,797.5C 293.851,820.226 202.017,790.893 127,709.5C 105.118,683.078 88.9513,653.412 78.5,620.5C 88.4167,637.329 97.5834,654.662 106,672.5C 122.236,701.07 143.736,724.903 170.5,744C 172.833,745.167 175.167,746.333 177.5,747.5C 178.754,745.741 178.421,744.241 176.5,743C 149.861,725.362 128.361,702.862 112,675.5C 100.57,653.881 89.9034,631.881 80,609.5C 69.7572,567.775 66.0905,525.442 69,482.5C 70.4676,468.495 73.4676,454.829 78,441.5C 90.8519,407.121 107.852,375.121 129,345.5C 133.766,339.895 139.266,335.228 145.5,331.5C 146.429,330.311 146.762,328.978 146.5,327.5C 145.167,327.5 143.833,327.5 142.5,327.5C 145.906,321.759 150.572,317.426 156.5,314.5C 156.5,315.5 156.5,316.5 156.5,317.5C 157.552,317.649 158.552,317.483 159.5,317C 163.5,313 167.5,309 171.5,305C 186.11,295.39 200.443,285.39 214.5,275C 235.78,261.905 258.447,251.905 282.5,245C 341.609,230.804 399.609,234.471 456.5,256C 479.392,267.271 500.392,281.271 519.5,298C 540.679,320.012 562.013,341.846 583.5,363.5C 584.583,362.635 584.749,361.635 584,360.5C 556.892,328.557 527.059,299.557 494.5,273.5 Z"/></g>
<g><path style="opacity:1" fill="#363322" d="M 363.5,262.5 C 379.126,261.326 394.126,263.826 408.5,270C 410.874,270.848 412.874,272.181 414.5,274C 414.167,274.5 413.833,275 413.5,275.5C 397.117,267.433 379.784,264.1 361.5,265.5C 362.193,264.482 362.859,263.482 363.5,262.5 Z"/></g>
<g><path style="opacity:1" fill="#f7e981" d="M 370.5,270.5 C 363.825,270.334 357.158,270.5 350.5,271C 339.245,273.092 327.912,274.592 316.5,275.5C 299.861,276.221 284.195,280.221 269.5,287.5C 268.609,288.11 267.609,288.443 266.5,288.5C 263.101,289.016 259.768,289.85 256.5,291C 243.623,297.606 230.623,303.939 217.5,310C 215.237,311.617 213.237,313.45 211.5,315.5C 211.167,316.5 210.5,317.167 209.5,317.5C 207.407,318.045 205.407,318.878 203.5,320C 193.2,329.802 182.2,338.636 170.5,346.5C 171.211,342.618 173.544,340.118 177.5,339C 195.23,319.947 216.23,305.613 240.5,296C 252.842,288.212 266.176,282.546 280.5,279C 310.186,271.108 340.186,268.275 370.5,270.5 Z"/></g>
<g><path style="opacity:1" fill="#323126" d="M 370.5,270.5 C 373.187,270.336 375.854,270.503 378.5,271C 396.288,276.485 414.288,281.152 432.5,285C 459.316,292.568 482.983,305.568 503.5,324C 556.689,371.547 586.023,431.047 591.5,502.5C 593.53,575.047 570.363,638.047 522,691.5C 512.272,701.396 502.438,711.063 492.5,720.5C 480.078,731.404 466.411,740.571 451.5,748C 433.304,754.065 414.97,759.732 396.5,765C 364.604,771.67 332.937,770.837 301.5,762.5C 290.24,758.858 278.907,755.192 267.5,751.5C 237.89,738.366 210.89,721.199 186.5,700C 176.271,689.938 166.271,679.772 156.5,669.5C 148.652,657.803 140.319,646.469 131.5,635.5C 126.224,627.036 121.891,618.036 118.5,608.5C 119.5,608.5 120.5,608.5 121.5,608.5C 157.484,680.848 213.817,730.015 290.5,756C 295.717,757.743 301.05,758.91 306.5,759.5C 317.106,763.019 328.106,765.019 339.5,765.5C 370.137,769.123 399.47,764.456 427.5,751.5C 431.468,750.285 435.468,749.285 439.5,748.5C 453.456,744.691 465.789,738.025 476.5,728.5C 481.952,725.437 486.618,721.437 490.5,716.5C 534.674,680.86 564.341,635.526 579.5,580.5C 589.135,549.008 591.468,517.008 586.5,484.5C 583.911,456.74 575.911,430.74 562.5,406.5C 537.99,355.823 500.323,318.323 449.5,294C 444.007,291.779 438.34,290.279 432.5,289.5C 420.777,285.235 408.777,281.902 396.5,279.5C 381.604,273.697 366.271,272.03 350.5,274.5C 343.954,274.981 337.621,275.981 331.5,277.5C 282.766,282.013 239.433,299.513 201.5,330C 165.53,358.787 138.53,394.287 120.5,436.5C 112.201,452.413 107.534,469.413 106.5,487.5C 104.969,516.74 105.803,546.073 109,575.5C 111.168,583.506 113.335,591.506 115.5,599.5C 115.376,600.107 115.043,600.44 114.5,600.5C 109.156,588.47 105.656,575.804 104,562.5C 102.628,537.513 102.295,512.513 103,487.5C 105.723,461.5 113.556,437.166 126.5,414.5C 134.741,400.356 143.741,386.69 153.5,373.5C 163.57,361.926 174.237,350.759 185.5,340C 197.112,329.875 209.112,320.375 221.5,311.5C 236.128,303.02 251.128,295.353 266.5,288.5C 267.609,288.443 268.609,288.11 269.5,287.5C 285.156,283.003 300.823,279.003 316.5,275.5C 327.912,274.592 339.245,273.092 350.5,271C 357.158,270.5 363.825,270.334 370.5,270.5 Z"/></g>
<g><path style="opacity:0.722" fill="#8d8541" d="M 490.5,269.5 C 492.404,269.738 493.738,270.738 494.5,272.5C 494.5,272.833 494.5,273.167 494.5,273.5C 493.292,272.766 491.959,272.433 490.5,272.5C 490.5,271.5 490.5,270.5 490.5,269.5 Z"/></g>
<g><path style="opacity:0.999" fill="#eae099" d="M 350.5,274.5 C 366.271,272.03 381.604,273.697 396.5,279.5C 381.232,277.248 365.898,275.581 350.5,274.5 Z"/></g>
<g><path style="opacity:1" fill="#e8dc90" d="M 316.5,275.5 C 300.823,279.003 285.156,283.003 269.5,287.5C 284.195,280.221 299.861,276.221 316.5,275.5 Z"/></g>
<g><path style="opacity:1" fill="#363222" d="M 228.5,277.5 C 230.288,277.215 231.955,277.548 233.5,278.5C 212.712,287.724 193.712,299.724 176.5,314.5C 172.98,318.186 169.647,322.019 166.5,326C 165.552,326.483 164.552,326.649 163.5,326.5C 163.491,324.692 163.991,323.025 165,321.5C 176.05,309.44 188.55,299.273 202.5,291C 211.385,286.726 220.052,282.226 228.5,277.5 Z"/></g>
<g><path style="opacity:1" fill="#f7f7f6" d="M 331.5,277.5 C 350.223,277.133 368.889,277.966 387.5,280C 403.685,283.546 419.685,287.713 435.5,292.5C 436.609,292.557 437.609,292.89 438.5,293.5C 438.859,295.371 439.859,296.871 441.5,298C 445.402,300.119 449.402,301.952 453.5,303.5C 484.29,319.445 510.456,341.112 532,368.5C 540.358,376.236 547.524,384.903 553.5,394.5C 554.167,395.833 554.833,397.167 555.5,398.5C 557.932,404.36 560.599,410.027 563.5,415.5C 573.613,441.344 580.78,468.011 585,495.5C 586.778,523.169 584.612,550.503 578.5,577.5C 578.685,578.584 579.018,579.584 579.5,580.5C 564.341,635.526 534.674,680.86 490.5,716.5C 479.555,722.977 468.555,729.477 457.5,736C 444.842,743.003 431.842,748.837 418.5,753.5C 417.609,754.11 416.609,754.443 415.5,754.5C 406.35,755.537 397.35,757.37 388.5,760C 369.212,762.085 349.879,762.751 330.5,762C 322.584,760.344 314.584,759.51 306.5,759.5C 301.05,758.91 295.717,757.743 290.5,756C 213.817,730.015 157.484,680.848 121.5,608.5C 119.097,598.544 115.93,588.877 112,579.5C 111.168,572.516 110.501,565.516 110,558.5C 107.697,549.69 106.864,540.69 107.5,531.5C 107.576,517.82 108.076,504.153 109,490.5C 111.541,478.254 113.541,465.921 115,453.5C 118.532,448.367 120.366,442.7 120.5,436.5C 138.53,394.287 165.53,358.787 201.5,330C 239.433,299.513 282.766,282.013 331.5,277.5 Z"/></g>
<g><path style="opacity:0.999" fill="#f0eac2" d="M 350.5,274.5 C 365.898,275.581 381.232,277.248 396.5,279.5C 408.777,281.902 420.777,285.235 432.5,289.5C 433.694,290.272 434.694,291.272 435.5,292.5C 419.685,287.713 403.685,283.546 387.5,280C 368.889,277.966 350.223,277.133 331.5,277.5C 337.621,275.981 343.954,274.981 350.5,274.5 Z"/></g>
<g><path style="opacity:0.999" fill="#fdf5bf" d="M 438.5,293.5 C 451.606,296.384 462.939,302.384 472.5,311.5C 468.128,309.947 464.128,307.78 460.5,305C 458.385,304.443 456.385,303.609 454.5,302.5C 453.893,302.624 453.56,302.957 453.5,303.5C 449.402,301.952 445.402,300.119 441.5,298C 439.859,296.871 438.859,295.371 438.5,293.5 Z"/></g>
<g><path style="opacity:1" fill="#38352a" d="M 335.5,299.5 C 349.842,299.697 364.175,300.197 378.5,301C 386.246,302.789 393.079,306.289 399,311.5C 403.279,318.6 404.612,326.266 403,334.5C 392.647,362.249 384.313,390.582 378,419.5C 374.881,427.739 371.214,435.739 367,443.5C 359.667,453.5 352.333,463.5 345,473.5C 339.501,484.16 336.501,495.494 336,507.5C 334.23,509.418 332.063,509.918 329.5,509C 325.964,505.799 322.797,502.299 320,498.5C 309.921,479.34 299.587,460.34 289,441.5C 270.301,422.469 251.968,403.136 234,383.5C 228.069,374.81 224.235,365.31 222.5,355C 223.265,340.89 230.265,331.224 243.5,326C 274.032,316.206 304.698,307.372 335.5,299.5 Z"/></g>
<g><path style="opacity:1" fill="#ece3ac" d="M 266.5,288.5 C 251.128,295.353 236.128,303.02 221.5,311.5C 217.922,312.292 214.588,313.625 211.5,315.5C 213.237,313.45 215.237,311.617 217.5,310C 230.623,303.939 243.623,297.606 256.5,291C 259.768,289.85 263.101,289.016 266.5,288.5 Z"/></g>
<g><path style="opacity:1" fill="#f9e874" d="M 334.5,302.5 C 348.171,302.333 361.837,302.5 375.5,303C 384.693,304.679 392.527,308.846 399,315.5C 401,323.833 401,332.167 399,340.5C 396.279,348.941 393.279,357.274 390,365.5C 385.295,385.372 379.961,405.039 374,424.5C 366.577,441.03 356.91,456.03 345,469.5C 338.732,480.698 335.398,492.698 335,505.5C 333.582,507.363 331.749,507.863 329.5,507C 326.667,503.5 323.833,500 321,496.5C 310.921,477.34 300.587,458.34 290,439.5C 270.6,420.102 251.933,400.102 234,379.5C 225.631,366.548 224.298,352.882 230,338.5C 234.346,333.826 239.513,330.326 245.5,328C 275.159,319.006 304.826,310.506 334.5,302.5 Z"/></g>
<g><path style="opacity:1" fill="#eddf8d" d="M 432.5,289.5 C 438.34,290.279 444.007,291.779 449.5,294C 500.323,318.323 537.99,355.823 562.5,406.5C 560.167,403.833 557.833,401.167 555.5,398.5C 554.833,397.167 554.167,395.833 553.5,394.5C 553.628,392.345 553.128,390.345 552,388.5C 531.508,356.506 505.008,330.839 472.5,311.5C 462.939,302.384 451.606,296.384 438.5,293.5C 437.609,292.89 436.609,292.557 435.5,292.5C 434.694,291.272 433.694,290.272 432.5,289.5 Z"/></g>
<g><path style="opacity:1" fill="#fefadd" d="M 472.5,311.5 C 505.008,330.839 531.508,356.506 552,388.5C 553.128,390.345 553.628,392.345 553.5,394.5C 547.524,384.903 540.358,376.236 532,368.5C 510.456,341.112 484.29,319.445 453.5,303.5C 453.56,302.957 453.893,302.624 454.5,302.5C 456.385,303.609 458.385,304.443 460.5,305C 464.128,307.78 468.128,309.947 472.5,311.5 Z"/></g>
<g><path style="opacity:1" fill="#423c1f" d="M 332.5,319.5 C 335.734,319.205 338.734,319.871 341.5,321.5C 330.715,322.15 320.882,325.484 312,331.5C 311.312,330.668 311.479,330.002 312.5,329.5C 318.763,325.201 325.429,321.867 332.5,319.5 Z"/></g>
<g><path style="opacity:0.899" fill="#302d20" d="M 142.5,327.5 C 143.833,327.5 145.167,327.5 146.5,327.5C 146.762,328.978 146.429,330.311 145.5,331.5C 139.266,335.228 133.766,339.895 129,345.5C 107.852,375.121 90.8519,407.121 78,441.5C 73.4676,454.829 70.4676,468.495 69,482.5C 66.0905,525.442 69.7572,567.775 80,609.5C 89.9034,631.881 100.57,653.881 112,675.5C 128.361,702.862 149.861,725.362 176.5,743C 178.421,744.241 178.754,745.741 177.5,747.5C 175.167,746.333 172.833,745.167 170.5,744C 143.736,724.903 122.236,701.07 106,672.5C 97.5834,654.662 88.4167,637.329 78.5,620.5C 70.4537,598.238 65.6204,575.238 64,551.5C 61.4047,518.62 63.0713,485.953 69,453.5C 80.294,421.58 94.294,390.913 111,361.5C 118.996,347.835 129.496,336.502 142.5,327.5 Z"/></g>
<g><path style="opacity:1" fill="#3d391c" d="M 349.5,320.5 C 361.374,321.292 372.374,324.792 382.5,331C 383.899,332.062 384.899,333.395 385.5,335C 385.15,336.257 384.483,336.591 383.5,336C 379.39,331.891 374.723,328.557 369.5,326C 362.576,324.109 355.909,322.275 349.5,320.5 Z"/></g>
<g><path style="opacity:1" fill="#e8e2be" d="M 221.5,311.5 C 209.112,320.375 197.112,329.875 185.5,340C 174.237,350.759 163.57,361.926 153.5,373.5C 157.175,368.317 160.675,362.983 164,357.5C 171.197,349.969 178.697,342.802 186.5,336C 194.644,330.349 202.31,324.182 209.5,317.5C 210.5,317.167 211.167,316.5 211.5,315.5C 214.588,313.625 217.922,312.292 221.5,311.5 Z"/></g>
<g><path style="opacity:1" fill="#2c2b1f" d="M 543.5,334.5 C 545.167,334.5 546.833,334.5 548.5,334.5C 548.664,337.187 548.497,339.854 548,342.5C 545.416,343.861 543.416,343.195 542,340.5C 541.252,338.16 541.752,336.16 543.5,334.5 Z"/></g>
<g><path style="opacity:1" fill="#3f3a1e" d="M 264.5,369.5 C 263.833,372.167 263.167,374.833 262.5,377.5C 261.515,359.97 268.182,346.136 282.5,336C 283.944,335.219 285.277,335.386 286.5,336.5C 276.198,342.972 269.031,351.972 265,363.5C 264.505,365.473 264.338,367.473 264.5,369.5 Z"/></g>
<g><path style="opacity:1" fill="#373324" d="M 151.5,336.5 C 158.263,336.547 160.263,339.714 157.5,346C 152.398,348.888 149.732,347.388 149.5,341.5C 149.437,339.486 150.103,337.819 151.5,336.5 Z"/></g>
<g><path style="opacity:1" fill="#413b1f" d="M 254.5,339.5 C 255.873,339.343 257.207,339.51 258.5,340C 249.513,347.383 247.013,356.55 251,367.5C 246.769,357.403 247.935,348.07 254.5,339.5 Z"/></g>
<g><path style="opacity:1" fill="#f7eb9b" d="M 209.5,317.5 C 202.31,324.182 194.644,330.349 186.5,336C 178.697,342.802 171.197,349.969 164,357.5C 160.675,362.983 157.175,368.317 153.5,373.5C 143.741,386.69 134.741,400.356 126.5,414.5C 126.728,406.975 129.562,400.641 135,395.5C 137.333,390.833 139.667,386.167 142,381.5C 150.956,369.379 160.456,357.712 170.5,346.5C 182.2,338.636 193.2,329.802 203.5,320C 205.407,318.878 207.407,318.045 209.5,317.5 Z"/></g>
<g><path style="opacity:1" fill="#373218" d="M 353.5,341.5 C 354.622,340.844 355.955,340.511 357.5,340.5C 359.808,340.365 361.808,341.031 363.5,342.5C 362.833,342.833 362.167,343.167 361.5,343.5C 358.815,342.829 356.148,342.162 353.5,341.5 Z"/></g>
<g><path style="opacity:1" fill="#373424" d="M 555.5,340.5 C 556.552,340.351 557.552,340.517 558.5,341C 579.004,364.167 593.671,390.667 602.5,420.5C 601.5,420.5 600.5,420.5 599.5,420.5C 590.683,391.523 576.183,365.857 556,343.5C 555.517,342.552 555.351,341.552 555.5,340.5 Z"/></g>
<g><path style="opacity:1" fill="#998f49" d="M 152.5,339.5 C 155.297,339.967 156.631,341.633 156.5,344.5C 155.167,344.5 153.833,344.5 152.5,344.5C 152.5,342.833 152.5,341.167 152.5,339.5 Z"/></g>
<g><path style="opacity:1" fill="#3c3824" d="M 138.5,348.5 C 144.089,348.083 146.422,350.417 145.5,355.5C 139.699,357.035 137.365,354.701 138.5,348.5 Z"/></g>
<g><path style="opacity:1" fill="#322f22" d="M 151.5,355.5 C 153.288,355.215 154.955,355.548 156.5,356.5C 155.667,356.833 154.833,357.167 154,357.5C 152.624,357.316 151.791,356.649 151.5,355.5 Z"/></g>
<g><path style="opacity:0.974" fill="#964031" d="M 1112.5,359.5 C 1125.17,358.135 1137.17,360.302 1148.5,366C 1158.57,373.632 1164.4,383.798 1166,396.5C 1166.67,410.5 1166.67,424.5 1166,438.5C 1163.64,459.444 1152.14,471.611 1131.5,475C 1113.3,478.374 1097.8,473.541 1085,460.5C 1081.55,454.925 1079.21,448.925 1078,442.5C 1076.47,428.537 1076.13,414.537 1077,400.5C 1078.8,377.878 1090.64,364.212 1112.5,359.5 Z M 1113.5,374.5 C 1132.98,371.472 1144.81,379.472 1149,398.5C 1149.91,412.88 1149.58,427.214 1148,441.5C 1142.05,457.62 1130.55,463.786 1113.5,460C 1103.12,456.952 1096.95,450.119 1095,439.5C 1092.75,423.433 1093.09,407.433 1096,391.5C 1099.11,382.889 1104.94,377.222 1113.5,374.5 Z"/></g>
<g><path style="opacity:0.974" fill="#964031" d="M 1984.5,359.5 C 1997.17,358.135 2009.17,360.302 2020.5,366C 2030.57,373.632 2036.4,383.798 2038,396.5C 2038.67,410.5 2038.67,424.5 2038,438.5C 2035.64,459.444 2024.14,471.611 2003.5,475C 1985.3,478.374 1969.8,473.541 1957,460.5C 1953.55,454.925 1951.21,448.925 1950,442.5C 1948.47,428.537 1948.13,414.537 1949,400.5C 1950.8,377.878 1962.64,364.212 1984.5,359.5 Z M 1985.5,374.5 C 2004.98,371.472 2016.81,379.472 2021,398.5C 2021.91,412.88 2021.58,427.214 2020,441.5C 2014.05,457.62 2002.55,463.786 1985.5,460C 1975.12,456.952 1968.95,450.119 1967,439.5C 1964.75,423.433 1965.09,407.433 1968,391.5C 1971.11,382.889 1976.94,377.222 1985.5,374.5 Z"/></g>
<g><path style="opacity:0.974" fill="#964031" d="M 2180.5,359.5 C 2193.17,358.135 2205.17,360.302 2216.5,366C 2226.57,373.632 2232.4,383.798 2234,396.5C 2234.67,410.5 2234.67,424.5 2234,438.5C 2231.64,459.444 2220.14,471.611 2199.5,475C 2181.3,478.374 2165.8,473.541 2153,460.5C 2149.55,454.925 2147.21,448.925 2146,442.5C 2144.47,428.537 2144.13,414.537 2145,400.5C 2146.8,377.878 2158.64,364.212 2180.5,359.5 Z M 2181.5,374.5 C 2200.98,371.472 2212.81,379.472 2217,398.5C 2217.91,412.88 2217.58,427.214 2216,441.5C 2210.05,457.62 2198.55,463.786 2181.5,460C 2171.12,456.952 2164.95,450.119 2163,439.5C 2160.75,423.433 2161.09,407.433 2164,391.5C 2167.11,382.889 2172.94,377.222 2181.5,374.5 Z"/></g>
<g><path style="opacity:0.972" fill="#964031" d="M 741.5,361.5 C 746.179,361.334 750.845,361.501 755.5,362C 756,362.5 756.5,363 757,363.5C 766.939,393.317 777.272,422.984 788,452.5C 798.333,422.833 808.667,393.167 819,363.5C 819.5,363 820,362.5 820.5,362C 825.419,361.198 830.252,361.365 835,362.5C 835.063,367.333 834.063,371.999 832,376.5C 820.692,408.759 809.192,440.926 797.5,473C 791.167,473.667 784.833,473.667 778.5,473C 778,472.5 777.5,472 777,471.5C 765.197,437.091 753.197,402.758 741,368.5C 740.297,366.071 740.463,363.738 741.5,361.5 Z"/></g>
<g><path style="opacity:0.945" fill="#963f31" d="M 854.5,361.5 C 859.762,361.195 864.928,361.529 870,362.5C 870.829,399.405 870.663,436.238 869.5,473C 867,473.167 864.5,473.333 862,473.5C 859.05,473.432 856.383,472.766 854,471.5C 853.18,434.792 853.346,398.125 854.5,361.5 Z"/></g>
<g><path style="opacity:0.997" fill="#954032" d="M 889.5,361.5 C 917.169,361.333 944.835,361.5 972.5,362C 973.629,366.079 973.796,370.245 973,374.5C 972.5,375 972,375.5 971.5,376C 960.839,376.5 950.172,376.667 939.5,376.5C 939.667,408.168 939.5,439.835 939,471.5C 936.617,472.766 933.95,473.432 931,473.5C 928.245,473.475 925.578,473.141 923,472.5C 922.5,440.502 922.333,408.502 922.5,376.5C 911.828,376.667 901.161,376.5 890.5,376C 888.162,371.396 887.829,366.562 889.5,361.5 Z"/></g>
<g><path style="opacity:0.997" fill="#954032" d="M 982.5,361.5 C 1010.17,361.333 1037.84,361.5 1065.5,362C 1066.63,366.079 1066.8,370.245 1066,374.5C 1065.5,375 1065,375.5 1064.5,376C 1053.84,376.5 1043.17,376.667 1032.5,376.5C 1032.67,408.168 1032.5,439.835 1032,471.5C 1029.62,472.766 1026.95,473.432 1024,473.5C 1021.25,473.475 1018.58,473.141 1016,472.5C 1015.5,440.502 1015.33,408.502 1015.5,376.5C 1004.83,376.667 994.161,376.5 983.5,376C 981.162,371.396 980.829,366.562 982.5,361.5 Z"/></g>
<g><path style="opacity:0.961" fill="#964031" d="M 1189.5,361.5 C 1209.21,361.062 1228.88,361.562 1248.5,363C 1267.54,369.896 1275.04,383.396 1271,403.5C 1268.04,415.132 1260.87,422.966 1249.5,427C 1258.03,441.371 1266.37,455.871 1274.5,470.5C 1274.17,471.167 1273.83,471.833 1273.5,472.5C 1268.53,473.662 1263.53,473.829 1258.5,473C 1249.79,459.08 1241.46,444.913 1233.5,430.5C 1224.19,429.502 1214.86,429.168 1205.5,429.5C 1205.67,443.837 1205.5,458.171 1205,472.5C 1202.42,473.141 1199.75,473.475 1197,473.5C 1194.05,473.432 1191.38,472.766 1189,471.5C 1188.19,434.804 1188.35,398.137 1189.5,361.5 Z M 1205.5,375.5 C 1216.51,375.333 1227.51,375.5 1238.5,376C 1253.34,380.105 1258.17,389.605 1253,404.5C 1250.71,408.788 1247.21,411.622 1242.5,413C 1230.22,414.394 1217.89,414.894 1205.5,414.5C 1205.5,401.5 1205.5,388.5 1205.5,375.5 Z"/></g>
<g><path style="opacity:0.945" fill="#963f31" d="M 1294.5,361.5 C 1299.76,361.195 1304.93,361.529 1310,362.5C 1310.83,399.405 1310.66,436.238 1309.5,473C 1307,473.167 1304.5,473.333 1302,473.5C 1299.05,473.432 1296.38,472.766 1294,471.5C 1293.18,434.792 1293.35,398.125 1294.5,361.5 Z"/></g>
<g><path style="opacity:0.97" fill="#964031" d="M 1368.5,361.5 C 1375.09,361.189 1381.59,361.522 1388,362.5C 1401.28,396.056 1414.28,429.722 1427,463.5C 1428.2,466.726 1428.7,470.059 1428.5,473.5C 1423.46,473.827 1418.46,473.494 1413.5,472.5C 1409.92,464.688 1406.92,456.688 1404.5,448.5C 1387.16,448.333 1369.83,448.5 1352.5,449C 1349.17,457 1345.83,465 1342.5,473C 1337.58,473.802 1332.75,473.635 1328,472.5C 1327.35,469.406 1327.68,466.406 1329,463.5C 1342.08,429.432 1355.24,395.432 1368.5,361.5 Z M 1377.5,379.5 C 1384.72,396.966 1391.72,414.632 1398.5,432.5C 1384.85,433.666 1371.18,433.833 1357.5,433C 1364.47,415.264 1371.13,397.431 1377.5,379.5 Z"/></g>
<g><path style="opacity:0.97" fill="#964031" d="M 1506.5,361.5 C 1513.09,361.189 1519.59,361.522 1526,362.5C 1539.28,396.056 1552.28,429.722 1565,463.5C 1566.2,466.726 1566.7,470.059 1566.5,473.5C 1561.46,473.827 1556.46,473.494 1551.5,472.5C 1547.92,464.688 1544.92,456.688 1542.5,448.5C 1525.16,448.333 1507.83,448.5 1490.5,449C 1487.17,457 1483.83,465 1480.5,473C 1475.58,473.802 1470.75,473.635 1466,472.5C 1465.35,469.406 1465.68,466.406 1467,463.5C 1480.08,429.432 1493.24,395.432 1506.5,361.5 Z M 1515.5,379.5 C 1522.72,396.966 1529.72,414.632 1536.5,432.5C 1522.85,433.666 1509.18,433.833 1495.5,433C 1502.47,415.264 1509.13,397.431 1515.5,379.5 Z"/></g>
<g><path style="opacity:0.968" fill="#964031" d="M 1583.5,361.5 C 1588.18,361.334 1592.85,361.501 1597.5,362C 1615.71,388.91 1633.54,416.077 1651,443.5C 1651.33,416.5 1651.67,389.5 1652,362.5C 1656.78,361.198 1661.62,361.198 1666.5,362.5C 1667.83,399.167 1667.83,435.833 1666.5,472.5C 1661.87,473.662 1657.2,473.828 1652.5,473C 1634.63,446.757 1617.13,420.257 1600,393.5C 1599.67,419.5 1599.33,445.5 1599,471.5C 1598.5,472 1598,472.5 1597.5,473C 1592.8,473.828 1588.13,473.662 1583.5,472.5C 1582.18,435.512 1582.18,398.512 1583.5,361.5 Z"/></g>
<g><path style="opacity:0.964" fill="#964031" d="M 1694.5,361.5 C 1712.5,361.333 1730.5,361.5 1748.5,362C 1766.9,364.615 1777.4,375.115 1780,393.5C 1782.39,412.624 1781.73,431.624 1778,450.5C 1773.18,463.837 1763.68,471.337 1749.5,473C 1731.16,473.833 1712.82,473.666 1694.5,472.5C 1693.18,435.512 1693.18,398.512 1694.5,361.5 Z M 1710.5,375.5 C 1720.51,375.334 1730.51,375.5 1740.5,376C 1751.03,376.532 1758.2,381.699 1762,391.5C 1765.33,409.167 1765.33,426.833 1762,444.5C 1758.43,453.873 1751.6,458.707 1741.5,459C 1731.17,459.5 1720.84,459.666 1710.5,459.5C 1710.5,431.5 1710.5,403.5 1710.5,375.5 Z"/></g>
<g><path style="opacity:0.961" fill="#964031" d="M 1804.5,361.5 C 1824.21,361.062 1843.88,361.562 1863.5,363C 1882.54,369.896 1890.04,383.396 1886,403.5C 1883.04,415.132 1875.87,422.966 1864.5,427C 1873.03,441.371 1881.37,455.871 1889.5,470.5C 1889.17,471.167 1888.83,471.833 1888.5,472.5C 1883.53,473.662 1878.53,473.829 1873.5,473C 1864.79,459.08 1856.46,444.913 1848.5,430.5C 1839.19,429.502 1829.86,429.168 1820.5,429.5C 1820.67,443.837 1820.5,458.171 1820,472.5C 1817.42,473.141 1814.75,473.475 1812,473.5C 1809.05,473.432 1806.38,472.766 1804,471.5C 1803.19,434.804 1803.35,398.137 1804.5,361.5 Z M 1820.5,375.5 C 1831.51,375.333 1842.51,375.5 1853.5,376C 1868.34,380.105 1873.17,389.605 1868,404.5C 1865.71,408.788 1862.21,411.622 1857.5,413C 1845.22,414.394 1832.89,414.894 1820.5,414.5C 1820.5,401.5 1820.5,388.5 1820.5,375.5 Z"/></g>
<g><path style="opacity:0.945" fill="#963f31" d="M 1909.5,361.5 C 1914.76,361.195 1919.93,361.529 1925,362.5C 1925.83,399.405 1925.66,436.238 1924.5,473C 1922,473.167 1919.5,473.333 1917,473.5C 1914.05,473.432 1911.38,472.766 1909,471.5C 1908.18,434.792 1908.35,398.125 1909.5,361.5 Z"/></g>
<g><path style="opacity:0.958" fill="#963f31" d="M 2061.5,361.5 C 2066.76,361.195 2071.93,361.529 2077,362.5C 2077.5,394.832 2077.67,427.165 2077.5,459.5C 2096.41,459.174 2115.24,459.507 2134,460.5C 2134.8,464.755 2134.63,468.921 2133.5,473C 2109.49,473.833 2085.49,473.666 2061.5,472.5C 2060.17,435.5 2060.17,398.5 2061.5,361.5 Z"/></g>
<g><path style="opacity:0.961" fill="#964031" d="M 2334.5,361.5 C 2354.21,361.062 2373.88,361.562 2393.5,363C 2412.54,369.896 2420.04,383.396 2416,403.5C 2413.04,415.132 2405.87,422.966 2394.5,427C 2403.03,441.371 2411.37,455.871 2419.5,470.5C 2419.17,471.167 2418.83,471.833 2418.5,472.5C 2413.53,473.662 2408.53,473.829 2403.5,473C 2394.79,459.08 2386.46,444.913 2378.5,430.5C 2369.19,429.502 2359.86,429.168 2350.5,429.5C 2350.67,443.837 2350.5,458.171 2350,472.5C 2347.42,473.141 2344.75,473.475 2342,473.5C 2339.05,473.432 2336.38,472.766 2334,471.5C 2333.19,434.804 2333.35,398.137 2334.5,361.5 Z M 2350.5,375.5 C 2361.51,375.333 2372.51,375.5 2383.5,376C 2398.34,380.105 2403.17,389.605 2398,404.5C 2395.71,408.788 2392.21,411.622 2387.5,413C 2375.22,414.394 2362.89,414.894 2350.5,414.5C 2350.5,401.5 2350.5,388.5 2350.5,375.5 Z"/></g>
<g><path style="opacity:0.964" fill="#964031" d="M 2439.5,361.5 C 2457.5,361.333 2475.5,361.5 2493.5,362C 2511.9,364.615 2522.4,375.115 2525,393.5C 2527.39,412.624 2526.73,431.624 2523,450.5C 2518.18,463.837 2508.68,471.337 2494.5,473C 2476.16,473.833 2457.82,473.666 2439.5,472.5C 2438.18,435.512 2438.18,398.512 2439.5,361.5 Z M 2455.5,375.5 C 2465.51,375.334 2475.51,375.5 2485.5,376C 2496.03,376.532 2503.2,381.699 2507,391.5C 2510.33,409.167 2510.33,426.833 2507,444.5C 2503.43,453.873 2496.6,458.707 2486.5,459C 2476.17,459.5 2465.84,459.666 2455.5,459.5C 2455.5,431.5 2455.5,403.5 2455.5,375.5 Z"/></g>
<g><path style="opacity:0.998" fill="#343122" d="M 602.5,390.5 C 603.315,391.429 604.148,392.429 605,393.5C 607.067,398.741 608.9,404.074 610.5,409.5C 619.848,447.271 625.848,485.605 628.5,524.5C 627.849,531.522 627.016,538.522 626,545.5C 622.489,560.389 619.489,575.389 617,590.5C 598.982,638.244 572.649,680.577 538,717.5C 531.5,724 525,730.5 518.5,737C 494.464,753.879 469.797,769.713 444.5,784.5C 441.05,786.208 437.383,787.541 433.5,788.5C 428.833,789.5 424.167,790.5 419.5,791.5C 419.238,790.022 419.571,788.689 420.5,787.5C 429.282,784.629 437.948,781.462 446.5,778C 471.908,763.91 496.242,748.243 519.5,731C 556.663,695.192 585.83,653.692 607,606.5C 617.639,574.315 622.972,541.315 623,507.5C 620.012,478.226 615.345,449.226 609,420.5C 604.329,403.827 596.996,388.494 587,374.5C 586.51,373.207 586.343,371.873 586.5,370.5C 588.903,370.393 590.736,371.393 592,373.5C 595.525,379.231 599.025,384.897 602.5,390.5 Z"/></g>
<g><path style="opacity:1" fill="#fefbea" d="M 324.5,372.5 C 325.117,372.611 325.617,372.944 326,373.5C 326.667,375.833 326.667,378.167 326,380.5C 325.178,377.883 324.678,375.216 324.5,372.5 Z"/></g>
<g><path style="opacity:1" fill="#7d7338" d="M 264.5,369.5 C 264.274,374.562 264.608,379.562 265.5,384.5C 264.833,384.5 264.5,384.833 264.5,385.5C 263.232,383.095 262.565,380.428 262.5,377.5C 263.167,374.833 263.833,372.167 264.5,369.5 Z"/></g>
<g><path style="opacity:1" fill="#fff8d4" d="M 364.5,379.5 C 365.931,379.881 366.764,380.881 367,382.5C 367.667,386.167 367.667,389.833 367,393.5C 365.025,389.037 364.192,384.371 364.5,379.5 Z"/></g>
<g><path style="opacity:1" fill="#fef8da" d="M 284.5,374.5 C 286.076,381.689 287.243,389.023 288,396.5C 284.984,389.485 283.817,382.152 284.5,374.5 Z"/></g>
<g><path style="opacity:1" fill="#363329" d="M 195.5,363.5 C 202.061,364.613 208.061,367.113 213.5,371C 231.369,389.867 248.869,409.034 266,428.5C 273.241,442.965 282.908,455.632 295,466.5C 305.92,481.33 315.587,496.996 324,513.5C 325.023,517.317 324.523,520.817 322.5,524C 318.448,525.101 314.281,525.601 310,525.5C 288.669,523.416 267.503,524.249 246.5,528C 215.013,529.925 184.013,526.925 153.5,519C 142.211,515.106 132.711,508.606 125,499.5C 122.402,495.372 121.235,490.872 121.5,486C 126.168,452.18 138.668,421.68 159,394.5C 172.445,385.691 184.612,375.357 195.5,363.5 Z"/></g>
<g><path style="opacity:1" fill="#f9e874" d="M 195.5,366.5 C 200.601,366.7 205.267,368.2 209.5,371C 229.035,391.533 248.202,412.367 267,433.5C 273.092,446.251 281.425,457.251 292,466.5C 302.995,481.15 312.995,496.484 322,512.5C 322.929,516.244 322.429,519.744 320.5,523C 305.996,523.5 291.496,523.333 277,522.5C 269.027,522.21 261.194,523.044 253.5,525C 232.474,525.874 211.474,525.54 190.5,524C 165.952,523.494 144.786,514.994 127,498.5C 123.669,492.618 122.669,486.285 124,479.5C 130.184,450.815 141.517,424.481 158,400.5C 165.495,392.346 173.995,385.513 183.5,380C 188.102,375.906 192.102,371.406 195.5,366.5 Z"/></g>
<g><path style="opacity:1" fill="#413c1e" d="M 265.5,384.5 C 266.487,386.473 267.487,388.473 268.5,390.5C 267.726,391.711 266.893,391.711 266,390.5C 264.991,388.975 264.491,387.308 264.5,385.5C 264.5,384.833 264.833,384.5 265.5,384.5 Z"/></g>
<g><path style="opacity:1" fill="#332f18" d="M 197.5,389.5 C 198.978,389.238 200.311,389.571 201.5,390.5C 198.283,392.078 194.949,392.911 191.5,393C 193.727,392.059 195.727,390.892 197.5,389.5 Z"/></g>
<g><path style="opacity:1" fill="#fffae7" d="M 347.5,388.5 C 348.239,388.369 348.906,388.536 349.5,389C 345.07,393.766 341.903,399.266 340,405.5C 339.333,403.5 339.333,401.5 340,399.5C 342.33,395.678 344.83,392.012 347.5,388.5 Z"/></g>
<g><path style="opacity:1" fill="#464021" d="M 193.5,399.5 C 202.464,398.188 211.131,399.688 219.5,404C 220.687,405.019 221.687,406.186 222.5,407.5C 221.635,408.583 220.635,408.749 219.5,408C 217.399,405.23 214.732,403.23 211.5,402C 205.381,401.825 199.381,400.992 193.5,399.5 Z"/></g>
<g><path style="opacity:1" fill="#fff9dc" d="M 301.5,392.5 C 305.238,395.626 307.738,399.626 309,404.5C 310.579,408.12 310.745,411.786 309.5,415.5C 308.453,411.888 307.62,408.221 307,404.5C 304.881,400.598 303.048,396.598 301.5,392.5 Z"/></g>
<g><path style="opacity:1" fill="#fffae0" d="M 291.5,418.5 C 298.205,423.573 301.372,430.24 301,438.5C 300.578,434.991 299.578,431.657 298,428.5C 295.563,425.28 293.397,421.947 291.5,418.5 Z"/></g>
<g><path style="opacity:1" fill="#e6deab" d="M 555.5,398.5 C 557.833,401.167 560.167,403.833 562.5,406.5C 575.911,430.74 583.911,456.74 586.5,484.5C 581.018,461.544 574.185,438.878 566,416.5C 565.329,415.748 564.496,415.414 563.5,415.5C 560.599,410.027 557.932,404.36 555.5,398.5 Z"/></g>
<g><path style="opacity:1" fill="#fff8d6" d="M 326.5,426.5 C 327.75,426.577 328.583,427.244 329,428.5C 329.667,431.5 329.667,434.5 329,437.5C 327.69,433.93 326.857,430.263 326.5,426.5 Z"/></g>
<g><path style="opacity:1" fill="#fff9db" d="M 352.5,421.5 C 353.748,422.334 354.415,423.667 354.5,425.5C 354.459,428.331 353.792,430.998 352.5,433.5C 352.002,429.575 352.002,425.575 352.5,421.5 Z"/></g>
<g><path style="opacity:1" fill="#3f3a1d" d="M 180.5,395.5 C 182.355,395.272 183.188,395.939 183,397.5C 170.01,405.824 160.676,417.157 155,431.5C 151.06,443.321 146.727,454.988 142,466.5C 146.479,445.538 154.812,426.205 167,408.5C 171.395,403.936 175.895,399.602 180.5,395.5 Z"/></g>
<g><path style="opacity:1" fill="#fff9dd" d="M 247.5,442.5 C 247.897,441.475 248.563,441.308 249.5,442C 252.4,444.397 254.733,447.23 256.5,450.5C 255.998,451.521 255.332,451.688 254.5,451C 252.745,447.636 250.412,444.802 247.5,442.5 Z"/></g>
<g><path style="opacity:1" fill="#fefadf" d="M 217.5,452.5 C 218.251,451.427 219.251,451.26 220.5,452C 223.203,455.038 226.203,457.705 229.5,460C 228.5,460.667 227.5,460.667 226.5,460C 223.335,457.665 220.335,455.165 217.5,452.5 Z"/></g>
<g><path style="opacity:1" fill="#fffae0" d="M 341.5,446.5 C 342.376,446.369 343.043,446.702 343.5,447.5C 338.066,459.362 337.399,459.029 341.5,446.5 Z"/></g>
<g><path style="opacity:1" fill="#ece8cf" d="M 563.5,415.5 C 564.496,415.414 565.329,415.748 566,416.5C 574.185,438.878 581.018,461.544 586.5,484.5C 591.468,517.008 589.135,549.008 579.5,580.5C 579.018,579.584 578.685,578.584 578.5,577.5C 584.612,550.503 586.778,523.169 585,495.5C 580.78,468.011 573.613,441.344 563.5,415.5 Z"/></g>
<g><path style="opacity:0.964" fill="#954031" d="M 2254.5,454.5 C 2259.84,454.334 2265.18,454.501 2270.5,455C 2271.08,455.893 2271.41,456.893 2271.5,458C 2268.61,467.358 2264.94,476.358 2260.5,485C 2256.85,485.499 2253.18,485.665 2249.5,485.5C 2249.98,474.936 2251.65,464.602 2254.5,454.5 Z"/></g>
<g><path style="opacity:1" fill="#ece8ce" d="M 120.5,436.5 C 120.366,442.7 118.532,448.367 115,453.5C 113.541,465.921 111.541,478.254 109,490.5C 108.076,504.153 107.576,517.82 107.5,531.5C 106.504,517.01 106.171,502.343 106.5,487.5C 107.534,469.413 112.201,452.413 120.5,436.5 Z"/></g>
<g><path style="opacity:1" fill="#fffbe6" d="M 315.5,450.5 C 318.806,455.278 319.973,460.612 319,466.5C 317.513,461.221 316.347,455.888 315.5,450.5 Z"/></g>
<g><path style="opacity:1" fill="#343227" d="M 433.5,314.5 C 443.227,313.466 451.894,315.966 459.5,322C 481.692,343.193 503.526,364.693 525,386.5C 536.355,400.533 545.689,415.866 553,432.5C 556.737,442.966 557.404,453.633 555,464.5C 552.303,469.436 548.136,472.27 542.5,473C 501.757,473.583 461.423,477.916 421.5,486C 416.934,487.642 412.268,488.975 407.5,490C 390.447,499.025 372.78,506.692 354.5,513C 350.726,514.183 347.559,513.349 345,510.5C 344.19,505.743 344.524,501.076 346,496.5C 348.333,491.833 350.667,487.167 353,482.5C 363.928,470.322 372.594,456.655 379,441.5C 391.435,406.764 403.101,371.764 414,336.5C 418.595,327.409 425.095,320.076 433.5,314.5 Z"/></g>
<g><path style="opacity:1" fill="#f9e874" d="M 435.5,315.5 C 444.711,315.605 452.711,318.772 459.5,325C 472.833,337.667 486.167,350.333 499.5,363C 521.337,381.826 538.171,404.326 550,430.5C 554.589,441.194 555.589,452.194 553,463.5C 550.337,467.161 546.837,469.661 542.5,471C 496.002,470.474 450.336,476.141 405.5,488C 389.968,496.1 373.968,503.1 357.5,509C 348.405,512.907 345.238,510.074 348,500.5C 349,497.833 350,495.167 351,492.5C 357.667,482.5 364.333,472.5 371,462.5C 375.194,455.446 378.861,448.112 382,440.5C 393.606,406.681 404.606,372.681 415,338.5C 419.93,329.073 426.764,321.407 435.5,315.5 Z"/></g>
<g><path style="opacity:1" fill="#958a43" d="M 525.5,461.5 C 522.972,462.166 520.306,462.832 517.5,463.5C 517.957,464.298 518.624,464.631 519.5,464.5C 518.791,465.404 517.791,465.737 516.5,465.5C 516.5,464.167 516.5,462.833 516.5,461.5C 519.5,461.5 522.5,461.5 525.5,461.5 Z"/></g>
<g><path style="opacity:1" fill="#fefae3" d="M 423.5,453.5 C 424.552,453.351 425.552,453.517 426.5,454C 422.049,457.728 417.049,460.062 411.5,461C 415.732,458.725 419.732,456.225 423.5,453.5 Z"/></g>
<g><path style="opacity:1" fill="#fefae5" d="M 384.5,451.5 C 385.497,451.47 386.164,451.97 386.5,453C 384.819,457.85 381.819,461.683 377.5,464.5C 376.479,463.998 376.312,463.332 377,462.5C 380.994,459.844 383.494,456.178 384.5,451.5 Z"/></g>
<g><path style="opacity:1" fill="#635c2e" d="M 527.5,446.5 C 533.705,446.037 535.705,448.704 533.5,454.5C 531.298,455.78 529.132,455.78 527,454.5C 526.278,451.739 526.445,449.073 527.5,446.5 Z"/></g>
<g><path style="opacity:1" fill="#3c361a" d="M 541.5,451.5 C 548.985,452.805 550.319,456.305 545.5,462C 540,463.167 537.833,461 539,455.5C 539.662,454.016 540.496,452.683 541.5,451.5 Z"/></g>
<g><path style="opacity:1" fill="#d6c764" d="M 541.5,454.5 C 546.478,454.952 547.478,457.119 544.5,461C 543.216,461.684 542.049,461.517 541,460.5C 540.51,458.455 540.677,456.455 541.5,454.5 Z"/></g>
<g><path style="opacity:1" fill="#e1d269" d="M 529.5,449.5 C 530.5,449.5 531.5,449.5 532.5,449.5C 532.5,450.833 532.5,452.167 532.5,453.5C 531.5,453.5 530.5,453.5 529.5,453.5C 529.5,452.167 529.5,450.833 529.5,449.5 Z"/></g>
<g><path style="opacity:1" fill="#fefbea" d="M 488.5,447.5 C 491.518,447.335 494.518,447.502 497.5,448C 492.903,449.455 488.237,450.122 483.5,450C 485.315,449.243 486.981,448.41 488.5,447.5 Z"/></g>
<g><path style="opacity:1" fill="#fffae8" d="M 455.5,443.5 C 461.732,443.027 462.399,443.861 457.5,446C 453.833,446.667 450.167,446.667 446.5,446C 449.678,445.34 452.678,444.507 455.5,443.5 Z"/></g>
<g><path style="opacity:1" fill="#fef9da" d="M 404.5,432.5 C 406.225,432.843 406.725,433.843 406,435.5C 404.444,440.28 402.111,444.613 399,448.5C 401.06,443.351 402.893,438.017 404.5,432.5 Z"/></g>
<g><path style="opacity:1" fill="#4c4623" d="M 536.5,434.5 C 543.729,433.588 546.063,436.588 543.5,443.5C 536.428,444.415 534.095,441.415 536.5,434.5 Z"/></g>
<g><path style="opacity:1" fill="#e8d76b" d="M 538.5,436.5 C 539.833,436.5 541.167,436.5 542.5,436.5C 542.5,438.5 542.5,440.5 542.5,442.5C 538.932,442.241 537.599,440.241 538.5,436.5 Z"/></g>
<g><path style="opacity:1" fill="#fefae2" d="M 424.5,418.5 C 425.239,418.369 425.906,418.536 426.5,419C 424.333,421.833 422.167,424.667 420,427.5C 418.867,429.211 417.367,429.711 415.5,429C 419.085,425.922 422.085,422.422 424.5,418.5 Z"/></g>
<g><path style="opacity:1" fill="#fefade" d="M 446.5,413.5 C 447.376,413.369 448.043,413.702 448.5,414.5C 445.806,418.554 443.639,422.888 442,427.5C 442.375,422.538 443.875,417.872 446.5,413.5 Z"/></g>
<g><path style="opacity:1" fill="#fefbea" d="M 472.5,405.5 C 474.028,405.517 474.528,406.184 474,407.5C 464.797,415.435 464.297,414.769 472.5,405.5 Z"/></g>
<g><path style="opacity:1" fill="#fefae0" d="M 403.5,401.5 C 404.16,402.964 404.493,404.631 404.5,406.5C 404.588,408.712 404.088,410.712 403,412.5C 402.421,408.797 402.588,405.131 403.5,401.5 Z"/></g>
<g><path style="opacity:1" fill="#3e391d" d="M 475.5,355.5 C 476.922,355.709 478.255,356.209 479.5,357C 498.629,374.447 515.129,393.947 529,415.5C 531.437,418.938 532.27,422.605 531.5,426.5C 518.91,400.397 501.243,378.23 478.5,360C 476.859,358.871 475.859,357.371 475.5,355.5 Z"/></g>
<g><path style="opacity:1" fill="#fef9df" d="M 441.5,383.5 C 443.875,386.317 443.709,389.317 441,392.5C 440.956,389.525 441.123,386.525 441.5,383.5 Z"/></g>
<g><path style="opacity:1" fill="#3e371a" d="M 428.5,358.5 C 429.675,358.281 430.675,358.614 431.5,359.5C 428.236,363.028 425.736,367.028 424,371.5C 423.663,377.539 422.997,383.539 422,389.5C 419.913,378.194 422.079,367.861 428.5,358.5 Z"/></g>
<g><path style="opacity:1" fill="#3a351b" d="M 446.5,342.5 C 455.709,342.463 464.042,345.463 471.5,351.5C 470.635,352.583 469.635,352.749 468.5,352C 462.031,346.935 454.698,343.768 446.5,342.5 Z"/></g>
<g><path style="opacity:1" fill="#36311a" d="M 519.5,464.5 C 518.624,464.631 517.957,464.298 517.5,463.5C 520.306,462.832 522.972,462.166 525.5,461.5C 526.93,461.579 528.264,461.246 529.5,460.5C 530.774,461.359 530.608,462.026 529,462.5C 525.906,463.566 522.74,464.232 519.5,464.5 Z"/></g>
<g><path style="opacity:1" fill="#fef9df" d="M 449.5,461.5 C 451.655,461.372 453.655,461.872 455.5,463C 449.895,463.568 444.562,465.068 439.5,467.5C 438.429,465.675 439.096,464.508 441.5,464C 444.379,463.454 447.046,462.621 449.5,461.5 Z"/></g>
<g><path style="opacity:1" fill="#fffae6" d="M 189.5,467.5 C 195.665,465.885 200.999,467.551 205.5,472.5C 205,472.833 204.5,473.167 204,473.5C 201.844,472.015 199.677,470.515 197.5,469C 194.746,468.728 192.079,468.228 189.5,467.5 Z"/></g>
<g><path style="opacity:1" fill="#fef8d4" d="M 258.5,471.5 C 258.897,470.475 259.563,470.308 260.5,471C 264.333,474.833 268.167,478.667 272,482.5C 273.602,484.369 274.602,486.369 275,488.5C 269.27,482.938 263.77,477.271 258.5,471.5 Z"/></g>
<g><path style="opacity:1" fill="#3f381e" d="M 157.5,476.5 C 160.271,476.421 162.937,476.921 165.5,478C 164.167,478.167 162.833,478.333 161.5,478.5C 159.667,478.415 158.334,477.748 157.5,476.5 Z"/></g>
<g><path style="opacity:1" fill="#fff9df" d="M 326.5,476.5 C 327.649,476.791 328.316,477.624 328.5,479C 328.333,479.833 328.167,480.667 328,481.5C 326.991,479.975 326.491,478.308 326.5,476.5 Z"/></g>
<g><path style="opacity:1" fill="#fff9db" d="M 227.5,475.5 C 231.97,475.783 235.97,477.283 239.5,480C 236.177,479.529 232.843,478.695 229.5,477.5C 228.287,477.253 227.62,476.586 227.5,475.5 Z"/></g>
<g><path style="opacity:1" fill="#fef8d4" d="M 394.5,478.5 C 398.29,478.008 398.956,478.841 396.5,481C 388.49,483.351 387.824,482.517 394.5,478.5 Z"/></g>
<g><path style="opacity:1" fill="#3b361c" d="M 130.5,479.5 C 135.376,478.404 137.043,480.071 135.5,484.5C 133.604,485.466 131.604,485.799 129.5,485.5C 129.325,483.379 129.659,481.379 130.5,479.5 Z"/></g>
<g><path style="opacity:1" fill="#f8e775" d="M 552.5,479.5 C 556.214,483.883 559.547,488.55 562.5,493.5C 563.517,500.805 563.683,508.139 563,515.5C 559.972,536.945 556.305,558.279 552,579.5C 549.55,592.233 544.05,603.4 535.5,613C 528.635,616.57 521.968,616.237 515.5,612C 490.139,594.645 463.472,579.311 435.5,566C 415.049,557.275 394.716,548.275 374.5,539C 361.636,531.008 361.303,522.675 373.5,514C 377.048,512.059 380.714,510.393 384.5,509C 400.802,506.474 416.802,502.807 432.5,498C 472.573,492.151 512.573,485.984 552.5,479.5 Z"/></g>
<g><path style="opacity:1" fill="#363117" d="M 142.5,480.5 C 147.906,479.735 149.906,482.069 148.5,487.5C 143.677,487.673 141.677,485.339 142.5,480.5 Z"/></g>
<g><path style="opacity:1" fill="#fffadf" d="M 280.5,476.5 C 283.964,479.462 287.297,482.629 290.5,486C 289.5,486.667 288.5,486.667 287.5,486C 284.924,482.937 282.591,479.771 280.5,476.5 Z"/></g>
<g><path style="opacity:1" fill="#948a44" d="M 131.5,481.5 C 135.31,482.754 135.31,483.754 131.5,484.5C 131.5,483.5 131.5,482.5 131.5,481.5 Z"/></g>
<g><path style="opacity:1" fill="#dacb65" d="M 144.5,482.5 C 146.337,482.639 146.67,483.306 145.5,484.5C 144.702,484.043 144.369,483.376 144.5,482.5 Z"/></g>
<g><path style="opacity:1" fill="#fefae0" d="M 379.5,479.5 C 383.29,479.008 383.956,479.841 381.5,482C 376.916,484.58 372.916,487.913 369.5,492C 368.5,492.667 367.5,492.667 366.5,492C 370.729,487.602 375.062,483.436 379.5,479.5 Z"/></g>
<g><path style="opacity:1" fill="#332f1a" d="M 133.5,490.5 C 135.167,490.5 136.833,490.5 138.5,490.5C 138.299,494.35 136.466,495.35 133,493.5C 132.53,492.423 132.697,491.423 133.5,490.5 Z"/></g>
<g><path style="opacity:1" fill="#433c1f" d="M 517.5,491.5 C 521.582,491.344 525.582,491.844 529.5,493C 521.464,493.478 513.631,494.978 506,497.5C 505.5,497.167 505,496.833 504.5,496.5C 509.065,495.201 513.399,493.535 517.5,491.5 Z"/></g>
<g><path style="opacity:1" fill="#fefae2" d="M 207.5,494.5 C 212.922,496.03 218.255,497.863 223.5,500C 218.779,499.664 214.113,498.664 209.5,497C 208.244,496.583 207.577,495.75 207.5,494.5 Z"/></g>
<g><path style="opacity:1" fill="#3c361b" d="M 541.5,493.5 C 543.757,492.197 545.59,492.864 547,495.5C 550.888,501.064 552.388,507.23 551.5,514C 551.437,532.183 547.271,549.35 539,565.5C 541.298,557.932 543.631,550.265 546,542.5C 549.645,529.295 550.311,515.961 548,502.5C 546.301,499.079 544.135,496.079 541.5,493.5 Z"/></g>
<g><path style="opacity:1" fill="#fef9dc" d="M 287.5,499.5 C 287.897,498.475 288.563,498.308 289.5,499C 293.725,502.722 297.392,506.888 300.5,511.5C 299.998,512.521 299.332,512.688 298.5,512C 294.968,507.64 291.301,503.473 287.5,499.5 Z"/></g>
<g><path style="opacity:1" fill="#fffae4" d="M 248.5,504.5 C 249.097,503.861 249.93,503.528 251,503.5C 255.422,504.898 259.922,505.898 264.5,506.5C 264.5,507.5 264.5,508.5 264.5,509.5C 259.311,507.437 253.978,505.771 248.5,504.5 Z"/></g>
<g><path style="opacity:1" fill="#fef7d1" d="M 209.5,512.5 C 214.537,512.042 219.204,513.042 223.5,515.5C 223.167,515.833 222.833,516.167 222.5,516.5C 217.88,515.38 213.547,514.047 209.5,512.5 Z"/></g>
<g><path style="opacity:1" fill="#363327" d="M 356.5,539.5 C 358.199,539.34 359.866,539.506 361.5,540C 369.5,545.333 377.5,550.667 385.5,556C 405.5,565.333 425.5,574.667 445.5,584C 454.681,590.758 463.681,597.758 472.5,605C 484.956,610.728 497.289,616.728 509.5,623C 518.437,629.544 520.937,638.044 517,648.5C 511.081,660.093 503.247,670.26 493.5,679C 473.308,694.517 454.308,711.517 436.5,730C 416.942,745.993 403.108,742.159 395,718.5C 394.206,715.529 393.539,712.529 393,709.5C 392.048,694.847 391.381,680.18 391,665.5C 389.211,654.344 385.878,643.677 381,633.5C 370.476,615.118 362.143,595.784 356,575.5C 353.876,563.387 354.043,551.387 356.5,539.5 Z"/></g>
<g><path style="opacity:1" fill="#f8e774" d="M 357.5,543.5 C 359.989,543.298 362.323,543.798 364.5,545C 373.777,552.92 384.11,559.253 395.5,564C 409.716,570.608 424.049,576.941 438.5,583C 449.78,590.613 460.78,598.613 471.5,607C 483.779,612.473 495.779,618.473 507.5,625C 516.622,631.702 518.788,640.202 514,650.5C 511.394,655.435 508.394,660.102 505,664.5C 493.128,675.374 480.962,685.874 468.5,696C 457.138,707.696 445.471,719.03 433.5,730C 417.91,742.386 406.077,739.553 398,721.5C 396.263,717.339 395.263,713.005 395,708.5C 394.072,693.512 393.405,678.512 393,663.5C 391.776,656.269 389.776,649.269 387,642.5C 376.627,622.755 367.627,602.422 360,581.5C 357.85,568.936 357.017,556.269 357.5,543.5 Z"/></g>
<g><path style="opacity:1" fill="#ecde78" d="M 591.5,502.5 C 596.661,569.847 577.827,629.513 535,681.5C 523.878,690.957 513.711,701.457 504.5,713C 500.585,715.771 496.585,718.271 492.5,720.5C 502.438,711.063 512.272,701.396 522,691.5C 570.363,638.047 593.53,575.047 591.5,502.5 Z"/></g>
<g><path style="opacity:1" fill="#2c291e" d="M 77.5,565.5 C 77.7852,567.288 77.4519,568.955 76.5,570.5C 75.5713,569.311 75.238,567.978 75.5,566.5C 75.1796,563.102 75.513,559.768 76.5,556.5C 77.4841,559.428 77.8174,562.428 77.5,565.5 Z"/></g>
<g><path style="opacity:0.984" fill="#918644" d="M 77.5,565.5 C 77.8174,562.428 77.4841,559.428 76.5,556.5C 75.513,559.768 75.1796,563.102 75.5,566.5C 74.5184,563.038 74.185,559.371 74.5,555.5C 75.8333,555.5 77.1667,555.5 78.5,555.5C 78.8128,559.042 78.4794,562.375 77.5,565.5 Z"/></g>
<g><path style="opacity:1" fill="#393623" d="M 596.5,561.5 C 597.675,561.281 598.675,561.614 599.5,562.5C 596.165,574.849 592.831,587.182 589.5,599.5C 588.5,599.5 587.5,599.5 586.5,599.5C 589.641,586.751 592.974,574.084 596.5,561.5 Z"/></g>
<g><path style="opacity:1" fill="#fef9de" d="M 368.5,562.5 C 369.75,562.577 370.583,563.244 371,564.5C 372.342,569.189 373.342,573.855 374,578.5C 371.475,573.426 369.642,568.093 368.5,562.5 Z"/></g>
<g><path style="opacity:0.974" fill="#964031" d="M 2018.5,571.5 C 2066.27,571.107 2087.77,594.773 2083,642.5C 2076.59,673.076 2057.75,689.076 2026.5,690.5C 1989.56,688.23 1970.56,668.563 1969.5,631.5C 1970.69,598.685 1987.02,578.685 2018.5,571.5 Z M 2021.5,575.5 C 2029.97,574.654 2037.14,577.32 2043,583.5C 2050.9,594.532 2055.23,606.865 2056,620.5C 2058.35,640.433 2054.68,659.099 2045,676.5C 2031.95,690.163 2019.62,689.496 2008,674.5C 1998.88,657.264 1995.55,638.93 1998,619.5C 1998.82,606.375 2002.82,594.375 2010,583.5C 2013.48,580.161 2017.32,577.494 2021.5,575.5 Z"/></g>
<g><path style="opacity:1" fill="#fef9dc" d="M 390.5,572.5 C 391.5,572.5 392.5,572.5 393.5,572.5C 393.568,577.076 395.568,580.576 399.5,583C 393.951,581.936 390.951,578.436 390.5,572.5 Z"/></g>
<g><path style="opacity:1" fill="#353222" d="M 76.5,573.5 C 77.5,573.5 78.5,573.5 79.5,573.5C 84.2896,603.074 96.4563,629.074 116,651.5C 116.749,652.635 116.583,653.635 115.5,654.5C 103.97,643.793 95.1362,631.126 89,616.5C 83.1218,602.652 78.9551,588.319 76.5,573.5 Z"/></g>
<g><path style="opacity:0.972" fill="#964031" d="M 1052.5,573.5 C 1062.17,574.665 1071.84,574.831 1081.5,574C 1101.67,598.833 1121.83,623.667 1142,648.5C 1142.91,627.8 1142.58,607.133 1141,586.5C 1138.45,580.797 1133.95,577.963 1127.5,578C 1126.62,576.644 1126.29,575.144 1126.5,573.5C 1137.17,574.76 1147.84,574.76 1158.5,573.5C 1158.5,575.167 1158.5,576.833 1158.5,578.5C 1155.25,578.415 1152.42,579.415 1150,581.5C 1148.03,585.232 1147.03,589.232 1147,593.5C 1146.5,625.165 1146.33,656.832 1146.5,688.5C 1143.48,688.665 1140.48,688.498 1137.5,688C 1115,659.5 1092.5,631 1070,602.5C 1069.33,626.167 1069.33,649.833 1070,673.5C 1072.11,680.649 1076.95,683.982 1084.5,683.5C 1084.5,684.833 1084.5,686.167 1084.5,687.5C 1073.83,687.5 1063.17,687.5 1052.5,687.5C 1052.5,686.167 1052.5,684.833 1052.5,683.5C 1059.29,683.527 1063.12,680.194 1064,673.5C 1064.67,643.5 1064.67,613.5 1064,583.5C 1061.67,579.583 1058.17,577.583 1053.5,577.5C 1052.57,576.311 1052.24,574.978 1052.5,573.5 Z"/></g>
<g><path style="opacity:0.96" fill="#964031" d="M 1201.5,573.5 C 1218.5,574.813 1235.5,574.813 1252.5,573.5C 1252.76,574.978 1252.43,576.311 1251.5,577.5C 1248.44,578.121 1245.44,578.955 1242.5,580C 1241.11,581.171 1240.27,582.671 1240,584.5C 1239.33,610.167 1239.33,635.833 1240,661.5C 1240.28,675.802 1247.44,683.135 1261.5,683.5C 1272.21,683.619 1280.04,678.952 1285,669.5C 1286.8,664.625 1288.14,659.625 1289,654.5C 1289.67,632.833 1289.67,611.167 1289,589.5C 1287.59,582.089 1283.09,578.256 1275.5,578C 1274.62,576.644 1274.29,575.144 1274.5,573.5C 1285.17,574.798 1295.84,574.798 1306.5,573.5C 1306.66,574.873 1306.49,576.207 1306,577.5C 1300.08,578.421 1296.41,581.755 1295,587.5C 1294.67,608.833 1294.33,630.167 1294,651.5C 1293.58,677.417 1280.42,690.417 1254.5,690.5C 1240.78,690.99 1229.28,686.323 1220,676.5C 1216.62,671.32 1214.62,665.653 1214,659.5C 1213.67,635.833 1213.33,612.167 1213,588.5C 1213.5,581 1210,577.5 1202.5,578C 1201.62,576.644 1201.29,575.144 1201.5,573.5 Z"/></g>
<g><path style="opacity:0.947" fill="#964031" d="M 1347.5,573.5 C 1380.5,574.833 1413.5,574.833 1446.5,573.5C 1445.44,586.868 1445.44,600.202 1446.5,613.5C 1444.95,614.452 1443.29,614.785 1441.5,614.5C 1440.02,604.882 1436.85,595.882 1432,587.5C 1426.53,580.518 1419.37,577.518 1410.5,578.5C 1410.33,611.502 1410.5,644.502 1411,677.5C 1411.78,679.286 1412.95,680.786 1414.5,682C 1418.75,683.195 1423.08,683.695 1427.5,683.5C 1427.5,684.833 1427.5,686.167 1427.5,687.5C 1407.17,687.5 1386.83,687.5 1366.5,687.5C 1366.5,686.167 1366.5,684.833 1366.5,683.5C 1370.92,683.695 1375.25,683.195 1379.5,682C 1381.49,680.681 1382.65,678.848 1383,676.5C 1383.5,643.835 1383.67,611.168 1383.5,578.5C 1371.1,577.617 1362.6,582.95 1358,594.5C 1355.45,600.99 1353.61,607.657 1352.5,614.5C 1350.83,614.5 1349.17,614.5 1347.5,614.5C 1348.21,600.853 1348.21,587.187 1347.5,573.5 Z"/></g>
<g><path style="opacity:0.971" fill="#964032" d="M 1490.5,573.5 C 1506.66,574.779 1522.83,574.779 1539,573.5C 1550.65,573.28 1561.82,575.447 1572.5,580C 1585.9,589.998 1588.74,602.498 1581,617.5C 1574.2,626.655 1565.03,631.822 1553.5,633C 1561.83,633.661 1569,636.827 1575,642.5C 1576.86,644.888 1578.19,647.554 1579,650.5C 1581.02,659.918 1583.35,669.251 1586,678.5C 1589.61,682.386 1593.28,682.386 1597,678.5C 1598.28,678.613 1599.11,679.28 1599.5,680.5C 1594.07,687.374 1586.91,690.707 1578,690.5C 1572.42,690.385 1567.25,688.885 1562.5,686C 1559.77,683.374 1557.94,680.207 1557,676.5C 1555.12,667.876 1553.45,659.21 1552,650.5C 1550.01,636.691 1542.18,631.358 1528.5,634.5C 1528.08,649.55 1528.58,664.55 1530,679.5C 1532.65,682.87 1536.15,684.204 1540.5,683.5C 1540.5,684.833 1540.5,686.167 1540.5,687.5C 1523.83,687.5 1507.17,687.5 1490.5,687.5C 1490.5,686.167 1490.5,684.833 1490.5,683.5C 1493.61,683.649 1496.61,683.149 1499.5,682C 1501,680.509 1501.84,678.676 1502,676.5C 1502.67,645.833 1502.67,615.167 1502,584.5C 1501.73,582.671 1500.89,581.171 1499.5,580C 1496.89,578.979 1494.23,578.145 1491.5,577.5C 1490.57,576.311 1490.24,574.978 1490.5,573.5 Z M 1536.5,577.5 C 1548.46,577.627 1555.29,583.627 1557,595.5C 1561.78,619.194 1552.28,630.861 1528.5,630.5C 1528.33,616.163 1528.5,601.829 1529,587.5C 1528.9,581.97 1531.4,578.637 1536.5,577.5 Z"/></g>
<g><path style="opacity:0.972" fill="#964031" d="M 1636.5,573.5 C 1653.17,574.812 1669.83,574.812 1686.5,573.5C 1686.71,575.144 1686.38,576.644 1685.5,578C 1681.84,577.963 1678.67,579.129 1676,581.5C 1674.88,597.963 1674.38,614.463 1674.5,631C 1674.37,647.209 1674.87,663.376 1676,679.5C 1678.65,682.87 1682.15,684.204 1686.5,683.5C 1686.5,684.833 1686.5,686.167 1686.5,687.5C 1669.83,687.5 1653.17,687.5 1636.5,687.5C 1636.5,686.167 1636.5,684.833 1636.5,683.5C 1639.61,683.649 1642.61,683.149 1645.5,682C 1647,680.509 1647.84,678.676 1648,676.5C 1648.67,645.833 1648.67,615.167 1648,584.5C 1647.73,582.671 1646.89,581.171 1645.5,580C 1642.89,578.979 1640.23,578.145 1637.5,577.5C 1636.57,576.311 1636.24,574.978 1636.5,573.5 Z"/></g>
<g><path style="opacity:0.947" fill="#964031" d="M 1730.5,573.5 C 1763.5,574.833 1796.5,574.833 1829.5,573.5C 1828.44,586.868 1828.44,600.202 1829.5,613.5C 1827.95,614.452 1826.29,614.785 1824.5,614.5C 1823.02,604.882 1819.85,595.882 1815,587.5C 1809.53,580.518 1802.37,577.518 1793.5,578.5C 1793.33,611.502 1793.5,644.502 1794,677.5C 1794.78,679.286 1795.95,680.786 1797.5,682C 1801.75,683.195 1806.08,683.695 1810.5,683.5C 1810.5,684.833 1810.5,686.167 1810.5,687.5C 1790.17,687.5 1769.83,687.5 1749.5,687.5C 1749.5,686.167 1749.5,684.833 1749.5,683.5C 1753.92,683.695 1758.25,683.195 1762.5,682C 1764.49,680.681 1765.65,678.848 1766,676.5C 1766.5,643.835 1766.67,611.168 1766.5,578.5C 1754.1,577.617 1745.6,582.95 1741,594.5C 1738.45,600.99 1736.61,607.657 1735.5,614.5C 1733.83,614.5 1732.17,614.5 1730.5,614.5C 1731.21,600.853 1731.21,587.187 1730.5,573.5 Z"/></g>
<g><path style="opacity:0.972" fill="#964031" d="M 1873.5,573.5 C 1890.17,574.812 1906.83,574.812 1923.5,573.5C 1923.71,575.144 1923.38,576.644 1922.5,578C 1918.84,577.963 1915.67,579.129 1913,581.5C 1911.88,597.963 1911.38,614.463 1911.5,631C 1911.37,647.209 1911.87,663.376 1913,679.5C 1915.65,682.87 1919.15,684.204 1923.5,683.5C 1923.5,684.833 1923.5,686.167 1923.5,687.5C 1906.83,687.5 1890.17,687.5 1873.5,687.5C 1873.5,686.167 1873.5,684.833 1873.5,683.5C 1876.61,683.649 1879.61,683.149 1882.5,682C 1884,680.509 1884.84,678.676 1885,676.5C 1885.67,645.833 1885.67,615.167 1885,584.5C 1884.73,582.671 1883.89,581.171 1882.5,580C 1879.89,578.979 1877.23,578.145 1874.5,577.5C 1873.57,576.311 1873.24,574.978 1873.5,573.5 Z"/></g>
<g><path style="opacity:0.972" fill="#964031" d="M 2130.5,573.5 C 2140.17,574.665 2149.84,574.831 2159.5,574C 2179.67,598.833 2199.83,623.667 2220,648.5C 2220.91,627.8 2220.58,607.133 2219,586.5C 2216.45,580.797 2211.95,577.963 2205.5,578C 2204.62,576.644 2204.29,575.144 2204.5,573.5C 2215.17,574.76 2225.84,574.76 2236.5,573.5C 2236.5,575.167 2236.5,576.833 2236.5,578.5C 2233.25,578.415 2230.42,579.415 2228,581.5C 2226.03,585.232 2225.03,589.232 2225,593.5C 2224.5,625.165 2224.33,656.832 2224.5,688.5C 2221.48,688.665 2218.48,688.498 2215.5,688C 2193,659.5 2170.5,631 2148,602.5C 2147.33,626.167 2147.33,649.833 2148,673.5C 2150.11,680.649 2154.95,683.982 2162.5,683.5C 2162.5,684.833 2162.5,686.167 2162.5,687.5C 2151.83,687.5 2141.17,687.5 2130.5,687.5C 2130.5,686.167 2130.5,684.833 2130.5,683.5C 2137.29,683.527 2141.12,680.194 2142,673.5C 2142.67,643.5 2142.67,613.5 2142,583.5C 2139.67,579.583 2136.17,577.583 2131.5,577.5C 2130.57,576.311 2130.24,574.978 2130.5,573.5 Z"/></g>
<g><path style="opacity:1" fill="#49442a" d="M 602.5,579.5 C 605.833,579.5 607.5,581.167 607.5,584.5C 602.58,585.585 600.913,583.918 602.5,579.5 Z"/></g>
<g><path style="opacity:1" fill="#e2dbae" d="M 106.5,487.5 C 106.171,502.343 106.504,517.01 107.5,531.5C 106.864,540.69 107.697,549.69 110,558.5C 110.501,565.516 111.168,572.516 112,579.5C 115.93,588.877 119.097,598.544 121.5,608.5C 120.5,608.5 119.5,608.5 118.5,608.5C 118.261,605.143 116.927,602.476 114.5,600.5C 115.043,600.44 115.376,600.107 115.5,599.5C 113.335,591.506 111.168,583.506 109,575.5C 105.803,546.073 104.969,516.74 106.5,487.5 Z"/></g>
<g><path style="opacity:1" fill="#3d3b33" d="M 552.5,479.5 C 512.573,485.984 472.573,492.151 432.5,498C 416.802,502.807 400.802,506.474 384.5,509C 380.714,510.393 377.048,512.059 373.5,514C 361.303,522.675 361.636,531.008 374.5,539C 394.716,548.275 415.049,557.275 435.5,566C 463.472,579.311 490.139,594.645 515.5,612C 521.968,616.237 528.635,616.57 535.5,613C 544.05,603.4 549.55,592.233 552,579.5C 556.305,558.279 559.972,536.945 563,515.5C 563.683,508.139 563.517,500.805 562.5,493.5C 564.74,494.587 566.073,496.42 566.5,499C 564.048,532.88 557.882,566.046 548,598.5C 544.783,604.437 540.949,609.937 536.5,615C 530.139,618.272 523.806,618.272 517.5,615C 472.131,585.646 424.131,560.98 373.5,541C 367.428,537.618 363.761,532.618 362.5,526C 362.329,522.871 363.162,520.037 365,517.5C 379.103,507.34 394.936,501.84 412.5,501C 422.517,498.331 432.517,495.664 442.5,493C 479.291,488.318 515.958,482.818 552.5,476.5C 552.5,477.5 552.5,478.5 552.5,479.5 Z"/></g>
<g><path style="opacity:1" fill="#fef9db" d="M 454.5,556.5 C 462.345,559.172 470.011,562.339 477.5,566C 470.08,564.31 462.747,561.976 455.5,559C 454.748,558.329 454.414,557.496 454.5,556.5 Z"/></g>
<g><path style="opacity:1" fill="#fef9d9" d="M 500.5,551.5 C 506.179,553.226 511.846,555.06 517.5,557C 513.087,557.151 508.754,556.484 504.5,555C 502.456,554.502 501.122,553.335 500.5,551.5 Z"/></g>
<g><path style="opacity:1" fill="#fef9d9" d="M 427.5,544.5 C 435.715,544.269 443.715,546.102 451.5,550C 443.47,548.493 435.47,546.66 427.5,544.5 Z"/></g>
<g><path style="opacity:1" fill="#fef6c9" d="M 452.5,533.5 C 456.799,534.728 461.132,535.894 465.5,537C 461.336,537.813 457.336,537.313 453.5,535.5C 452.702,535.043 452.369,534.376 452.5,533.5 Z"/></g>
<g><path style="opacity:1" fill="#fefae3" d="M 397.5,533.5 C 400.772,534.758 404.106,535.925 407.5,537C 404.406,537.652 401.406,537.318 398.5,536C 397.748,535.329 397.414,534.496 397.5,533.5 Z"/></g>
<g><path style="opacity:1" fill="#fefae4" d="M 477.5,532.5 C 477.56,531.957 477.893,531.624 478.5,531.5C 481.202,533.347 484.202,534.513 487.5,535C 483.579,536.139 480.246,535.305 477.5,532.5 Z"/></g>
<g><path style="opacity:1" fill="#fef8da" d="M 419.5,529.5 C 424.074,528.165 428.74,528.332 433.5,530C 428.78,530.717 424.114,530.55 419.5,529.5 Z"/></g>
<g><path style="opacity:1" fill="#fef7d5" d="M 379.5,523.5 C 385.945,523.463 392.278,524.296 398.5,526C 392.146,525.46 385.813,525.627 379.5,526.5C 379.5,525.5 379.5,524.5 379.5,523.5 Z"/></g>
<g><path style="opacity:1" fill="#fef6ce" d="M 395.5,515.5 C 402.183,516.135 408.849,516.968 415.5,518C 409.833,518.667 404.167,518.667 398.5,518C 396.881,517.764 395.881,516.931 395.5,515.5 Z"/></g>
<g><path style="opacity:1" fill="#fefae2" d="M 447.5,512.5 C 451.046,513.959 454.712,515.126 458.5,516C 455.833,516.667 453.167,516.667 450.5,516C 448.574,515.578 447.574,514.411 447.5,512.5 Z"/></g>
<g><path style="opacity:1" fill="#fefae8" d="M 434.5,508.5 C 439.22,508.225 439.554,509.059 435.5,511C 423.944,513.203 423.611,512.369 434.5,508.5 Z"/></g>
<g><path style="opacity:1" fill="#fefbe6" d="M 485.5,506.5 C 489.819,507.035 494.152,507.535 498.5,508C 496.333,508.167 494.167,508.333 492,508.5C 489.39,508.467 487.223,507.8 485.5,506.5 Z"/></g>
<g><path style="opacity:1" fill="#2f2915" d="M 519.5,588.5 C 516.941,588.802 514.607,588.468 512.5,587.5C 520.947,587.738 528.447,585.072 535,579.5C 536.257,579.85 536.591,580.517 536,581.5C 531.139,585.348 525.639,587.681 519.5,588.5 Z"/></g>
<g><path style="opacity:1" fill="#948842" d="M 512.5,587.5 C 514.607,588.468 516.941,588.802 519.5,588.5C 516.976,589.8 514.309,589.8 511.5,588.5C 511.624,587.893 511.957,587.56 512.5,587.5 Z"/></g>
<g><path style="opacity:0.164" fill="#f4e373" d="M 610.5,409.5 C 620.778,433.694 626.944,459.027 629,485.5C 635.105,592.306 596.939,679.139 514.5,746C 498.17,758.171 480.837,768.838 462.5,778C 456.655,780.67 450.655,782.836 444.5,784.5C 469.797,769.713 494.464,753.879 518.5,737C 525,730.5 531.5,724 538,717.5C 572.649,680.577 598.982,638.244 617,590.5C 619.489,575.389 622.489,560.389 626,545.5C 627.016,538.522 627.849,531.522 628.5,524.5C 625.848,485.605 619.848,447.271 610.5,409.5 Z"/></g>
<g><path style="opacity:1" fill="#fefae0" d="M 420.5,585.5 C 429.61,590.044 438.61,594.877 447.5,600C 446.5,600.667 445.5,600.667 444.5,600C 437.446,595.806 430.112,592.139 422.5,589C 421.177,588.184 420.511,587.017 420.5,585.5 Z"/></g>
<g><path style="opacity:1" fill="#39331a" d="M 535.5,592.5 C 536.239,592.369 536.906,592.536 537.5,593C 534.782,597.092 531.115,599.426 526.5,600C 529.69,597.636 532.69,595.136 535.5,592.5 Z"/></g>
<g><path style="opacity:1" fill="#353222" d="M 595.5,595.5 C 596.675,595.281 597.675,595.614 598.5,596.5C 594.571,609.03 588.571,620.363 580.5,630.5C 580.167,630.167 579.833,629.833 579.5,629.5C 583.745,620.676 588.245,612.01 593,603.5C 593.941,600.846 594.774,598.179 595.5,595.5 Z"/></g>
<g><path style="opacity:1" fill="#312f20" d="M 91.5,601.5 C 92.675,601.281 93.675,601.614 94.5,602.5C 95.8333,605.5 97.1667,608.5 98.5,611.5C 98,611.833 97.5,612.167 97,612.5C 94.1152,609.397 92.2819,605.73 91.5,601.5 Z"/></g>
<g><path style="opacity:1" fill="#fefae3" d="M 383.5,596.5 C 386.367,599.233 387.867,602.566 388,606.5C 385.247,603.744 383.747,600.411 383.5,596.5 Z"/></g>
<g><path style="opacity:1" fill="#fef9db" d="M 404.5,601.5 C 408.298,604.796 411.964,608.296 415.5,612C 414.5,612.667 413.5,612.667 412.5,612C 408.825,609.172 406.158,605.672 404.5,601.5 Z"/></g>
<g><path style="opacity:1" fill="#fef9df" d="M 440.5,609.5 C 445.35,611.355 449.683,614.021 453.5,617.5C 453.167,617.833 452.833,618.167 452.5,618.5C 449.163,615.829 445.496,613.663 441.5,612C 440.748,611.329 440.414,610.496 440.5,609.5 Z"/></g>
<g><path style="opacity:1" fill="#fefae1" d="M 396.5,618.5 C 397.5,618.5 398.5,618.5 399.5,618.5C 399.762,636.975 398.762,636.975 396.5,618.5 Z"/></g>
<g><path style="opacity:1" fill="#fefae4" d="M 448.5,628.5 C 449.5,628.5 450.5,628.5 451.5,628.5C 451.839,631.786 452.673,634.786 454,637.5C 451.14,635.111 449.307,632.111 448.5,628.5 Z"/></g>
<g><path style="opacity:1" fill="#fefae5" d="M 424.5,631.5 C 425.189,630.226 426.023,630.226 427,631.5C 428.289,633.055 428.956,634.721 429,636.5C 427.264,634.937 425.764,633.27 424.5,631.5 Z"/></g>
<g><path style="opacity:1" fill="#7c7336" d="M 503.5,635.5 C 504.748,636.334 505.415,637.667 505.5,639.5C 505.167,640.833 504.833,642.167 504.5,643.5C 503.52,640.914 503.187,638.247 503.5,635.5 Z"/></g>
<g><path style="opacity:1" fill="#f0e6ab" d="M 131.5,635.5 C 140.319,646.469 148.652,657.803 156.5,669.5C 156.5,670.833 156.5,672.167 156.5,673.5C 151.531,667.688 146.697,661.688 142,655.5C 139.254,648.337 135.754,641.671 131.5,635.5 Z"/></g>
<g><path style="opacity:1" fill="#3e3a1e" d="M 501.5,645.5 C 503.225,645.843 503.725,646.843 503,648.5C 500.333,652.5 497.667,656.5 495,660.5C 494.333,659.5 494.333,658.5 495,657.5C 497.954,653.925 500.121,649.925 501.5,645.5 Z"/></g>
<g><path style="opacity:1" fill="#908440" d="M 410.5,679.5 C 410.167,679.5 409.833,679.5 409.5,679.5C 408.23,675.215 408.23,670.881 409.5,666.5C 410.492,670.783 410.826,675.116 410.5,679.5 Z"/></g>
<g><path style="opacity:1" fill="#322b14" d="M 465.5,673.5 C 467.028,673.517 467.528,674.184 467,675.5C 464.095,679.171 460.595,681.671 456.5,683C 459.704,679.964 462.704,676.797 465.5,673.5 Z"/></g>
<g><path style="opacity:1" fill="#373528" d="M 133.5,529.5 C 164.488,528.706 195.155,531.54 225.5,538C 249.214,539.354 272.547,537.021 295.5,531C 302.167,530.333 308.833,530.333 315.5,531C 321.215,536.747 322.048,543.247 318,550.5C 305.809,567.709 294.809,585.709 285,604.5C 280.941,614.011 277.274,623.678 274,633.5C 270.999,652.835 264.999,671.168 256,688.5C 252.159,693.003 247.326,695.837 241.5,697C 232.011,698.104 222.677,697.438 213.5,695C 182.744,676.578 159.244,651.412 143,619.5C 133.714,602.971 126.381,585.638 121,567.5C 119.669,559.536 119.335,551.536 120,543.5C 122.687,536.981 127.187,532.314 133.5,529.5 Z"/></g>
<g><path style="opacity:1" fill="#f9e874" d="M 136.5,531.5 C 150.863,531.23 165.196,531.73 179.5,533C 207.487,539.833 235.821,542.167 264.5,540C 278.195,536.927 292.029,534.761 306,533.5C 318.604,533.397 321.938,538.73 316,549.5C 299.667,570.487 286.667,593.487 277,618.5C 272.401,635.629 267.401,652.629 262,669.5C 259.423,678.493 254.923,686.327 248.5,693C 234.419,698.266 220.752,697.266 207.5,690C 175.22,666.381 151.053,636.214 135,599.5C 130.067,587.035 125.734,574.368 122,561.5C 118.088,546.995 122.921,536.995 136.5,531.5 Z"/></g>
<g><path style="opacity:1" fill="#3d371c" d="M 255.5,663.5 C 256.675,663.281 257.675,663.614 258.5,664.5C 254.901,672.626 248.901,677.459 240.5,679C 248.415,676.586 253.415,671.419 255.5,663.5 Z"/></g>
<g><path style="opacity:1" fill="#fefbea" d="M 238.5,647.5 C 239.675,647.281 240.675,647.614 241.5,648.5C 238.804,649.851 236.47,651.684 234.5,654C 233.833,654.667 233.167,654.667 232.5,654C 234.706,651.963 236.706,649.797 238.5,647.5 Z"/></g>
<g><path style="opacity:1" fill="#fefae1" d="M 214.5,612.5 C 217.124,614.198 217.124,616.031 214.5,618C 210.211,620.877 205.544,621.877 200.5,621C 204.22,619.987 207.886,618.82 211.5,617.5C 212.952,616.06 213.952,614.394 214.5,612.5 Z"/></g>
<g><path style="opacity:1" fill="#fefbe7" d="M 266.5,612.5 C 267.497,612.47 268.164,612.97 268.5,614C 265.298,620.572 262.798,627.405 261,634.5C 260.333,631.833 260.333,629.167 261,626.5C 263.134,621.928 264.967,617.261 266.5,612.5 Z"/></g>
<g><path style="opacity:1" fill="#fefae6" d="M 255.5,605.5 C 256.376,605.369 257.043,605.702 257.5,606.5C 254.472,610.361 251.639,614.361 249,618.5C 250.068,613.698 252.234,609.364 255.5,605.5 Z"/></g>
<g><path style="opacity:1" fill="#423d1e" d="M 139.5,574.5 C 144.791,594.764 152.624,614.097 163,632.5C 166.321,637.486 170.321,641.82 175,645.5C 175.688,646.332 175.521,646.998 174.5,647.5C 169.856,644.69 166.023,641.023 163,636.5C 151.521,617.21 143.688,596.544 139.5,574.5 Z"/></g>
<g><path style="opacity:1" fill="#fefae4" d="M 238.5,593.5 C 239.552,593.351 240.552,593.517 241.5,594C 239.938,596.115 237.938,597.115 235.5,597C 236.71,595.961 237.71,594.794 238.5,593.5 Z"/></g>
<g><path style="opacity:1" fill="#fefbe4" d="M 214.5,586.5 C 215.978,586.238 217.311,586.571 218.5,587.5C 214.855,589.994 210.855,591.161 206.5,591C 209.391,589.726 212.058,588.226 214.5,586.5 Z"/></g>
<g><path style="opacity:1" fill="#fefae0" d="M 273.5,573.5 C 274.675,573.281 275.675,573.614 276.5,574.5C 272.428,577.404 269.261,581.071 267,585.5C 266.333,584.5 266.333,583.5 267,582.5C 269.385,579.621 271.552,576.621 273.5,573.5 Z"/></g>
<g><path style="opacity:1" fill="#fefae3" d="M 251.5,569.5 C 252.675,569.281 253.675,569.614 254.5,570.5C 251.55,572.115 248.884,574.115 246.5,576.5C 246.167,576.167 245.833,575.833 245.5,575.5C 247.854,573.812 249.854,571.812 251.5,569.5 Z"/></g>
<g><path style="opacity:1" fill="#fefae2" d="M 227.5,563.5 C 228.5,563.5 229.5,563.5 230.5,563.5C 230.5,564.5 230.5,565.5 230.5,566.5C 227.824,567.008 225.157,567.175 222.5,567C 224.584,566.303 226.251,565.136 227.5,563.5 Z"/></g>
<g><path style="opacity:1" fill="#fefae3" d="M 292.5,548.5 C 293.978,548.238 295.311,548.571 296.5,549.5C 290.135,552.789 283.469,554.955 276.5,556C 282.149,553.961 287.482,551.461 292.5,548.5 Z"/></g>
<g><path style="opacity:1" fill="#635b2d" d="M 126.5,551.5 C 128.62,552.85 128.453,554.517 126,556.5C 125.616,554.803 125.782,553.137 126.5,551.5 Z"/></g>
<g><path style="opacity:1" fill="#fef9de" d="M 247.5,552.5 C 249.989,552.298 252.323,552.798 254.5,554C 251.367,554.393 248.367,555.226 245.5,556.5C 244.833,556.333 244.167,556.167 243.5,556C 245.093,555.051 246.426,553.885 247.5,552.5 Z"/></g>
<g><path style="opacity:1" fill="#fefade" d="M 207.5,553.5 C 208.978,553.238 210.311,553.571 211.5,554.5C 207.431,556.768 203.098,557.601 198.5,557C 201.718,556.1 204.718,554.933 207.5,553.5 Z"/></g>
<g><path style="opacity:1" fill="#4c4623" d="M 144.5,551.5 C 145.777,552.694 146.444,554.36 146.5,556.5C 146.333,558.167 146.167,559.833 146,561.5C 144.684,558.312 144.184,554.978 144.5,551.5 Z"/></g>
<g><path style="opacity:1" fill="#38331a" d="M 142.5,541.5 C 150.616,541.061 158.616,541.728 166.5,543.5C 158.221,543.6 149.888,543.766 141.5,544C 140.034,544.635 138.7,545.469 137.5,546.5C 137.167,546.167 136.833,545.833 136.5,545.5C 138.565,544.143 140.565,542.81 142.5,541.5 Z"/></g>
<g><path style="opacity:1" fill="#fcf4b8" d="M 158.5,675.5 C 170.527,687.194 182.527,698.861 194.5,710.5C 193.167,710.5 191.833,710.5 190.5,710.5C 189.457,707.944 187.79,705.777 185.5,704C 174.557,696.227 165.557,686.727 158.5,675.5 Z"/></g>
<g><path style="opacity:1" fill="#3e391d" d="M 191.5,658.5 C 200.339,672.833 212.672,682.999 228.5,689C 238.338,691.569 246.504,689.069 253,681.5C 253.667,682.5 253.667,683.5 253,684.5C 243.752,691.881 233.585,693.381 222.5,689C 210.987,683.653 201.487,675.82 194,665.5C 192.589,663.35 191.755,661.016 191.5,658.5 Z"/></g>
<g><path style="opacity:1" fill="#393218" d="M 409.5,679.5 C 409.833,679.5 410.167,679.5 410.5,679.5C 411.227,684.954 413.56,689.62 417.5,693.5C 414.558,693.456 412.391,691.789 411,688.5C 410.047,685.568 409.547,682.568 409.5,679.5 Z"/></g>
<g><path style="opacity:1" fill="#3b351a" d="M 489.5,664.5 C 491.028,664.517 491.528,665.184 491,666.5C 470.509,688.341 447.176,706.341 421,720.5C 420.5,720.167 420,719.833 419.5,719.5C 433.635,710.53 447.635,701.363 461.5,692C 471.338,683.328 480.672,674.161 489.5,664.5 Z"/></g>
<g><path style="opacity:1" fill="#363322" d="M 382.5,791.5 C 378.774,791.823 375.107,791.489 371.5,790.5C 374.977,789.833 378.311,789.166 381.5,788.5C 403.734,787.716 424.734,782.216 444.5,772C 474.968,755.213 502.302,734.213 526.5,709C 527.448,708.517 528.448,708.351 529.5,708.5C 529.649,709.552 529.483,710.552 529,711.5C 501.395,739.781 469.895,762.615 434.5,780C 417.788,786.678 400.454,790.512 382.5,791.5 Z"/></g>
<g><path style="opacity:0.999" fill="#fdf09c" d="M 190.5,710.5 C 191.833,710.5 193.167,710.5 194.5,710.5C 202.243,717.749 210.909,723.582 220.5,728C 222.141,729.129 223.141,730.629 223.5,732.5C 210.837,727.476 199.837,720.143 190.5,710.5 Z"/></g>
<g><path style="opacity:1" fill="#ece6c7" d="M 156.5,669.5 C 166.271,679.772 176.271,689.938 186.5,700C 210.89,721.199 237.89,738.366 267.5,751.5C 265.5,751.167 263.5,750.833 261.5,750.5C 260.833,750.167 260.167,749.833 259.5,749.5C 250.716,744.11 241.383,739.776 231.5,736.5C 228.86,735.18 226.193,733.847 223.5,732.5C 223.141,730.629 222.141,729.129 220.5,728C 210.909,723.582 202.243,717.749 194.5,710.5C 182.527,698.861 170.527,687.194 158.5,675.5C 157.5,675.167 156.833,674.5 156.5,673.5C 156.5,672.167 156.5,670.833 156.5,669.5 Z"/></g>
<g><path style="opacity:1" fill="#e5d98b" d="M 476.5,728.5 C 465.789,738.025 453.456,744.691 439.5,748.5C 444.492,744.097 450.325,741.097 457,739.5C 461.681,735.274 466.848,731.774 472.5,729C 473.946,727.702 475.279,727.535 476.5,728.5 Z"/></g>
<g><path style="opacity:1" fill="#f6efc1" d="M 490.5,716.5 C 486.618,721.437 481.952,725.437 476.5,728.5C 475.279,727.535 473.946,727.702 472.5,729C 466.848,731.774 461.681,735.274 457,739.5C 450.325,741.097 444.492,744.097 439.5,748.5C 435.468,749.285 431.468,750.285 427.5,751.5C 424.5,752.167 421.5,752.833 418.5,753.5C 431.842,748.837 444.842,743.003 457.5,736C 468.555,729.477 479.555,722.977 490.5,716.5 Z"/></g>
<g><path style="opacity:1" fill="#3d3924" d="M 203.5,738.5 C 211.356,737.687 214.689,741.02 213.5,748.5C 210.792,750.436 207.792,750.936 204.5,750C 202.99,748.649 201.99,746.982 201.5,745C 202.609,742.953 203.276,740.787 203.5,738.5 Z"/></g>
<g><path style="opacity:1" fill="#fdf1a6" d="M 231.5,736.5 C 241.383,739.776 250.716,744.11 259.5,749.5C 248.84,747.834 239.507,743.501 231.5,736.5 Z"/></g>
<g><path style="opacity:1" fill="#ebda6d" d="M 210.5,744.5 C 209.448,746.256 207.781,746.923 205.5,746.5C 205.5,745.5 205.5,744.5 205.5,743.5C 207.455,742.07 209.121,742.403 210.5,744.5 Z"/></g>
<g><path style="opacity:1" fill="#3a3623" d="M 220.5,743.5 C 226.496,742.333 228.996,744.666 228,750.5C 221.974,752.314 219.474,749.981 220.5,743.5 Z"/></g>
<g><path style="opacity:1" fill="#897f40" d="M 205.5,743.5 C 205.5,744.5 205.5,745.5 205.5,746.5C 207.781,746.923 209.448,746.256 210.5,744.5C 211.404,745.209 211.737,746.209 211.5,747.5C 209.167,747.5 206.833,747.5 204.5,747.5C 204.232,745.901 204.566,744.568 205.5,743.5 Z"/></g>
<g><path style="opacity:1" fill="#353122" d="M 404.5,797.5 C 403.833,797.5 403.167,797.5 402.5,797.5C 375.252,800.356 347.919,801.189 320.5,800C 271.822,795.253 226.822,779.919 185.5,754C 183.561,753.092 182.561,751.592 182.5,749.5C 198.248,757.875 214.248,766.042 230.5,774C 276.656,792.915 324.656,800.581 374.5,797C 384.785,794.884 395.119,794.051 405.5,794.5C 404.873,795.417 404.539,796.417 404.5,797.5 Z"/></g>
<g><path style="opacity:1" fill="#38352e" d="M 327.5,548.5 C 340.279,548.101 348.446,554.101 352,566.5C 354.246,581.467 356.246,596.467 358,611.5C 365.873,637.121 374.54,662.454 384,687.5C 387.493,701.805 390.826,716.138 394,730.5C 394.667,736.167 394.667,741.833 394,747.5C 393.065,750.102 391.232,751.602 388.5,752C 365.584,754.796 342.917,753.463 320.5,748C 300.755,742.53 281.422,735.863 262.5,728C 253.548,720.927 250.048,711.761 252,700.5C 258.938,688.567 266.271,676.9 274,665.5C 283.699,641.038 291.699,616.038 298,590.5C 304.831,578.166 312.165,566.166 320,554.5C 322.478,552.361 324.978,550.361 327.5,548.5 Z"/></g>
<g><path style="opacity:1" fill="#f7e674" d="M 328.5,551.5 C 338.458,550.896 345.291,555.229 349,564.5C 351.292,581.876 353.959,599.209 357,616.5C 365.333,640.167 373.667,663.833 382,687.5C 387.477,706.882 391.144,726.548 393,746.5C 391.786,748.049 390.286,749.215 388.5,750C 362.01,752.576 336.01,750.243 310.5,743C 294.539,738.124 278.872,732.458 263.5,726C 254.9,718.987 252.067,710.154 255,699.5C 259.164,691.005 264.498,683.339 271,676.5C 283.649,649.552 293.316,621.552 300,592.5C 306.415,581.334 313.082,570.334 320,559.5C 322.729,556.601 325.562,553.934 328.5,551.5 Z"/></g>
<g><path style="opacity:1" fill="#3b361c" d="M 343.5,736.5 C 353.482,740.109 363.815,742.109 374.5,742.5C 364.24,743.725 354.24,742.559 344.5,739C 343.748,738.329 343.414,737.496 343.5,736.5 Z"/></g>
<g><path style="opacity:1" fill="#423b1e" d="M 380.5,733.5 C 382.288,733.215 383.955,733.548 385.5,734.5C 381.272,736.143 376.938,736.977 372.5,737C 375.374,736.058 378.04,734.891 380.5,733.5 Z"/></g>
<g><path style="opacity:1" fill="#363019" d="M 381.5,717.5 C 382.496,717.414 383.329,717.748 384,718.5C 384.667,721.167 384.667,723.833 384,726.5C 383.605,723.348 382.772,720.348 381.5,717.5 Z"/></g>
<g><path style="opacity:1" fill="#443f21" d="M 276.5,711.5 C 281.018,714.505 285.684,717.338 290.5,720C 295.167,721 299.833,722 304.5,723C 295.148,723.328 286.481,720.994 278.5,716C 276.963,714.89 276.297,713.39 276.5,711.5 Z"/></g>
<g><path style="opacity:1" fill="#fefade" d="M 343.5,698.5 C 344.332,704.217 345.332,710.05 346.5,716C 346.612,717.662 345.946,718.829 344.5,719.5C 343.503,712.532 343.17,705.532 343.5,698.5 Z"/></g>
<g><path style="opacity:1" fill="#3f3a1e" d="M 272.5,694.5 C 273.376,694.369 274.043,694.702 274.5,695.5C 272.851,697.65 271.018,699.65 269,701.5C 268.105,703.804 267.271,706.138 266.5,708.5C 265.386,707.277 265.219,705.944 266,704.5C 267.431,700.626 269.597,697.293 272.5,694.5 Z"/></g>
<g><path style="opacity:1" fill="#fefade" d="M 318.5,679.5 C 319.586,679.62 320.253,680.287 320.5,681.5C 319.307,686.273 317.807,690.94 316,695.5C 316.491,690.166 317.324,684.833 318.5,679.5 Z"/></g>
<g><path style="opacity:1" fill="#fef9dd" d="M 356.5,677.5 C 357.496,677.414 358.329,677.748 359,678.5C 359.707,680.081 360.54,681.581 361.5,683C 358.404,682.73 356.737,680.897 356.5,677.5 Z"/></g>
<g><path style="opacity:1" fill="#fef7d0" d="M 335.5,674.5 C 337.385,676.795 337.885,679.462 337,682.5C 335.748,679.986 335.248,677.32 335.5,674.5 Z"/></g>
<g><path style="opacity:1" fill="#fefae1" d="M 302.5,659.5 C 303.239,659.369 303.906,659.536 304.5,660C 302.348,662.469 300.848,665.302 300,668.5C 299.131,665.007 299.964,662.007 302.5,659.5 Z"/></g>
<g><path style="opacity:1" fill="#fefcec" d="M 339.5,651.5 C 341.847,653.03 342.014,655.03 340,657.5C 339.505,655.527 339.338,653.527 339.5,651.5 Z"/></g>
<g><path style="opacity:1" fill="#fef8d6" d="M 321.5,639.5 C 322.586,639.62 323.253,640.287 323.5,641.5C 322.486,645.225 321.319,648.892 320,652.5C 319.269,648.016 319.769,643.682 321.5,639.5 Z"/></g>
<g><path style="opacity:1" fill="#fefae4" d="M 301.5,636.5 C 302.497,636.47 303.164,636.97 303.5,638C 301.89,642.054 299.89,645.887 297.5,649.5C 297.167,649.167 296.833,648.833 296.5,648.5C 298.738,644.697 300.404,640.697 301.5,636.5 Z"/></g>
<g><path style="opacity:1" fill="#fefae3" d="M 336.5,627.5 C 337.75,627.577 338.583,628.244 339,629.5C 339.667,631.5 339.667,633.5 339,635.5C 337.659,632.978 336.826,630.311 336.5,627.5 Z"/></g>
<g><path style="opacity:1" fill="#403b1e" d="M 337.5,569.5 C 339.984,571.12 341.484,573.453 342,576.5C 344.47,596.651 347.803,616.651 352,636.5C 354.542,646.314 358.709,655.314 364.5,663.5C 363.349,664.731 362.183,664.731 361,663.5C 355.84,654.693 351.84,645.36 349,635.5C 346.333,617.499 343.667,599.499 341,581.5C 340.331,577.329 339.164,573.329 337.5,569.5 Z"/></g>
<g><path style="opacity:1" fill="#fefae2" d="M 316.5,610.5 C 317.376,610.369 318.043,610.702 318.5,611.5C 316.726,614.715 315.226,618.048 314,621.5C 313.486,617.538 314.32,613.871 316.5,610.5 Z"/></g>
<g><path style="opacity:1" fill="#fefae3" d="M 331.5,597.5 C 332.586,597.62 333.253,598.287 333.5,599.5C 332.768,602.197 331.934,604.864 331,607.5C 330.341,604.112 330.508,600.779 331.5,597.5 Z"/></g>
<g><path style="opacity:1" fill="#fefae2" d="M 324.5,577.5 C 325.675,577.281 326.675,577.614 327.5,578.5C 324.198,584.299 320.698,589.966 317,595.5C 319.171,589.475 321.671,583.475 324.5,577.5 Z"/></g>
<g><path style="opacity:1" fill="#343121" d="M 219.5,756.5 C 220.5,756.5 221.5,756.5 222.5,756.5C 222.5,757.5 222.5,758.5 222.5,759.5C 221.5,759.5 220.5,759.5 219.5,759.5C 219.5,758.5 219.5,757.5 219.5,756.5 Z"/></g>
<g><path style="opacity:0.996" fill="#e8dd95" d="M 261.5,750.5 C 263.5,750.833 265.5,751.167 267.5,751.5C 278.907,755.192 290.24,758.858 301.5,762.5C 294.055,762.378 287.055,760.544 280.5,757C 275.766,756.317 271.1,755.317 266.5,754C 264.416,753.303 262.749,752.136 261.5,750.5 Z"/></g>
<g><path style="opacity:1" fill="#f3eecd" d="M 415.5,754.5 C 407.804,757.26 399.804,759.427 391.5,761C 374.225,763.228 356.891,764.728 339.5,765.5C 328.106,765.019 317.106,763.019 306.5,759.5C 314.584,759.51 322.584,760.344 330.5,762C 349.879,762.751 369.212,762.085 388.5,760C 397.35,757.37 406.35,755.537 415.5,754.5 Z"/></g>
<g><path style="opacity:1" fill="#e6dc9a" d="M 427.5,751.5 C 399.47,764.456 370.137,769.123 339.5,765.5C 356.891,764.728 374.225,763.228 391.5,761C 399.804,759.427 407.804,757.26 415.5,754.5C 416.609,754.443 417.609,754.11 418.5,753.5C 421.5,752.833 424.5,752.167 427.5,751.5 Z"/></g>
<g><path style="opacity:0.98" fill="#998d48" d="M 381.5,788.5 C 378.311,789.166 374.977,789.833 371.5,790.5C 375.107,791.489 378.774,791.823 382.5,791.5C 378.702,792.483 374.702,792.817 370.5,792.5C 370.5,791.167 370.5,789.833 370.5,788.5C 374.167,788.5 377.833,788.5 381.5,788.5 Z"/></g>
</svg>
