<?xml version="1.0" encoding="UTF-8"?>
<!DOCTYPE svg PUBLIC "-//W3C//DTD SVG 1.1//EN" "http://www.w3.org/Graphics/SVG/1.1/DTD/svg11.dtd">
<svg xmlns="http://www.w3.org/2000/svg" version="1.1" width="1920px" height="1080px" style="shape-rendering:geometricPrecision; text-rendering:geometricPrecision; image-rendering:optimizeQuality; fill-rule:evenodd; clip-rule:evenodd" xmlns:xlink="http://www.w3.org/1999/xlink">
<g><path style="opacity:0.903" fill="#181713" d="M 841.5,275.5 C 841.877,277.824 842.877,278.491 844.5,277.5C 877.699,304.196 908.199,333.863 936,366.5C 936.601,367.965 936.101,368.965 934.5,369.5C 915.71,349.542 896.71,329.708 877.5,310C 856.984,290.493 833.984,274.493 808.5,262C 784.099,252.185 758.766,246.185 732.5,244C 671.13,236.739 614.464,249.739 562.5,283C 550.444,292.056 538.11,300.722 525.5,309C 520.199,313.3 515.199,317.966 510.5,323C 509.552,323.483 508.552,323.649 507.5,323.5C 507.5,322.5 507.5,321.5 507.5,320.5C 515.945,311.057 525.612,303.057 536.5,296.5C 538.404,296.262 539.738,295.262 540.5,293.5C 605.257,243.983 677.924,227.149 758.5,243C 788.804,247.483 816.471,258.316 841.5,275.5 Z"/></g>
<g><path style="opacity:0.963" fill="#fbf560" d="M 844.5,277.5 C 889.92,302.754 924.753,338.421 949,384.5C 951.403,388.635 953.237,392.968 954.5,397.5C 950.692,391.23 946.859,384.897 943,378.5C 941.736,376.393 939.903,375.393 937.5,375.5C 937.491,377.308 937.991,378.975 939,380.5C 948.816,394.92 956.149,410.587 961,427.5C 967.636,457.849 972.303,488.516 975,519.5C 975.698,531.957 974.698,544.29 972,556.5C 968.857,574.025 964.857,591.358 960,608.5C 946.638,638.908 929.971,667.241 910,693.5C 901,703.833 892,714.167 883,724.5C 876.431,731.739 869.265,738.239 861.5,744C 846.833,753.667 832.167,763.333 817.5,773C 803.152,781.839 787.818,788.505 771.5,793C 770.151,794.635 770.318,796.135 772,797.5C 777.401,795.533 782.901,793.867 788.5,792.5C 777.96,797.011 766.96,800.344 755.5,802.5C 659.861,823.591 575.194,802.091 501.5,738C 467.53,706.177 443.53,668.011 429.5,623.5C 439.511,641.521 449.011,659.854 458,678.5C 473.192,705.694 493.358,728.527 518.5,747C 522.183,749.872 526.183,752.038 530.5,753.5C 530.703,751.61 530.037,750.11 528.5,749C 500.095,730.264 477.595,706.098 461,676.5C 449.864,655.228 439.531,633.562 430,611.5C 421.177,573.315 417.844,534.648 420,495.5C 421.258,473.136 426.591,451.802 436,431.5C 447.177,404.136 461.177,378.469 478,354.5C 483.422,347.076 490.088,341.076 498,336.5C 498.706,333.031 497.539,332.031 494.5,333.5C 497.833,328.167 502.167,323.833 507.5,320.5C 507.5,321.5 507.5,322.5 507.5,323.5C 508.552,323.649 509.552,323.483 510.5,323C 515.199,317.966 520.199,313.3 525.5,309C 538.11,300.722 550.444,292.056 562.5,283C 614.464,249.739 671.13,236.739 732.5,244C 758.766,246.185 784.099,252.185 808.5,262C 833.984,274.493 856.984,290.493 877.5,310C 896.71,329.708 915.71,349.542 934.5,369.5C 936.101,368.965 936.601,367.965 936,366.5C 908.199,333.863 877.699,304.196 844.5,277.5 Z"/></g>
<g><path style="opacity:1" fill="#1d1c15" d="M 715.5,268.5 C 733.157,266.582 749.824,269.749 765.5,278C 766.337,279.011 766.67,280.178 766.5,281.5C 759.093,278.137 751.426,275.304 743.5,273C 734.011,271.422 724.511,271.255 715,272.5C 714.167,272.167 713.333,271.833 712.5,271.5C 713.34,270.265 714.34,269.265 715.5,268.5 Z"/></g>
<g><path style="opacity:1" fill="#1e1e19" d="M 705.5,275.5 C 713.507,275.334 721.507,275.5 729.5,276C 748.021,281.63 766.688,286.63 785.5,291C 799.652,295.495 813.319,301.162 826.5,308C 886.837,348.728 924.67,404.895 940,476.5C 941.644,488.46 942.811,500.46 943.5,512.5C 944.322,584.232 920.489,646.232 872,698.5C 862.938,707.73 853.772,716.73 844.5,725.5C 831.749,736.735 817.749,746.235 802.5,754C 797.323,755.961 791.99,757.294 786.5,758C 754.654,772.265 721.32,777.598 686.5,774C 676.02,772.893 665.687,771.06 655.5,768.5C 646.547,766.007 637.547,763.341 628.5,760.5C 577.977,740.968 535.977,709.968 502.5,667.5C 494.831,656.825 487.164,646.158 479.5,635.5C 475.629,628.424 472.296,621.091 469.5,613.5C 470.5,613.5 471.5,613.5 472.5,613.5C 505.285,679.782 555.952,726.949 624.5,755C 635.851,759.618 647.518,763.118 659.5,765.5C 671.483,768.886 683.816,770.886 696.5,771.5C 725.154,773.632 752.487,768.965 778.5,757.5C 781.921,755.624 785.588,754.624 789.5,754.5C 805.139,750.185 818.806,742.518 830.5,731.5C 835.719,728.954 840.052,725.287 843.5,720.5C 883.659,687.863 911.659,646.863 927.5,597.5C 939.317,563.692 942.984,529.025 938.5,493.5C 935.966,466.351 928.633,440.684 916.5,416.5C 892.935,365.768 856.268,327.601 806.5,302C 798.706,298.79 790.706,296.29 782.5,294.5C 771.774,290.881 760.774,287.881 749.5,285.5C 735.816,280.039 721.483,278.039 706.5,279.5C 699.957,279.999 693.623,280.999 687.5,282.5C 639.951,286.121 597.284,302.288 559.5,331C 520.814,359.907 491.814,396.407 472.5,440.5C 465.368,455.334 460.535,471.001 458,487.5C 457.17,510.004 457.337,532.337 458.5,554.5C 458.5,554.833 458.5,555.167 458.5,555.5C 458.675,564.555 459.509,573.555 461,582.5C 463.279,590.5 465.446,598.5 467.5,606.5C 466.504,606.586 465.671,606.252 465,605.5C 459.504,591.688 456.17,577.354 455,562.5C 453.908,540.174 453.574,517.84 454,495.5C 456.907,469.702 464.407,445.369 476.5,422.5C 484.157,408.521 492.824,395.188 502.5,382.5C 523.405,356.255 547.738,333.922 575.5,315.5C 589.702,307.212 604.369,299.879 619.5,293.5C 641.509,286.567 663.842,281.567 686.5,278.5C 693.095,278.292 699.428,277.292 705.5,275.5 Z"/></g>
<g><path style="opacity:0.792" fill="#8b8b39" d="M 841.5,275.5 C 843.027,275.427 844.027,276.094 844.5,277.5C 842.877,278.491 841.877,277.824 841.5,275.5 Z"/></g>
<g><path style="opacity:1" fill="#f4f190" d="M 686.5,278.5 C 663.842,281.567 641.509,286.567 619.5,293.5C 618.833,293.5 618.167,293.5 617.5,293.5C 624.674,290.419 632.007,287.586 639.5,285C 655.013,281.731 670.679,279.564 686.5,278.5 Z"/></g>
<g><path style="opacity:1" fill="#faf89b" d="M 706.5,279.5 C 721.483,278.039 735.816,280.039 749.5,285.5C 735.689,282.503 721.689,281.003 707.5,281C 706.944,280.617 706.611,280.117 706.5,279.5 Z"/></g>
<g><path style="opacity:1" fill="#1f1e15" d="M 581.5,282.5 C 582.833,282.5 584.167,282.5 585.5,282.5C 585.719,283.675 585.386,284.675 584.5,285.5C 563.36,293.893 544.36,305.56 527.5,320.5C 523.98,324.186 520.647,328.019 517.5,332C 516.552,332.483 515.552,332.649 514.5,332.5C 514.954,329.86 516.121,327.527 518,325.5C 528.389,314.101 540.222,304.601 553.5,297C 562.8,291.852 572.134,287.018 581.5,282.5 Z"/></g>
<g><path style="opacity:1" fill="#f6f4c5" d="M 706.5,279.5 C 706.611,280.117 706.944,280.617 707.5,281C 721.689,281.003 735.689,282.503 749.5,285.5C 760.774,287.881 771.774,290.881 782.5,294.5C 784.833,295.833 787.167,297.167 789.5,298.5C 772.775,293.32 755.775,288.82 738.5,285C 721.561,282.969 704.561,282.135 687.5,282.5C 693.623,280.999 699.957,279.999 706.5,279.5 Z"/></g>
<g><path style="opacity:1" fill="#fbfbfa" d="M 687.5,282.5 C 704.561,282.135 721.561,282.969 738.5,285C 755.775,288.82 772.775,293.32 789.5,298.5C 789.833,299.167 790.167,299.833 790.5,300.5C 790.953,301.458 791.619,302.292 792.5,303C 830.467,319.634 861.967,344.467 887,377.5C 888.713,378.976 890.547,380.31 892.5,381.5C 896.609,388.073 900.942,394.406 905.5,400.5C 906.338,400.842 906.672,401.508 906.5,402.5C 908.392,407.953 911.059,412.953 914.5,417.5C 919.282,432.426 924.115,447.426 929,462.5C 931.99,475.444 934.657,488.444 937,501.5C 937.596,519.181 937.262,536.847 936,554.5C 933.397,568.894 930.564,583.227 927.5,597.5C 911.659,646.863 883.659,687.863 843.5,720.5C 825.982,732.587 807.649,743.087 788.5,752C 783.124,754.208 777.624,756.042 772,757.5C 770.97,757.836 770.47,758.503 770.5,759.5C 770.167,759.5 769.833,759.5 769.5,759.5C 759.385,761.028 749.385,763.195 739.5,766C 720.549,768.106 701.549,768.773 682.5,768C 674.949,766.121 667.282,765.287 659.5,765.5C 647.518,763.118 635.851,759.618 624.5,755C 555.952,726.949 505.285,679.782 472.5,613.5C 470.019,605.246 467.685,596.912 465.5,588.5C 465.132,587.09 464.299,586.09 463,585.5C 462.181,577.847 461.514,570.18 461,562.5C 459.957,560.167 459.124,557.834 458.5,555.5C 458.5,555.167 458.5,554.833 458.5,554.5C 458.438,535.153 458.938,515.82 460,496.5C 462.647,484.266 464.647,471.933 466,459.5C 469.441,453.575 471.608,447.242 472.5,440.5C 491.814,396.407 520.814,359.907 559.5,331C 597.284,302.288 639.951,286.121 687.5,282.5 Z"/></g>
<g><path style="opacity:0.075" fill="#8d8739" d="M 540.5,293.5 C 539.738,295.262 538.404,296.262 536.5,296.5C 537.262,294.738 538.596,293.738 540.5,293.5 Z"/></g>
<g><path style="opacity:1" fill="#f3f1b2" d="M 617.5,293.5 C 618.167,293.5 618.833,293.5 619.5,293.5C 604.369,299.879 589.702,307.212 575.5,315.5C 570.271,316.781 565.604,319.115 561.5,322.5C 564.132,318.992 567.466,316.158 571.5,314C 584.003,308.299 596.336,302.299 608.5,296C 611.546,295.261 614.546,294.428 617.5,293.5 Z"/></g>
<g><path style="opacity:1" fill="#1a1915" d="M 691.5,304.5 C 702.834,304.921 714.167,305.421 725.5,306C 734.933,306.635 743.1,310.135 750,316.5C 755.611,324.455 756.944,333.122 754,342.5C 744.774,365.846 737.774,389.846 733,414.5C 729.36,426.777 724.36,438.444 718,449.5C 710.755,458.99 703.755,468.656 697,478.5C 691.185,489.096 688.185,500.429 688,512.5C 686.695,515.306 684.528,516.14 681.5,515C 676.917,511.088 673.083,506.588 670,501.5C 660.254,483.007 650.254,464.673 640,446.5C 621.634,427.802 603.634,408.802 586,389.5C 581.46,382.959 577.793,375.959 575,368.5C 571.99,350.007 579.156,337.507 596.5,331C 618.592,324.644 640.592,317.977 662.5,311C 672.23,308.491 681.897,306.324 691.5,304.5 Z"/></g>
<g><path style="opacity:1" fill="#fcf660" d="M 693.5,307.5 C 703.172,307.334 712.839,307.5 722.5,308C 733.334,308.713 742.5,312.88 750,320.5C 752.446,327.285 753.113,334.285 752,341.5C 748.619,351.931 744.952,362.264 741,372.5C 736.624,391.336 731.624,410.003 726,428.5C 719.264,444.317 710.264,458.65 699,471.5C 690.98,482.92 686.98,495.587 687,509.5C 686.176,513.665 684.009,514.498 680.5,512C 678,508.833 675.5,505.667 673,502.5C 662.921,483.34 652.587,464.34 642,445.5C 622.933,426.436 604.599,406.769 587,386.5C 576.424,373.189 574.758,358.855 582,343.5C 586.064,339.214 590.897,336.048 596.5,334C 618.893,327.536 641.226,320.869 663.5,314C 673.541,311.361 683.541,309.194 693.5,307.5 Z"/></g>
<g><path style="opacity:1" fill="#fefcb5" d="M 789.5,298.5 C 802.738,301.618 814.405,307.618 824.5,316.5C 821.049,316.474 818.382,314.974 816.5,312C 807.438,308.967 798.772,305.134 790.5,300.5C 790.167,299.833 789.833,299.167 789.5,298.5 Z"/></g>
<g><path style="opacity:1" fill="#f3ef83" d="M 782.5,294.5 C 790.706,296.29 798.706,298.79 806.5,302C 856.268,327.601 892.935,365.768 916.5,416.5C 913.555,411.555 910.221,406.888 906.5,402.5C 906.672,401.508 906.338,400.842 905.5,400.5C 905.657,399.127 905.49,397.793 905,396.5C 901.333,390.833 897.667,385.167 894,379.5C 883.425,367.252 872.425,355.252 861,343.5C 849.262,333.93 837.096,324.93 824.5,316.5C 814.405,307.618 802.738,301.618 789.5,298.5C 787.167,297.167 784.833,295.833 782.5,294.5 Z"/></g>
<g><path style="opacity:1" fill="#fdf973" d="M 705.5,275.5 C 699.428,277.292 693.095,278.292 686.5,278.5C 670.679,279.564 655.013,281.731 639.5,285C 632.007,287.586 624.674,290.419 617.5,293.5C 614.546,294.428 611.546,295.261 608.5,296C 596.336,302.299 584.003,308.299 571.5,314C 567.466,316.158 564.132,318.992 561.5,322.5C 558.91,323.128 556.577,324.295 554.5,326C 544.393,335.218 533.726,343.718 522.5,351.5C 522.901,347.93 524.901,345.764 528.5,345C 539.997,332.503 552.997,321.837 567.5,313C 580.413,307.806 592.746,301.473 604.5,294C 636.885,280.936 670.551,274.769 705.5,275.5 Z"/></g>
<g><path style="opacity:1" fill="#efedc9" d="M 575.5,315.5 C 547.738,333.922 523.405,356.255 502.5,382.5C 505.234,376.565 509.067,371.232 514,366.5C 514.333,365.5 514.667,364.5 515,363.5C 522.504,355.663 530.337,348.163 538.5,341C 546.602,335.294 554.269,329.128 561.5,322.5C 565.604,319.115 570.271,316.781 575.5,315.5 Z"/></g>
<g><path style="opacity:1" fill="#fffee1" d="M 790.5,300.5 C 798.772,305.134 807.438,308.967 816.5,312C 818.382,314.974 821.049,316.474 824.5,316.5C 837.096,324.93 849.262,333.93 861,343.5C 872.425,355.252 883.425,367.252 894,379.5C 897.667,385.167 901.333,390.833 905,396.5C 905.49,397.793 905.657,399.127 905.5,400.5C 900.942,394.406 896.609,388.073 892.5,381.5C 890.547,380.31 888.713,378.976 887,377.5C 861.967,344.467 830.467,319.634 792.5,303C 791.619,302.292 790.953,301.458 790.5,300.5 Z"/></g>
<g><path style="opacity:1" fill="#201f0f" d="M 685.5,325.5 C 688.247,325.187 690.914,325.52 693.5,326.5C 693.291,327.086 692.957,327.586 692.5,328C 681.524,327.918 671.69,331.085 663,337.5C 662.333,336.833 662.333,336.167 663,335.5C 669.886,330.637 677.386,327.304 685.5,325.5 Z"/></g>
<g><path style="opacity:0.935" fill="#1e1d15" d="M 429.5,623.5 C 424.465,610.356 421.131,596.689 419.5,582.5C 418.298,570.676 416.964,559.009 415.5,547.5C 413.612,518.092 415.445,488.758 421,459.5C 431.96,428.248 445.627,398.248 462,369.5C 468.984,357.842 477.484,347.342 487.5,338C 489.862,336.489 492.195,334.989 494.5,333.5C 497.539,332.031 498.706,333.031 498,336.5C 490.088,341.076 483.422,347.076 478,354.5C 461.177,378.469 447.177,404.136 436,431.5C 426.591,451.802 421.258,473.136 420,495.5C 417.844,534.648 421.177,573.315 430,611.5C 439.531,633.562 449.864,655.228 461,676.5C 477.595,706.098 500.095,730.264 528.5,749C 530.037,750.11 530.703,751.61 530.5,753.5C 526.183,752.038 522.183,749.872 518.5,747C 493.358,728.527 473.192,705.694 458,678.5C 449.011,659.854 439.511,641.521 429.5,623.5 Z"/></g>
<g><path style="opacity:1" fill="#201f0e" d="M 700.5,325.5 C 712.365,326.381 723.365,329.881 733.5,336C 735.227,337.389 736.561,339.056 737.5,341C 737.15,342.257 736.483,342.591 735.5,342C 726.358,332.279 715.025,327.613 701.5,328C 700.748,327.329 700.414,326.496 700.5,325.5 Z"/></g>
<g><path style="opacity:1" fill="#1d1d15" d="M 896.5,339.5 C 899.734,339.237 901.068,340.737 900.5,344C 900.345,349.326 898.178,350.493 894,347.5C 891.692,343.795 892.525,341.128 896.5,339.5 Z"/></g>
<g><path style="opacity:1" fill="#222117" d="M 503.5,341.5 C 509.303,341.81 511.47,344.81 510,350.5C 504.934,354.733 501.767,353.399 500.5,346.5C 501.092,344.577 502.092,342.911 503.5,341.5 Z"/></g>
<g><path style="opacity:1" fill="#dfdb56" d="M 504.5,345.5 C 506.912,345.694 507.912,347.027 507.5,349.5C 506.5,349.5 505.5,349.5 504.5,349.5C 504.5,348.167 504.5,346.833 504.5,345.5 Z"/></g>
<g><path style="opacity:1" fill="#201f16" d="M 906.5,345.5 C 907.552,345.351 908.552,345.517 909.5,346C 930.592,369.343 945.592,396.176 954.5,426.5C 953.5,426.5 952.5,426.5 951.5,426.5C 942.295,397.167 927.462,371.167 907,348.5C 906.517,347.552 906.351,346.552 906.5,345.5 Z"/></g>
<g><path style="opacity:1" fill="#1f1e0d" d="M 701.5,345.5 C 704.85,345.335 708.183,345.502 711.5,346C 713.044,346.29 714.377,346.956 715.5,348C 714.975,348.692 714.308,349.192 713.5,349.5C 709.203,348.4 705.203,347.067 701.5,345.5 Z"/></g>
<g><path style="opacity:1" fill="#212016" d="M 490.5,354.5 C 495.351,353.868 497.851,355.868 498,360.5C 494.167,363.498 491.334,362.665 489.5,358C 489.989,356.862 490.322,355.695 490.5,354.5 Z"/></g>
<g><path style="opacity:1" fill="#222010" d="M 607.5,344.5 C 608.675,344.281 609.675,344.614 610.5,345.5C 602.689,350.748 599.856,358.081 602,367.5C 602.375,370 603.208,372.333 604.5,374.5C 604.167,374.833 603.833,375.167 603.5,375.5C 598.353,366.754 598.187,357.754 603,348.5C 604.397,346.93 605.897,345.596 607.5,344.5 Z"/></g>
<g><path style="opacity:1" fill="#1e1d16" d="M 503.5,360.5 C 505.665,360.116 507.332,360.783 508.5,362.5C 506.5,363.833 504.5,363.833 502.5,362.5C 502.863,361.817 503.196,361.15 503.5,360.5 Z"/></g>
<g><path style="opacity:1" fill="#21200f" d="M 635.5,340.5 C 637.355,340.272 638.188,340.939 638,342.5C 620.796,352.576 613.463,367.576 616,387.5C 616.973,390.779 618.473,393.779 620.5,396.5C 619.132,397.594 617.965,397.26 617,395.5C 609.476,372.572 615.643,354.239 635.5,340.5 Z"/></g>
<g><path style="opacity:1" fill="#fbf894" d="M 561.5,322.5 C 554.269,329.128 546.602,335.294 538.5,341C 530.337,348.163 522.504,355.663 515,363.5C 514.667,364.5 514.333,365.5 514,366.5C 509.067,371.232 505.234,376.565 502.5,382.5C 492.824,395.188 484.157,408.521 476.5,422.5C 477.705,417.752 479.205,413.085 481,408.5C 482.23,405.268 484.23,402.601 487,400.5C 488.894,395.608 491.228,390.941 494,386.5C 503.05,374.36 512.55,362.694 522.5,351.5C 533.726,343.718 544.393,335.218 554.5,326C 556.577,324.295 558.91,323.128 561.5,322.5 Z"/></g>
<g><path style="opacity:1" fill="#1a1914" d="M 547.5,368.5 C 554.068,369.949 560.068,372.782 565.5,377C 583.036,395.534 600.202,414.367 617,433.5C 624.17,447.525 633.504,459.859 645,470.5C 656.914,485.765 667.247,502.098 676,519.5C 677.741,527.757 674.408,531.757 666,531.5C 649.526,529.988 633.026,529.488 616.5,530C 608.246,532.012 599.913,533.512 591.5,534.5C 564.184,534.517 537.184,531.684 510.5,526C 496.67,522.49 485.17,515.323 476,504.5C 472.699,498.922 471.699,492.922 473,486.5C 477.628,462.95 485.628,440.617 497,419.5C 501.56,411.607 506.893,404.273 513,397.5C 525.775,389.361 537.275,379.694 547.5,368.5 Z"/></g>
<g><path style="opacity:1" fill="#fcf660" d="M 547.5,372.5 C 553.325,372.079 558.325,373.913 562.5,378C 581.583,397.692 600.083,417.859 618,438.5C 624.416,451.413 632.916,462.746 643.5,472.5C 655.161,487.144 665.328,502.811 674,519.5C 675.027,523.18 674.194,526.347 671.5,529C 658.5,528.89 645.5,528.39 632.5,527.5C 622.335,527.354 612.335,528.521 602.5,531C 574.963,532.39 547.629,530.723 520.5,526C 504.98,522.991 491.48,516.157 480,505.5C 475.504,500.676 473.837,495.01 475,488.5C 479.748,466.589 487.081,445.589 497,425.5C 505.728,408.105 518.562,394.605 535.5,385C 539.704,380.964 543.704,376.798 547.5,372.5 Z"/></g>
<g><path style="opacity:0.999" fill="#1f1e16" d="M 954.5,397.5 C 955.674,398.514 956.34,399.847 956.5,401.5C 956.402,403.553 957.069,405.22 958.5,406.5C 963.913,422.821 968.08,439.487 971,456.5C 974.419,480.601 977.252,504.768 979.5,529C 979.201,536.559 978.368,544.059 977,551.5C 973.487,566.398 970.487,581.398 968,596.5C 956.487,626.193 941.821,654.193 924,680.5C 907.993,701.849 890.493,722.015 871.5,741C 853.339,753.581 835.006,765.914 816.5,778C 807.514,783.659 798.18,788.492 788.5,792.5C 782.901,793.867 777.401,795.533 772,797.5C 770.318,796.135 770.151,794.635 771.5,793C 787.818,788.505 803.152,781.839 817.5,773C 832.167,763.333 846.833,753.667 861.5,744C 869.265,738.239 876.431,731.739 883,724.5C 892,714.167 901,703.833 910,693.5C 929.971,667.241 946.638,638.908 960,608.5C 964.857,591.358 968.857,574.025 972,556.5C 974.698,544.29 975.698,531.957 975,519.5C 972.303,488.516 967.636,457.849 961,427.5C 956.149,410.587 948.816,394.92 939,380.5C 937.991,378.975 937.491,377.308 937.5,375.5C 939.903,375.393 941.736,376.393 943,378.5C 946.859,384.897 950.692,391.23 954.5,397.5 Z"/></g>
<g><path style="opacity:1" fill="#fffef4" d="M 675.5,377.5 C 677.045,378.23 677.878,379.563 678,381.5C 678.798,383.259 678.631,384.926 677.5,386.5C 676.511,383.562 675.844,380.562 675.5,377.5 Z"/></g>
<g><path style="opacity:1" fill="#fffef5" d="M 636.5,378.5 C 637.178,387.568 638.678,396.568 641,405.5C 636.63,396.917 635.13,387.917 636.5,378.5 Z"/></g>
<g><path style="opacity:1" fill="#181813" d="M 786.5,319.5 C 797.025,319.097 806.025,322.597 813.5,330C 827.561,344.73 842.227,358.73 857.5,372C 876.703,389.91 891.869,410.743 903,434.5C 908.13,445.791 909.463,457.458 907,469.5C 903.9,475.213 899.066,478.38 892.5,479C 853.403,479.033 814.736,483.033 776.5,491C 768.591,492.56 760.924,494.894 753.5,498C 738.102,506.404 722.102,513.404 705.5,519C 701.328,520.291 698.161,519.124 696,515.5C 695.233,511.406 695.566,507.406 697,503.5C 699.289,497.956 701.956,492.623 705,487.5C 716.075,475.07 724.742,461.07 731,445.5C 743.472,410.751 755.138,375.751 766,340.5C 771.025,331.643 777.858,324.643 786.5,319.5 Z"/></g>
<g><path style="opacity:1" fill="#fbf660" d="M 787.5,321.5 C 792.371,321.192 797.037,322.025 801.5,324C 804.833,326.333 808.167,328.667 811.5,331C 829.333,348.167 847.167,365.333 865,382.5C 880.228,397.95 892.228,415.616 901,435.5C 905.724,446.16 907.057,457.16 905,468.5C 901.531,473.491 896.697,476.324 890.5,477C 852.41,476.566 814.743,480.233 777.5,488C 770.052,489.575 762.718,491.575 755.5,494C 739.958,502.106 723.958,509.106 707.5,515C 699.912,517.575 697.079,515.075 699,507.5C 701.197,500.773 704.197,494.439 708,488.5C 720.143,473.894 729.476,457.561 736,439.5C 746.807,408.413 756.807,377.08 766,345.5C 770.582,335.089 777.749,327.089 787.5,321.5 Z"/></g>
<g><path style="opacity:1" fill="#1a180a" d="M 780.5,363.5 C 781.675,363.281 782.675,363.614 783.5,364.5C 779.642,368.529 776.809,373.196 775,378.5C 774.831,384.859 774.331,391.193 773.5,397.5C 770.732,385.003 773.065,373.669 780.5,363.5 Z"/></g>
<g><path style="opacity:1" fill="#1a190c" d="M 800.5,348.5 C 798.5,347.833 796.5,347.167 794.5,346.5C 804.48,346.951 813.813,350.118 822.5,356C 822.957,356.414 823.291,356.914 823.5,357.5C 822.635,358.583 821.635,358.749 820.5,358C 814.742,352.955 808.075,349.788 800.5,348.5 Z"/></g>
<g><path style="opacity:1" fill="#72702a" d="M 794.5,346.5 C 796.5,347.167 798.5,347.833 800.5,348.5C 798.076,348.808 795.743,348.474 793.5,347.5C 793.624,346.893 793.957,346.56 794.5,346.5 Z"/></g>
<g><path style="opacity:1" fill="#fffeeb" d="M 793.5,388.5 C 794.586,388.62 795.253,389.287 795.5,390.5C 795.104,393.435 794.104,396.102 792.5,398.5C 792.167,398.167 791.833,397.833 791.5,397.5C 792.642,394.601 793.308,391.601 793.5,388.5 Z"/></g>
<g><path style="opacity:1" fill="#fffee7" d="M 716.5,384.5 C 717.777,385.694 718.444,387.36 718.5,389.5C 719.296,393.222 719.296,396.888 718.5,400.5C 716.735,395.337 716.068,390.004 716.5,384.5 Z"/></g>
<g><path style="opacity:1" fill="#1b1a0c" d="M 550.5,394.5 C 552.942,394.354 553.609,395.187 552.5,397C 549.511,397.33 546.678,398.164 544,399.5C 543.5,399.167 543,398.833 542.5,398.5C 545.25,397.125 547.916,395.792 550.5,394.5 Z"/></g>
<g><path style="opacity:0.007" fill="#f8f856" d="M 956.5,401.5 C 957.931,402.78 958.598,404.447 958.5,406.5C 957.069,405.22 956.402,403.553 956.5,401.5 Z"/></g>
<g><path style="opacity:1" fill="#fffef2" d="M 699.5,393.5 C 700.239,393.369 700.906,393.536 701.5,394C 696.49,398.85 693.157,404.683 691.5,411.5C 690.398,408.81 690.564,406.143 692,403.5C 694.717,400.29 697.217,396.956 699.5,393.5 Z"/></g>
<g><path style="opacity:1" fill="#201f0f" d="M 544.5,404.5 C 553.653,403.443 562.32,404.943 570.5,409C 572.019,410.351 573.352,411.851 574.5,413.5C 573.635,414.583 572.635,414.749 571.5,414C 568.866,410.682 565.533,408.349 561.5,407C 555.412,407.126 549.745,406.292 544.5,404.5 Z"/></g>
<g><path style="opacity:1" fill="#fffee8" d="M 652.5,397.5 C 655.602,399.656 657.768,402.656 659,406.5C 661.27,411.246 662.437,416.246 662.5,421.5C 661.5,421.5 660.5,421.5 659.5,421.5C 659.665,418.15 659.498,414.817 659,411.5C 657.079,406.661 654.912,401.994 652.5,397.5 Z"/></g>
<g><path style="opacity:1" fill="#fffee8" d="M 755.5,406.5 C 756.161,408.134 756.494,409.967 756.5,412C 756.596,414.375 756.096,416.541 755,418.5C 754.056,417.737 753.556,416.737 753.5,415.5C 754.064,412.435 754.731,409.435 755.5,406.5 Z"/></g>
<g><path style="opacity:1" fill="#fffef3" d="M 824.5,410.5 C 826.028,410.517 826.528,411.184 826,412.5C 823.061,414.396 820.561,416.73 818.5,419.5C 817.479,418.998 817.312,418.332 818,417.5C 820.372,415.297 822.539,412.963 824.5,410.5 Z"/></g>
<g><path style="opacity:1" fill="#1b1a0c" d="M 826.5,360.5 C 828.255,361.072 829.922,361.906 831.5,363C 850.238,380.065 866.404,399.232 880,420.5C 882.364,424.219 883.864,428.219 884.5,432.5C 883.5,432.5 882.5,432.5 881.5,432.5C 881.382,429.312 880.549,426.312 879,423.5C 866.176,400.337 849.343,380.503 828.5,364C 827.177,363.184 826.511,362.017 826.5,360.5 Z"/></g>
<g><path style="opacity:1" fill="#fffeee" d="M 776.5,423.5 C 777.239,423.369 777.906,423.536 778.5,424C 775.5,427.667 772.5,431.333 769.5,435C 768.365,435.749 767.365,435.583 766.5,434.5C 770.537,431.463 773.871,427.797 776.5,423.5 Z"/></g>
<g><path style="opacity:1" fill="#fffeed" d="M 798.5,418.5 C 799.376,418.369 800.043,418.702 800.5,419.5C 797.127,423.676 794.96,428.343 794,433.5C 793.13,432.892 792.63,432.059 792.5,431C 794.377,426.746 796.377,422.579 798.5,418.5 Z"/></g>
<g><path style="opacity:1" fill="#fffee8" d="M 704.5,426.5 C 705.649,426.791 706.316,427.624 706.5,429C 705.907,432.151 705.407,435.318 705,438.5C 703.844,439.993 703.01,439.826 702.5,438C 704.049,434.32 704.716,430.487 704.5,426.5 Z"/></g>
<g><path style="opacity:1" fill="#1b1a0c" d="M 533.5,400.5 C 535.028,400.517 535.528,401.184 535,402.5C 520.458,411.874 510.458,424.874 505,441.5C 501.228,453.165 496.895,464.498 492,475.5C 496.229,458.193 502.563,441.193 511,424.5C 516.985,415.017 524.485,407.017 533.5,400.5 Z"/></g>
<g><path style="opacity:1" fill="#fffee9" d="M 678.5,431.5 C 679.725,432.152 680.392,433.319 680.5,435C 681.39,437.893 681.39,440.726 680.5,443.5C 678.855,439.68 678.189,435.68 678.5,431.5 Z"/></g>
<g><path style="opacity:1" fill="#fffeee" d="M 642.5,422.5 C 646.94,426.666 650.44,431.666 653,437.5C 653.814,439.902 653.647,442.235 652.5,444.5C 651.453,437.072 648.286,430.738 643,425.5C 642.517,424.552 642.351,423.552 642.5,422.5 Z"/></g>
<g><path style="opacity:1" fill="#21200f" d="M 888.5,439.5 C 896.634,439.415 898.634,442.915 894.5,450C 887.207,449.539 885.207,446.039 888.5,439.5 Z"/></g>
<g><path style="opacity:1" fill="#ebe659" d="M 890.5,441.5 C 891.833,441.5 893.167,441.5 894.5,441.5C 894.662,443.527 894.495,445.527 894,447.5C 892.413,448.727 891.079,448.394 890,446.5C 889.36,444.735 889.527,443.068 890.5,441.5 Z"/></g>
<g><path style="opacity:1" fill="#fffef3" d="M 756.5,437.5 C 757.376,437.369 758.043,437.702 758.5,438.5C 756.389,444.205 753.722,449.539 750.5,454.5C 750.167,454.167 749.833,453.833 749.5,453.5C 752.928,448.644 755.261,443.311 756.5,437.5 Z"/></g>
<g><path style="opacity:1" fill="#f5f4dd" d="M 914.5,417.5 C 918.439,422.001 920.606,427.334 921,433.5C 929.016,452.903 934.849,472.903 938.5,493.5C 942.984,529.025 939.317,563.692 927.5,597.5C 930.564,583.227 933.397,568.894 936,554.5C 937.262,536.847 937.596,519.181 937,501.5C 934.657,488.444 931.99,475.444 929,462.5C 924.115,447.426 919.282,432.426 914.5,417.5 Z"/></g>
<g><path style="opacity:1" fill="#fffef8" d="M 811.5,448.5 C 812.552,448.351 813.552,448.517 814.5,449C 808.864,452.265 802.864,453.098 796.5,451.5C 801.749,450.996 806.749,449.996 811.5,448.5 Z"/></g>
<g><path style="opacity:1" fill="#fffeed" d="M 598.5,446.5 C 602.79,448.79 606.124,452.124 608.5,456.5C 607.5,457.833 606.5,457.833 605.5,456.5C 603.803,452.555 601.47,449.222 598.5,446.5 Z"/></g>
<g><path style="opacity:1" fill="#252412" d="M 878.5,452.5 C 884.662,451.254 887.162,453.588 886,459.5C 878.45,462.449 875.95,460.116 878.5,452.5 Z"/></g>
<g><path style="opacity:1" fill="#fffee7" d="M 693.5,451.5 C 694.376,451.369 695.043,451.702 695.5,452.5C 693.595,455.823 691.928,459.156 690.5,462.5C 689.386,461.277 689.219,459.944 690,458.5C 691.193,456.114 692.36,453.78 693.5,451.5 Z"/></g>
<g><path style="opacity:1" fill="#e4df57" d="M 880.5,454.5 C 881.833,454.5 883.167,454.5 884.5,454.5C 885.244,457.95 883.91,459.616 880.5,459.5C 880.5,457.833 880.5,456.167 880.5,454.5 Z"/></g>
<g><path style="opacity:1" fill="#fffef1" d="M 843.5,452.5 C 845.527,452.338 847.527,452.505 849.5,453C 849.167,453.333 848.833,453.667 848.5,454C 842.039,455.202 835.705,456.536 829.5,458C 834.01,455.55 838.677,453.716 843.5,452.5 Z"/></g>
<g><path style="opacity:1" fill="#eceab0" d="M 906.5,402.5 C 910.221,406.888 913.555,411.555 916.5,416.5C 928.633,440.684 935.966,466.351 938.5,493.5C 934.849,472.903 929.016,452.903 921,433.5C 920.606,427.334 918.439,422.001 914.5,417.5C 911.059,412.953 908.392,407.953 906.5,402.5 Z"/></g>
<g><path style="opacity:1" fill="#fffee7" d="M 568.5,457.5 C 569.251,456.427 570.251,456.26 571.5,457C 574.393,460.396 577.726,463.229 581.5,465.5C 580.635,466.583 579.635,466.749 578.5,466C 575,463.331 571.667,460.498 568.5,457.5 Z"/></g>
<g><path style="opacity:1" fill="#1b190b" d="M 893.5,456.5 C 899.091,457.666 900.924,460.999 899,466.5C 893.912,470.03 890.745,468.863 889.5,463C 890.205,460.458 891.539,458.292 893.5,456.5 Z"/></g>
<g><path style="opacity:1" fill="#e0db55" d="M 893.5,459.5 C 899.698,461.14 900.031,463.807 894.5,467.5C 892.954,466.788 891.954,465.622 891.5,464C 892.414,462.594 893.08,461.094 893.5,459.5 Z"/></g>
<g><path style="opacity:1" fill="#fffeef" d="M 665.5,451.5 C 667.61,455.823 669.443,460.49 671,465.5C 671.814,467.902 671.647,470.235 670.5,472.5C 668.623,465.539 666.956,458.539 665.5,451.5 Z"/></g>
<g><path style="opacity:1" fill="#fffeef" d="M 776.5,458.5 C 777.552,458.351 778.552,458.517 779.5,459C 774.833,461.667 770.167,464.333 765.5,467C 764.365,467.749 763.365,467.583 762.5,466.5C 767.29,464.018 771.957,461.351 776.5,458.5 Z"/></g>
<g><path style="opacity:1" fill="#fffef1" d="M 736.5,456.5 C 737.376,456.369 738.043,456.702 738.5,457.5C 736.607,462.875 733.44,467.208 729,470.5C 727.743,470.15 727.409,469.483 728,468.5C 732.547,465.747 735.381,461.747 736.5,456.5 Z"/></g>
<g><path style="opacity:1" fill="#fffef4" d="M 801.5,467.5 C 803.604,467.201 805.604,467.534 807.5,468.5C 801.338,468.673 795.671,470.34 790.5,473.5C 789.406,472.132 789.74,470.965 791.5,470C 794.952,469.115 798.286,468.282 801.5,467.5 Z"/></g>
<g><path style="opacity:1" fill="#21200f" d="M 880.5,465.5 C 882.549,465.706 882.883,466.539 881.5,468C 877.246,469.314 872.913,470.147 868.5,470.5C 868.5,469.5 868.5,468.5 868.5,467.5C 872.182,467.665 875.848,467.499 879.5,467C 880.056,466.617 880.389,466.117 880.5,465.5 Z"/></g>
<g><path style="opacity:1" fill="#fffef1" d="M 540.5,471.5 C 547.357,471.055 553.024,473.389 557.5,478.5C 556.635,479.583 555.635,479.749 554.5,479C 551.656,475.22 547.823,473.386 543,473.5C 541.624,473.316 540.791,472.649 540.5,471.5 Z"/></g>
<g><path style="opacity:1" fill="#fffee9" d="M 608.5,474.5 C 615.791,479.791 622.124,486.124 627.5,493.5C 627.167,493.833 626.833,494.167 626.5,494.5C 620.476,487.729 614.476,481.062 608.5,474.5 Z"/></g>
<g><path style="opacity:1" fill="#282613" d="M 508.5,481.5 C 520.39,483.121 520.39,484.121 508.5,484.5C 508.5,483.5 508.5,482.5 508.5,481.5 Z"/></g>
<g><path style="opacity:1" fill="#fffee9" d="M 578.5,480.5 C 583.094,481.309 587.427,482.809 591.5,485C 591,485.5 590.5,486 590,486.5C 586.889,484.229 583.389,483.062 579.5,483C 578.748,482.329 578.414,481.496 578.5,480.5 Z"/></g>
<g><path style="opacity:1" fill="#fffef7" d="M 678.5,481.5 C 679.693,481.97 680.36,482.97 680.5,484.5C 680.167,485.5 679.833,486.5 679.5,487.5C 678.534,485.604 678.201,483.604 678.5,481.5 Z"/></g>
<g><path style="opacity:1" fill="#201f0f" d="M 482.5,484.5 C 488.016,484.473 489.349,486.64 486.5,491C 480.339,491.878 479.006,489.711 482.5,484.5 Z"/></g>
<g><path style="opacity:1" fill="#fbf560" d="M 904.5,484.5 C 907.478,489.469 910.811,494.135 914.5,498.5C 913.797,500.034 913.964,501.701 915,503.5C 915.667,508.5 915.667,513.5 915,518.5C 911.754,541.64 907.754,564.64 903,587.5C 900.482,599.085 895.315,609.251 887.5,618C 881.743,622.201 875.743,622.535 869.5,619C 842.803,600.977 814.803,584.977 785.5,571C 766.5,562.667 747.5,554.333 728.5,546C 724.084,543.588 720.251,540.422 717,536.5C 715.578,533.97 715.245,531.303 716,528.5C 717.793,525.705 719.96,523.205 722.5,521C 728.74,517.211 735.407,514.545 742.5,513C 751.814,511.241 761.147,509.574 770.5,508C 777.318,505.394 784.318,503.394 791.5,502C 829.374,497.083 867.041,491.249 904.5,484.5 Z"/></g>
<g><path style="opacity:1" fill="#ede85a" d="M 483.5,486.5 C 485.048,486.821 485.715,487.821 485.5,489.5C 482.752,489.598 482.086,488.598 483.5,486.5 Z"/></g>
<g><path style="opacity:1" fill="#fffeee" d="M 630.5,480.5 C 634.434,484.095 638.434,487.761 642.5,491.5C 641.635,492.583 640.635,492.749 639.5,492C 636.262,488.272 633.262,484.439 630.5,480.5 Z"/></g>
<g><path style="opacity:1" fill="#fffddd" d="M 748.5,483.5 C 749.376,483.369 750.043,483.702 750.5,484.5C 747.703,487.696 744.37,488.696 740.5,487.5C 743.1,486.045 745.767,484.712 748.5,483.5 Z"/></g>
<g><path style="opacity:1" fill="#19180a" d="M 494.5,485.5 C 499.984,485.481 501.65,487.981 499.5,493C 494.293,493.117 492.626,490.617 494.5,485.5 Z"/></g>
<g><path style="opacity:1" fill="#f0eb5b" d="M 495.5,487.5 C 496.995,487.415 497.995,488.081 498.5,489.5C 496.604,490.639 495.604,489.973 495.5,487.5 Z"/></g>
<g><path style="opacity:1" fill="#fffeea" d="M 732.5,484.5 C 735.999,484.259 736.332,485.092 733.5,487C 728.58,489.916 724.247,493.582 720.5,498C 719.365,498.749 718.365,498.583 717.5,497.5C 722.345,492.923 727.345,488.589 732.5,484.5 Z"/></g>
<g><path style="opacity:1" fill="#232211" d="M 485.5,495.5 C 487.167,495.5 488.833,495.5 490.5,495.5C 491.085,498.261 490.085,499.927 487.5,500.5C 483.568,499.666 482.902,497.999 485.5,495.5 Z"/></g>
<g><path style="opacity:1" fill="#18160b" d="M 869.5,497.5 C 874.214,497.173 878.88,497.507 883.5,498.5C 874.216,498.717 865.216,500.384 856.5,503.5C 855.289,502.726 855.289,501.893 856.5,501C 861.077,500.275 865.41,499.108 869.5,497.5 Z"/></g>
<g><path style="opacity:1" fill="#fffef1" d="M 558.5,499.5 C 564.213,501.346 569.88,503.346 575.5,505.5C 574.833,505.833 574.167,506.167 573.5,506.5C 568.937,504.701 564.27,503.201 559.5,502C 558.748,501.329 558.414,500.496 558.5,499.5 Z"/></g>
<g><path style="opacity:1" fill="#fffef1" d="M 599.5,509.5 C 599.917,508.876 600.584,508.543 601.5,508.5C 606.476,509.994 611.476,511.327 616.5,512.5C 616.719,513.675 616.386,514.675 615.5,515.5C 610.36,512.899 605.026,510.899 599.5,509.5 Z"/></g>
<g><path style="opacity:1" fill="#fffeea" d="M 637.5,502.5 C 643.479,506.479 648.479,511.479 652.5,517.5C 651.5,518.833 650.5,518.833 649.5,517.5C 645.453,512.462 641.453,507.462 637.5,502.5 Z"/></g>
<g><path style="opacity:1" fill="#efeed6" d="M 472.5,440.5 C 471.608,447.242 469.441,453.575 466,459.5C 464.647,471.933 462.647,484.266 460,496.5C 458.938,515.82 458.438,535.153 458.5,554.5C 457.337,532.337 457.17,510.004 458,487.5C 460.535,471.001 465.368,455.334 472.5,440.5 Z"/></g>
<g><path style="opacity:1" fill="#fffeef" d="M 560.5,518.5 C 564.182,518.335 567.848,518.501 571.5,519C 573.286,519.196 574.619,520.029 575.5,521.5C 575,521.833 574.5,522.167 574,522.5C 570.566,519.58 566.733,518.913 562.5,520.5C 561.287,520.253 560.62,519.586 560.5,518.5 Z"/></g>
<g><path style="opacity:1" fill="#191913" d="M 492.5,534.5 C 502.506,534.334 512.506,534.5 522.5,535C 539.896,537.295 557.23,539.961 574.5,543C 598.523,545.045 622.19,543.045 645.5,537C 652.46,535.913 659.46,535.413 666.5,535.5C 667.664,538.187 669.497,540.52 672,542.5C 672.738,546.261 672.405,549.928 671,553.5C 664.059,564.772 656.726,575.772 649,586.5C 634.058,611.659 624.058,638.659 619,667.5C 615.963,676.951 611.963,685.951 607,694.5C 600.471,701.234 592.471,704.234 583,703.5C 576.319,703.385 569.819,702.219 563.5,700C 542.134,686.969 524.3,670.135 510,649.5C 494.86,627.89 482.86,604.556 474,579.5C 471.357,569.984 470.357,560.317 471,550.5C 474.504,540.172 481.67,534.838 492.5,534.5 Z"/></g>
<g><path style="opacity:1" fill="#fbf660" d="M 495.5,536.5 C 506.527,536.382 517.527,536.882 528.5,538C 549.813,542.473 571.313,545.64 593,547.5C 600.51,547.153 608.01,546.653 615.5,546C 629.904,542.986 644.404,540.486 659,538.5C 671.039,539.691 673.705,545.357 667,555.5C 648.583,579.326 634.583,605.66 625,634.5C 621.158,653.871 615.158,672.537 607,690.5C 603.725,696.773 598.558,700.273 591.5,701C 579.796,702.725 568.796,700.725 558.5,695C 536.868,679.703 519.034,660.869 505,638.5C 490.855,616.875 480.522,593.542 474,568.5C 468.958,549.11 476.125,538.443 495.5,536.5 Z"/></g>
<g><path style="opacity:1" fill="#191812" d="M 708.5,544.5 C 710.655,544.372 712.655,544.872 714.5,546C 721.487,551.494 728.82,556.494 736.5,561C 755.833,570 775.167,579 794.5,588C 804.451,594.949 814.117,602.283 823.5,610C 835.289,615.394 846.956,621.061 858.5,627C 869.828,633.814 872.994,643.314 868,655.5C 862.36,665.813 855.194,674.979 846.5,683C 826.257,698.575 807.257,715.575 789.5,734C 767.355,752.362 752.522,747.529 745,719.5C 743.897,705.19 743.23,690.857 743,676.5C 741.425,662.44 737.425,649.107 731,636.5C 721.402,619.64 713.735,601.973 708,583.5C 705.76,573.267 705.093,562.934 706,552.5C 706.275,549.588 707.109,546.921 708.5,544.5 Z"/></g>
<g><path style="opacity:1" fill="#1f1e0e" d="M 495.5,546.5 C 502.881,546.314 510.214,546.814 517.5,548C 517.957,548.414 518.291,548.914 518.5,549.5C 517.5,549.833 516.5,550.167 515.5,550.5C 508.572,548.839 501.572,548.339 494.5,549C 492.336,549.914 490.336,551.081 488.5,552.5C 487.289,551.726 487.289,550.893 488.5,550C 490.925,548.787 493.259,547.621 495.5,546.5 Z"/></g>
<g><path style="opacity:1" fill="#fbf560" d="M 709.5,548.5 C 710.873,548.343 712.207,548.51 713.5,549C 720.956,555.118 728.956,560.451 737.5,565C 755.083,573.194 772.749,581.194 790.5,589C 801.78,596.613 812.78,604.613 823.5,613C 835.921,618.246 847.921,624.246 859.5,631C 867.475,637.158 869.641,644.992 866,654.5C 862.784,661.044 858.784,667.044 854,672.5C 842.461,683.041 830.628,693.208 818.5,703C 808.471,713.364 798.137,723.364 787.5,733C 768.953,749.482 755.786,745.982 748,722.5C 747.118,719.211 746.452,715.877 746,712.5C 745.667,699.833 745.333,687.167 745,674.5C 743.827,663.314 740.827,652.648 736,642.5C 726.286,624.076 717.953,605.076 711,585.5C 708.536,573.223 708.036,560.89 709.5,548.5 Z"/></g>
<g><path style="opacity:1" fill="#1c1a0c" d="M 892.5,497.5 C 894.903,497.393 896.736,498.393 898,500.5C 902.165,506.475 903.998,513.141 903.5,520.5C 902.74,538.544 898.406,555.544 890.5,571.5C 890.167,571.167 889.833,570.833 889.5,570.5C 899.033,551.111 902.533,530.777 900,509.5C 898.04,505.066 895.54,501.066 892.5,497.5 Z"/></g>
<g><path style="opacity:1" fill="#1b1a16" d="M 681.5,553.5 C 692.556,554.275 699.722,559.941 703,570.5C 705.253,585.452 707.253,600.452 709,615.5C 716.53,641.226 725.197,666.559 735,691.5C 738.492,705.8 741.825,720.133 745,734.5C 746.299,740.119 746.632,745.786 746,751.5C 745.067,755.395 742.567,757.562 738.5,758C 713.022,760.407 688.022,758.074 663.5,751C 647.621,746.263 631.954,740.929 616.5,735C 605.144,727.963 600.978,717.796 604,704.5C 610.607,693.563 617.607,682.896 625,672.5C 635.141,647.077 643.474,621.077 650,594.5C 656.938,582.567 664.271,570.9 672,559.5C 674.843,556.837 678.009,554.837 681.5,553.5 Z"/></g>
<g><path style="opacity:1" fill="#1a1a15" d="M 904.5,484.5 C 867.041,491.249 829.374,497.083 791.5,502C 784.318,503.394 777.318,505.394 770.5,508C 761.147,509.574 751.814,511.241 742.5,513C 735.407,514.545 728.74,517.211 722.5,521C 719.96,523.205 717.793,525.705 716,528.5C 715.245,531.303 715.578,533.97 717,536.5C 720.251,540.422 724.084,543.588 728.5,546C 747.5,554.333 766.5,562.667 785.5,571C 814.803,584.977 842.803,600.977 869.5,619C 875.743,622.535 881.743,622.201 887.5,618C 895.315,609.251 900.482,599.085 903,587.5C 907.754,564.64 911.754,541.64 915,518.5C 915.667,513.5 915.667,508.5 915,503.5C 913.964,501.701 913.797,500.034 914.5,498.5C 916.41,499.975 917.576,501.975 918,504.5C 915.615,534.902 910.615,564.902 903,594.5C 900.092,604.155 895.259,612.655 888.5,620C 883.94,623.174 878.94,624.174 873.5,623C 827.432,593.298 778.766,568.298 727.5,548C 722.748,545.252 718.581,541.752 715,537.5C 712.635,532.09 713.301,527.09 717,522.5C 723.941,516.957 731.774,513.124 740.5,511C 747.741,509.152 755.074,507.818 762.5,507C 772.505,504.331 782.505,501.665 792.5,499C 830.024,494.282 867.357,488.448 904.5,481.5C 904.5,482.5 904.5,483.5 904.5,484.5 Z"/></g>
<g><path style="opacity:1" fill="#fffeed" d="M 748.5,538.5 C 752.29,540.392 756.29,541.725 760.5,542.5C 757.503,543.476 754.503,543.31 751.5,542C 749.574,541.578 748.574,540.411 748.5,538.5 Z"/></g>
<g><path style="opacity:1" fill="#fffeee" d="M 828.5,536.5 C 832.157,538.653 836.157,539.987 840.5,540.5C 835.093,542.69 831.093,541.356 828.5,536.5 Z"/></g>
<g><path style="opacity:1" fill="#fffeee" d="M 803.5,538.5 C 808.367,540.232 813.367,541.565 818.5,542.5C 813.855,543.005 809.188,542.505 804.5,541C 803.748,540.329 803.414,539.496 803.5,538.5 Z"/></g>
<g><path style="opacity:1" fill="#fffef6" d="M 767.5,533.5 C 773.882,533.686 780.215,534.353 786.5,535.5C 785.333,535.833 784.167,536.167 783,536.5C 777.399,536.354 772.232,535.354 767.5,533.5 Z"/></g>
<g><path style="opacity:1" fill="#fffef3" d="M 731.5,529.5 C 738.735,529.091 745.735,529.925 752.5,532C 748.254,532.367 744.087,531.867 740,530.5C 737.233,530.755 734.567,531.422 732,532.5C 730.317,531.824 730.15,530.824 731.5,529.5 Z"/></g>
<g><path style="opacity:1" fill="#fffef2" d="M 746.5,520.5 C 753.466,521.664 760.466,522.664 767.5,523.5C 767,523.833 766.5,524.167 766,524.5C 759.871,523.727 753.704,523.227 747.5,523C 746.748,522.329 746.414,521.496 746.5,520.5 Z"/></g>
<g><path style="opacity:1" fill="#fffee9" d="M 798.5,517.5 C 803.336,519.562 808.336,521.062 813.5,522C 809.112,522.577 804.779,522.244 800.5,521C 799.027,520.29 798.36,519.124 798.5,517.5 Z"/></g>
<g><path style="opacity:1" fill="#fffef3" d="M 788.5,513.5 C 789.289,513.783 789.956,514.283 790.5,515C 784.704,517.788 778.704,518.955 772.5,518.5C 778.133,517.432 783.466,515.765 788.5,513.5 Z"/></g>
<g><path style="opacity:1" fill="#fffee6" d="M 836.5,511.5 C 841.31,512.361 845.976,512.694 850.5,512.5C 850.291,513.086 849.957,513.586 849.5,514C 845.179,514.499 840.846,514.666 836.5,514.5C 836.5,513.5 836.5,512.5 836.5,511.5 Z"/></g>
<g><path style="opacity:1" fill="#fffeed" d="M 778.5,548.5 C 787.106,549.812 795.439,552.146 803.5,555.5C 803,555.833 802.5,556.167 802,556.5C 795.173,553.891 788.173,551.891 781,550.5C 779.624,550.316 778.791,549.649 778.5,548.5 Z"/></g>
<g><path style="opacity:1" fill="#353317" d="M 496.5,556.5 C 497.497,556.47 498.164,556.97 498.5,558C 497.586,561.722 497.586,565.222 498.5,568.5C 495.679,564.909 495.013,560.909 496.5,556.5 Z"/></g>
<g><path style="opacity:1" fill="#fbf560" d="M 682.5,556.5 C 692.515,557.346 698.681,562.679 701,572.5C 702.629,588.916 704.962,605.25 708,621.5C 716.33,645.156 724.663,668.822 733,692.5C 737.786,710.308 741.619,728.308 744.5,746.5C 745.529,751.629 743.529,754.795 738.5,756C 722.491,756.386 706.491,756.053 690.5,755C 664.294,749.821 638.961,741.821 614.5,731C 606.935,724.549 604.101,716.382 606,706.5C 610.43,697.301 616.097,688.967 623,681.5C 635.655,654.534 645.322,626.534 652,597.5C 658.269,586.237 664.936,575.237 672,564.5C 674.94,560.963 678.44,558.297 682.5,556.5 Z"/></g>
<g><path style="opacity:1" fill="#fffef2" d="M 599.5,558.5 C 601.924,558.192 604.257,558.526 606.5,559.5C 602.895,560.18 599.395,561.18 596,562.5C 595.5,562.167 595,561.833 594.5,561.5C 596.36,560.675 598.026,559.675 599.5,558.5 Z"/></g>
<g><path style="opacity:1" fill="#fffef1" d="M 645.5,553.5 C 647.942,553.354 648.609,554.187 647.5,556C 641.129,558.068 634.796,560.235 628.5,562.5C 628.167,562.167 627.833,561.833 627.5,561.5C 633.806,559.403 639.806,556.736 645.5,553.5 Z"/></g>
<g><path style="opacity:1" fill="#1f1d0e" d="M 478.5,556.5 C 479.376,556.369 480.043,556.702 480.5,557.5C 476.791,563.943 476.125,563.609 478.5,556.5 Z"/></g>
<g><path style="opacity:1" fill="#fffeee" d="M 560.5,558.5 C 562.942,558.354 563.609,559.187 562.5,561C 557.849,562.597 553.182,563.097 548.5,562.5C 552.889,561.988 556.889,560.654 560.5,558.5 Z"/></g>
<g><path style="opacity:1" fill="#1b1a14" d="M 426.5,561.5 C 427.5,561.5 428.5,561.5 429.5,561.5C 429.827,566.544 429.494,571.544 428.5,576.5C 427.914,576.291 427.414,575.957 427,575.5C 426.501,570.845 426.334,566.179 426.5,561.5 Z"/></g>
<g><path style="opacity:1" fill="#fffeea" d="M 805.5,561.5 C 813.477,564.82 821.477,568.153 829.5,571.5C 829,571.833 828.5,572.167 828,572.5C 821.578,569.804 815.078,567.304 808.5,565C 806.574,564.578 805.574,563.411 805.5,561.5 Z"/></g>
<g><path style="opacity:1" fill="#fffeee" d="M 852.5,556.5 C 858.421,558.964 864.421,561.13 870.5,563C 864.35,562.631 858.35,561.297 852.5,559C 851.402,558.23 851.402,557.397 852.5,556.5 Z"/></g>
<g><path style="opacity:0.012" fill="#fefb62" d="M 415.5,547.5 C 416.964,559.009 418.298,570.676 419.5,582.5C 416.865,571.122 415.532,559.455 415.5,547.5 Z"/></g>
<g><path style="opacity:1" fill="#1b1b14" d="M 948.5,566.5 C 949.5,566.5 950.5,566.5 951.5,566.5C 948.036,579.558 944.369,592.558 940.5,605.5C 939.5,605.5 938.5,605.5 937.5,605.5C 941.289,592.568 944.956,579.568 948.5,566.5 Z"/></g>
<g><path style="opacity:1" fill="#fffeeb" d="M 719.5,567.5 C 720.496,567.414 721.329,567.748 722,568.5C 722.96,573.508 724.46,578.341 726.5,583C 726.167,583.5 725.833,584 725.5,584.5C 722.703,579.11 720.703,573.443 719.5,567.5 Z"/></g>
<g><path style="opacity:1" fill="#fffef0" d="M 580.5,568.5 C 582.048,568.821 582.715,569.821 582.5,571.5C 579.933,571.855 577.433,572.521 575,573.5C 574.5,573.167 574,572.833 573.5,572.5C 576.34,571.894 578.673,570.561 580.5,568.5 Z"/></g>
<g><path style="opacity:1" fill="#fffeee" d="M 603.5,574.5 C 605.355,574.272 606.188,574.939 606,576.5C 602.751,577.917 599.917,579.917 597.5,582.5C 596.479,581.998 596.312,581.332 597,580.5C 599.664,579.002 601.83,577.002 603.5,574.5 Z"/></g>
<g><path style="opacity:1" fill="#fffee7" d="M 741.5,577.5 C 742.5,577.5 743.5,577.5 744.5,577.5C 745.296,583.147 748.296,587.314 753.5,590C 746.726,588.723 742.726,584.556 741.5,577.5 Z"/></g>
<g><path style="opacity:1" fill="#1f1e16" d="M 428.5,578.5 C 429.496,578.414 430.329,578.748 431,579.5C 435.846,609.187 448.18,635.187 468,657.5C 468.601,658.965 468.101,659.965 466.5,660.5C 456.225,650.378 448.058,638.711 442,625.5C 435.467,611.033 430.634,596.033 427.5,580.5C 427.863,579.817 428.196,579.15 428.5,578.5 Z"/></g>
<g><path style="opacity:1" fill="#fffeef" d="M 626.5,578.5 C 627.497,578.47 628.164,578.97 628.5,580C 623.943,582.727 620.609,586.56 618.5,591.5C 617.592,590.21 617.759,588.877 619,587.5C 621.053,584.019 623.553,581.019 626.5,578.5 Z"/></g>
<g><path style="opacity:1" fill="#282719" d="M 954.5,584.5 C 957.786,585.242 959.12,587.075 958.5,590C 953.221,590.585 951.888,588.751 954.5,584.5 Z"/></g>
<g><path style="opacity:1" fill="#f6f4bd" d="M 458.5,555.5 C 459.124,557.834 459.957,560.167 461,562.5C 461.514,570.18 462.181,577.847 463,585.5C 464.299,586.09 465.132,587.09 465.5,588.5C 467.685,596.912 470.019,605.246 472.5,613.5C 471.5,613.5 470.5,613.5 469.5,613.5C 469.279,610.933 468.612,608.599 467.5,606.5C 465.446,598.5 463.279,590.5 461,582.5C 459.509,573.555 458.675,564.555 458.5,555.5 Z"/></g>
<g><path style="opacity:1" fill="#fffeed" d="M 567.5,591.5 C 569.942,591.354 570.609,592.187 569.5,594C 565.969,595.606 562.302,596.772 558.5,597.5C 558.167,597.167 557.833,596.833 557.5,596.5C 561.159,595.321 564.493,593.654 567.5,591.5 Z"/></g>
<g><path style="opacity:1" fill="#fffeee" d="M 772.5,590.5 C 780.032,595.434 788.032,599.601 796.5,603C 797.5,604 798.5,605 799.5,606C 798.5,606.667 797.5,606.667 796.5,606C 789.675,601.387 782.342,597.72 774.5,595C 772.35,593.808 771.683,592.308 772.5,590.5 Z"/></g>
<g><path style="opacity:1" fill="#19170a" d="M 886.5,584.5 C 888.549,584.706 888.883,585.539 887.5,587C 880.464,592.69 872.464,595.19 863.5,594.5C 863.281,593.325 863.614,592.325 864.5,591.5C 873.131,593.181 880.465,590.848 886.5,584.5 Z"/></g>
<g><path style="opacity:1" fill="#fffef2" d="M 676.5,582.5 C 677.675,582.281 678.675,582.614 679.5,583.5C 675.833,589.5 672.167,595.5 668.5,601.5C 668.167,601.167 667.833,600.833 667.5,600.5C 671.038,594.757 674.038,588.757 676.5,582.5 Z"/></g>
<g><path style="opacity:1" fill="#fffeef" d="M 590.5,598.5 C 591.873,598.343 593.207,598.51 594.5,599C 592.167,600.5 589.833,602 587.5,603.5C 587.167,603.167 586.833,602.833 586.5,602.5C 588.188,601.479 589.521,600.145 590.5,598.5 Z"/></g>
<g><path style="opacity:1" fill="#1d1b0d" d="M 887.5,597.5 C 888.376,597.369 889.043,597.702 889.5,598.5C 886.365,601.901 882.698,604.567 878.5,606.5C 878.167,606.167 877.833,605.833 877.5,605.5C 881.141,603.19 884.474,600.523 887.5,597.5 Z"/></g>
<g><path style="opacity:1" fill="#1f1e16" d="M 947.5,600.5 C 948.5,600.5 949.5,600.5 950.5,600.5C 948.891,607.154 946.391,613.487 943,619.5C 939.581,624.668 936.415,630.002 933.5,635.5C 932.675,636.386 931.675,636.719 930.5,636.5C 933.522,628.79 937.356,621.457 942,614.5C 944.126,609.92 945.96,605.253 947.5,600.5 Z"/></g>
<g><path style="opacity:1" fill="#fffeef" d="M 683.5,602.5 C 684.497,602.47 685.164,602.97 685.5,604C 684.384,607.916 683.217,611.749 682,615.5C 681.65,611.08 682.15,606.747 683.5,602.5 Z"/></g>
<g><path style="opacity:1" fill="#1c1c14" d="M 442.5,606.5 C 443.822,606.33 444.989,606.663 446,607.5C 447.537,611.229 449.037,614.895 450.5,618.5C 449.178,618.67 448.011,618.337 447,617.5C 444.928,614.029 443.428,610.362 442.5,606.5 Z"/></g>
<g><path style="opacity:1" fill="#fffee9" d="M 755.5,605.5 C 759.22,609.724 763.22,613.891 767.5,618C 766.5,618.667 765.5,618.667 764.5,618C 762.658,615.457 760.491,613.29 758,611.5C 756.441,609.783 755.608,607.783 755.5,605.5 Z"/></g>
<g><path style="opacity:1" fill="#1c1b0c" d="M 488.5,565.5 C 492.673,591.246 501.506,615.579 515,638.5C 518.321,643.486 522.321,647.82 527,651.5C 527.591,652.483 527.257,653.15 526,653.5C 521.679,650.512 518.012,646.846 515,642.5C 500.472,618.781 491.639,593.115 488.5,565.5 Z"/></g>
<g><path style="opacity:1" fill="#fffeed" d="M 734.5,600.5 C 736.267,603.334 738.101,606.334 740,609.5C 740.749,610.635 740.583,611.635 739.5,612.5C 736.719,608.941 735.052,604.941 734.5,600.5 Z"/></g>
<g><path style="opacity:1" fill="#fffeee" d="M 668.5,615.5 C 669.376,615.369 670.043,615.702 670.5,616.5C 667.946,620.94 665.946,625.606 664.5,630.5C 664.395,625.263 665.728,620.263 668.5,615.5 Z"/></g>
<g><path style="opacity:1" fill="#fffeeb" d="M 791.5,614.5 C 796.105,616.471 800.438,618.971 804.5,622C 805.451,622.718 805.617,623.551 805,624.5C 801.41,621.954 797.577,619.787 793.5,618C 792.177,617.184 791.511,616.017 791.5,614.5 Z"/></g>
<g><path style="opacity:1" fill="#fffef2" d="M 607.5,610.5 C 608.376,610.369 609.043,610.702 609.5,611.5C 605.242,616.353 601.742,621.687 599,627.5C 600.207,621.086 603.04,615.419 607.5,610.5 Z"/></g>
<g><path style="opacity:1" fill="#fffee9" d="M 747.5,623.5 C 748.5,623.5 749.5,623.5 750.5,623.5C 750.29,630.717 751.123,637.717 753,644.5C 749.452,637.976 747.619,630.976 747.5,623.5 Z"/></g>
<g><path style="opacity:1" fill="#fffeec" d="M 566.5,617.5 C 568.807,619.592 568.474,621.758 565.5,624C 560.798,626.929 555.798,627.763 550.5,626.5C 555.048,626.018 559.381,624.851 563.5,623C 564.758,621.259 565.758,619.426 566.5,617.5 Z"/></g>
<g><path style="opacity:1" fill="#fffef2" d="M 618.5,617.5 C 619.497,617.47 620.164,617.97 620.5,619C 616.541,626.044 613.874,633.544 612.5,641.5C 611.348,638.894 611.182,636.227 612,633.5C 614.462,628.248 616.629,622.915 618.5,617.5 Z"/></g>
<g><path style="opacity:1" fill="#fffef0" d="M 799.5,633.5 C 800.5,633.5 801.5,633.5 802.5,633.5C 802.361,637.054 803.694,639.888 806.5,642C 806.167,642.5 805.833,643 805.5,643.5C 802.471,640.774 800.471,637.441 799.5,633.5 Z"/></g>
<g><path style="opacity:1" fill="#1d1c0d" d="M 688.5,574.5 C 690.686,575.823 692.186,577.823 693,580.5C 695.831,601.985 699.498,623.319 704,644.5C 706.58,653.66 710.747,661.993 716.5,669.5C 715.349,670.731 714.183,670.731 713,669.5C 706.73,660.037 702.397,649.704 700,638.5C 697.399,620.83 694.733,603.163 692,585.5C 691.367,581.591 690.201,577.925 688.5,574.5 Z"/></g>
<g><path style="opacity:1" fill="#fffeec" d="M 775.5,635.5 C 776.675,635.281 777.675,635.614 778.5,636.5C 779.248,638.332 780.248,639.999 781.5,641.5C 781.167,641.833 780.833,642.167 780.5,642.5C 778.427,640.432 776.761,638.099 775.5,635.5 Z"/></g>
<g><path style="opacity:1" fill="#fffeee" d="M 687.5,632.5 C 688.496,632.414 689.329,632.748 690,633.5C 691.19,636.194 691.356,638.861 690.5,641.5C 689.202,638.578 688.202,635.578 687.5,632.5 Z"/></g>
<g><path style="opacity:1" fill="#080702" d="M 855.5,641.5 C 856.468,643.607 856.802,645.941 856.5,648.5C 855.503,648.53 854.836,648.03 854.5,647C 855.233,645.234 855.567,643.401 855.5,641.5 Z"/></g>
<g><path style="opacity:1" fill="#7c7a2d" d="M 855.5,641.5 C 855.56,640.957 855.893,640.624 856.5,640.5C 857.8,643.309 857.8,645.976 856.5,648.5C 856.802,645.941 856.468,643.607 855.5,641.5 Z"/></g>
<g><path style="opacity:1" fill="#fffee9" d="M 673.5,644.5 C 674.478,644.811 675.145,645.478 675.5,646.5C 674.042,650.454 672.709,654.454 671.5,658.5C 670.979,653.746 671.646,649.08 673.5,644.5 Z"/></g>
<g><path style="opacity:1" fill="#f6f26c" d="M 943.5,512.5 C 947.792,582.786 926.126,643.952 878.5,696C 877.5,696.333 876.5,696.667 875.5,697C 868.464,703.336 862.464,710.002 857.5,717C 854.167,719.667 850.833,722.333 847.5,725C 846.552,725.483 845.552,725.649 844.5,725.5C 853.772,716.73 862.938,707.73 872,698.5C 920.489,646.232 944.322,584.232 943.5,512.5 Z"/></g>
<g><path style="opacity:1" fill="#fffeee" d="M 653.5,641.5 C 654.497,641.47 655.164,641.97 655.5,643C 653.723,647.387 651.557,651.554 649,655.5C 648.5,655 648,654.5 647.5,654C 650.449,650.269 652.449,646.102 653.5,641.5 Z"/></g>
<g><path style="opacity:1" fill="#1e1d0e" d="M 853.5,650.5 C 854.289,650.783 854.956,651.283 855.5,652C 852.625,656.917 849.625,661.751 846.5,666.5C 845.417,665.635 845.251,664.635 846,663.5C 849.159,659.517 851.659,655.183 853.5,650.5 Z"/></g>
<g><path style="opacity:1" fill="#fffef6" d="M 590.5,652.5 C 592.355,652.272 593.188,652.939 593,654.5C 590.056,655.723 587.556,657.556 585.5,660C 584.833,660.667 584.167,660.667 583.5,660C 586.039,657.63 588.372,655.13 590.5,652.5 Z"/></g>
<g><path style="opacity:1" fill="#fffeea" d="M 777.5,656.5 C 778.5,656.5 779.5,656.5 780.5,656.5C 781.216,662.963 780.216,662.963 777.5,656.5 Z"/></g>
<g><path style="opacity:1" fill="#1c1b0d" d="M 542.5,661.5 C 550.977,678.119 564.311,689.286 582.5,695C 591.69,696.903 599.023,694.07 604.5,686.5C 605.583,687.365 605.749,688.365 605,689.5C 594.793,698.753 583.626,699.92 571.5,693C 560.148,687.316 550.981,679.15 544,668.5C 543.023,666.26 542.523,663.927 542.5,661.5 Z"/></g>
<g><path style="opacity:1" fill="#fffeef" d="M 690.5,656.5 C 691.675,656.281 692.675,656.614 693.5,657.5C 692.704,660.269 692.371,662.936 692.5,665.5C 690.871,662.734 690.205,659.734 690.5,656.5 Z"/></g>
<g><path style="opacity:1" fill="#1e1c0d" d="M 607.5,668.5 C 608.675,668.281 609.675,668.614 610.5,669.5C 605.796,679.582 598.129,685.249 587.5,686.5C 591.339,684.596 595.339,682.763 599.5,681C 603.206,677.468 605.873,673.302 607.5,668.5 Z"/></g>
<g><path style="opacity:1" fill="#fffef0" d="M 654.5,664.5 C 655.376,664.369 656.043,664.702 656.5,665.5C 653.307,668.411 651.641,672.078 651.5,676.5C 650.304,671.949 651.304,667.949 654.5,664.5 Z"/></g>
<g><path style="opacity:1" fill="#f9f6ae" d="M 479.5,635.5 C 487.164,646.158 494.831,656.825 502.5,667.5C 502.995,670.493 504.495,672.826 507,674.5C 507.49,675.793 507.657,677.127 507.5,678.5C 502.85,672.406 498.017,666.406 493,660.5C 491.667,657.167 490.333,653.833 489,650.5C 485.188,645.866 482.021,640.866 479.5,635.5 Z"/></g>
<g><path style="opacity:1" fill="#fffef1" d="M 687.5,678.5 C 688.298,681.171 688.965,684.004 689.5,687C 689.167,687.5 688.833,688 688.5,688.5C 687.199,685.11 686.866,681.776 687.5,678.5 Z"/></g>
<g><path style="opacity:1" fill="#fffeee" d="M 707.5,682.5 C 708.496,682.414 709.329,682.748 710,683.5C 710.914,685.664 712.081,687.664 713.5,689.5C 710.393,688.696 708.393,686.362 707.5,682.5 Z"/></g>
<g><path style="opacity:1" fill="#121005" d="M 817.5,678.5 C 819.028,678.517 819.528,679.184 819,680.5C 815.779,683.855 812.279,686.855 808.5,689.5C 808.167,689.167 807.833,688.833 807.5,688.5C 811.188,685.479 814.521,682.146 817.5,678.5 Z"/></g>
<g><path style="opacity:1" fill="#161408" d="M 760.5,671.5 C 761.586,671.62 762.253,672.287 762.5,673.5C 759.477,683.576 761.81,692.076 769.5,699C 769.167,699.5 768.833,700 768.5,700.5C 765.81,698.644 763.644,696.311 762,693.5C 760.652,686.239 760.152,678.906 760.5,671.5 Z"/></g>
<g><path style="opacity:1" fill="#fefcb6" d="M 507.5,678.5 C 520.473,691.139 533.473,703.806 546.5,716.5C 545.127,716.657 543.793,716.49 542.5,716C 541.002,713.336 539.002,711.17 536.5,709.5C 525.084,700.752 515.417,690.419 507.5,678.5 Z"/></g>
<g><path style="opacity:1" fill="#fffeed" d="M 670.5,684.5 C 671.497,684.47 672.164,684.97 672.5,686C 671.06,691.265 669.394,696.432 667.5,701.5C 667.167,700.833 666.833,700.167 666.5,699.5C 668.247,694.595 669.58,689.595 670.5,684.5 Z"/></g>
<g><path style="opacity:1" fill="#1c1b0c" d="M 841.5,669.5 C 843.028,669.517 843.528,670.184 843,671.5C 833.436,681.734 823.269,691.234 812.5,700C 799.672,708.915 786.672,717.581 773.5,726C 772.275,726.563 771.275,726.23 770.5,725C 785.004,715.916 799.337,706.582 813.5,697C 823.53,688.496 832.863,679.33 841.5,669.5 Z"/></g>
<g><path style="opacity:1" fill="#242311" d="M 624.5,699.5 C 625.376,699.369 626.043,699.702 626.5,700.5C 624.517,702.984 622.35,705.317 620,707.5C 619.503,709.81 619.337,712.143 619.5,714.5C 618.5,714.5 617.5,714.5 616.5,714.5C 617.306,708.558 619.972,703.558 624.5,699.5 Z"/></g>
<g><path style="opacity:1" fill="#1e1d15" d="M 878.5,713.5 C 880.686,713.511 881.519,714.511 881,716.5C 857.744,740.103 831.911,760.27 803.5,777C 778.324,791.116 751.324,797.949 722.5,797.5C 722.5,796.5 722.5,795.5 722.5,794.5C 748.657,794.961 773.324,789.127 796.5,777C 827.162,760.176 854.495,739.01 878.5,713.5 Z"/></g>
<g><path style="opacity:1" fill="#fffee7" d="M 694.5,703.5 C 695.117,703.611 695.617,703.944 696,704.5C 696.018,710.978 696.852,717.311 698.5,723.5C 697.675,724.386 696.675,724.719 695.5,724.5C 694.71,717.529 694.377,710.529 694.5,703.5 Z"/></g>
<g><path style="opacity:1" fill="#f4f2d4" d="M 502.5,667.5 C 535.977,709.968 577.977,740.968 628.5,760.5C 623.035,759.234 617.701,757.567 612.5,755.5C 602.581,750.043 592.248,745.376 581.5,741.5C 579.5,740.5 577.5,739.5 575.5,738.5C 573.233,734.148 569.566,731.648 564.5,731C 558.247,726.387 552.247,721.554 546.5,716.5C 533.473,703.806 520.473,691.139 507.5,678.5C 507.657,677.127 507.49,675.793 507,674.5C 504.495,672.826 502.995,670.493 502.5,667.5 Z"/></g>
<g><path style="opacity:1" fill="#1f1e0f" d="M 627.5,716.5 C 631.945,719.562 636.611,722.395 641.5,725C 647.054,726.689 652.721,727.856 658.5,728.5C 648.022,729.401 638.356,726.901 629.5,721C 627.963,719.89 627.297,718.39 627.5,716.5 Z"/></g>
<g><path style="opacity:1" fill="#fefb92" d="M 536.5,709.5 C 539.002,711.17 541.002,713.336 542.5,716C 543.793,716.49 545.127,716.657 546.5,716.5C 552.247,721.554 558.247,726.387 564.5,731C 569.566,731.648 573.233,734.148 575.5,738.5C 567.987,735.741 560.987,731.908 554.5,727C 551.167,725 548.5,722.333 546.5,719C 541.75,717.341 538.417,714.174 536.5,709.5 Z"/></g>
<g><path style="opacity:1" fill="#19170b" d="M 732.5,722.5 C 734.411,722.574 735.578,723.574 736,725.5C 736.814,727.902 736.647,730.235 735.5,732.5C 734.865,728.977 733.865,725.644 732.5,722.5 Z"/></g>
<g><path style="opacity:1" fill="#1b190c" d="M 734.5,738.5 C 736.942,738.354 737.609,739.187 736.5,741C 732.138,741.91 727.804,742.577 723.5,743C 727.177,741.341 730.844,739.841 734.5,738.5 Z"/></g>
<g><path style="opacity:1" fill="#ebe883" d="M 830.5,731.5 C 818.806,742.518 805.139,750.185 789.5,754.5C 795.401,750.122 802.067,746.956 809.5,745C 812.121,741.05 815.788,738.716 820.5,738C 823.379,735.065 826.712,732.898 830.5,731.5 Z"/></g>
<g><path style="opacity:1" fill="#242317" d="M 555.5,744.5 C 562.674,743.519 566.174,746.519 566,753.5C 559.899,758.41 555.399,757.41 552.5,750.5C 553.489,748.506 554.489,746.506 555.5,744.5 Z"/></g>
<g><path style="opacity:1" fill="#222110" d="M 694.5,741.5 C 704.666,745.96 715.332,747.626 726.5,746.5C 726.5,747.5 726.5,748.5 726.5,749.5C 716.589,749.618 706.922,748.118 697.5,745C 695.574,744.578 694.574,743.411 694.5,741.5 Z"/></g>
<g><path style="opacity:1" fill="#f0ea5b" d="M 557.5,747.5 C 560.833,747.5 562.5,749.167 562.5,752.5C 560.5,752.5 558.5,752.5 556.5,752.5C 556.366,750.708 556.699,749.042 557.5,747.5 Z"/></g>
<g><path style="opacity:1" fill="#242317" d="M 572.5,749.5 C 577.993,748.178 580.493,750.178 580,755.5C 577.034,758.265 574.367,757.932 572,754.5C 571.36,752.735 571.527,751.068 572.5,749.5 Z"/></g>
<g><path style="opacity:1" fill="#fefba1" d="M 581.5,741.5 C 592.248,745.376 602.581,750.043 612.5,755.5C 600.828,753.511 590.495,748.844 581.5,741.5 Z"/></g>
<g><path style="opacity:1" fill="#f9f7c2" d="M 843.5,720.5 C 840.052,725.287 835.719,728.954 830.5,731.5C 826.712,732.898 823.379,735.065 820.5,738C 815.788,738.716 812.121,741.05 809.5,745C 802.067,746.956 795.401,750.122 789.5,754.5C 785.588,754.624 781.921,755.624 778.5,757.5C 775.673,757.584 773.006,758.25 770.5,759.5C 770.47,758.503 770.97,757.836 772,757.5C 777.624,756.042 783.124,754.208 788.5,752C 807.649,743.087 825.982,732.587 843.5,720.5 Z"/></g>
<g><path style="opacity:1" fill="#1d1c15" d="M 755.5,802.5 C 691.92,812.386 630.587,804.552 571.5,779C 559.167,772 546.833,765 534.5,758C 533.663,756.989 533.33,755.822 533.5,754.5C 536.691,755.092 539.691,756.259 542.5,758C 572.733,777.641 605.733,790.641 641.5,797C 678.399,805.015 715.399,805.515 752.5,798.5C 757.072,798.02 758.072,799.353 755.5,802.5 Z"/></g>
<g><path style="opacity:1" fill="#f5f395" d="M 612.5,755.5 C 617.701,757.567 623.035,759.234 628.5,760.5C 637.547,763.341 646.547,766.007 655.5,768.5C 647.712,768.245 640.379,766.412 633.5,763C 627.792,761.823 622.126,760.49 616.5,759C 614.907,758.051 613.574,756.885 612.5,755.5 Z"/></g>
<g><path style="opacity:0.167" fill="#f9f460" d="M 958.5,406.5 C 970.334,433.166 977.501,461.166 980,490.5C 986.277,584.702 956.11,664.869 889.5,731C 867.707,750.785 843.707,767.452 817.5,781C 808.155,785.724 798.488,789.558 788.5,792.5C 798.18,788.492 807.514,783.659 816.5,778C 835.006,765.914 853.339,753.581 871.5,741C 890.493,722.015 907.993,701.849 924,680.5C 941.821,654.193 956.487,626.193 968,596.5C 970.487,581.398 973.487,566.398 977,551.5C 978.368,544.059 979.201,536.559 979.5,529C 977.252,504.768 974.419,480.601 971,456.5C 968.08,439.487 963.913,422.821 958.5,406.5 Z"/></g>
<g><path style="opacity:1" fill="#222116" d="M 570.5,761.5 C 573.5,761.167 574.833,762.5 574.5,765.5C 571.5,765.833 570.167,764.5 570.5,761.5 Z"/></g>
<g><path style="opacity:1" fill="#f6f5d2" d="M 769.5,759.5 C 767.981,760.41 766.315,761.243 764.5,762C 757.203,763.624 749.869,765.29 742.5,767C 727.047,768.752 711.714,770.252 696.5,771.5C 683.816,770.886 671.483,768.886 659.5,765.5C 667.282,765.287 674.949,766.121 682.5,768C 701.549,768.773 720.549,768.106 739.5,766C 749.385,763.195 759.385,761.028 769.5,759.5 Z"/></g>
<g><path style="opacity:1" fill="#f1ef9b" d="M 778.5,757.5 C 752.487,768.965 725.154,773.632 696.5,771.5C 711.714,770.252 727.047,768.752 742.5,767C 749.869,765.29 757.203,763.624 764.5,762C 766.315,761.243 767.981,760.41 769.5,759.5C 769.833,759.5 770.167,759.5 770.5,759.5C 773.006,758.25 775.673,757.584 778.5,757.5 Z"/></g>
</svg>
