<?xml version="1.0" encoding="UTF-8"?>
<!DOCTYPE svg PUBLIC "-//W3C//DTD SVG 1.1//EN" "http://www.w3.org/Graphics/SVG/1.1/DTD/svg11.dtd">
<svg xmlns="http://www.w3.org/2000/svg" version="1.1" width="712px" height="724px" style="shape-rendering:geometricPrecision; text-rendering:geometricPrecision; image-rendering:optimizeQuality; fill-rule:evenodd; clip-rule:evenodd" xmlns:xlink="http://www.w3.org/1999/xlink">
<g><path style="opacity:0.862" fill="#27251d" d="M 502.5,114.5 C 502.5,115.5 502.5,116.5 502.5,117.5C 503.959,117.433 505.292,117.766 506.5,118.5C 539.059,144.557 568.892,173.557 596,205.5C 596.749,206.635 596.583,207.635 595.5,208.5C 574.013,186.846 552.679,165.012 531.5,143C 512.392,126.271 491.392,112.271 468.5,101C 411.609,79.4708 353.609,75.8041 294.5,90C 270.447,96.9048 247.78,106.905 226.5,120C 212.443,130.39 198.11,140.39 183.5,150C 179.5,154 175.5,158 171.5,162C 170.552,162.483 169.552,162.649 168.5,162.5C 168.5,161.5 168.5,160.5 168.5,159.5C 170.22,156.269 172.553,153.436 175.5,151C 202,128.905 231,110.572 262.5,96C 315.435,74.9494 369.769,70.6161 425.5,83C 453.511,88.0129 479.177,98.5129 502.5,114.5 Z"/></g>
<g><path style="opacity:0.962" fill="#f7e673" d="M 506.5,118.5 C 506.5,118.167 506.5,117.833 506.5,117.5C 556.119,144.449 592.119,183.782 614.5,235.5C 611.025,229.897 607.525,224.231 604,218.5C 602.736,216.393 600.903,215.393 598.5,215.5C 598.343,216.873 598.51,218.207 599,219.5C 608.996,233.494 616.329,248.827 621,265.5C 627.345,294.226 632.012,323.226 635,352.5C 634.972,386.315 629.639,419.315 619,451.5C 597.83,498.692 568.663,540.192 531.5,576C 508.242,593.243 483.908,608.91 458.5,623C 449.948,626.462 441.282,629.629 432.5,632.5C 431.571,633.689 431.238,635.022 431.5,636.5C 436.167,635.5 440.833,634.5 445.5,633.5C 436.359,637.874 426.693,640.874 416.5,642.5C 416.539,641.417 416.873,640.417 417.5,639.5C 407.119,639.051 396.785,639.884 386.5,642C 336.656,645.581 288.656,637.915 242.5,619C 226.248,611.042 210.248,602.875 194.5,594.5C 194.561,596.592 195.561,598.092 197.5,599C 238.822,624.919 283.822,640.253 332.5,645C 359.919,646.189 387.252,645.356 414.5,642.5C 305.851,665.226 214.017,635.893 139,554.5C 117.118,528.078 100.951,498.412 90.5,465.5C 100.417,482.329 109.583,499.662 118,517.5C 134.236,546.07 155.736,569.903 182.5,589C 184.833,590.167 187.167,591.333 189.5,592.5C 190.754,590.741 190.421,589.241 188.5,588C 161.861,570.362 140.361,547.862 124,520.5C 112.57,498.881 101.903,476.881 92,454.5C 81.7572,412.775 78.0905,370.442 81,327.5C 82.4676,313.495 85.4676,299.829 90,286.5C 102.852,252.121 119.852,220.121 141,190.5C 145.766,184.895 151.266,180.228 157.5,176.5C 158.429,175.311 158.762,173.978 158.5,172.5C 157.167,172.5 155.833,172.5 154.5,172.5C 157.906,166.759 162.572,162.426 168.5,159.5C 168.5,160.5 168.5,161.5 168.5,162.5C 169.552,162.649 170.552,162.483 171.5,162C 175.5,158 179.5,154 183.5,150C 198.11,140.39 212.443,130.39 226.5,120C 247.78,106.905 270.447,96.9048 294.5,90C 353.609,75.8041 411.609,79.4708 468.5,101C 491.392,112.271 512.392,126.271 531.5,143C 552.679,165.012 574.013,186.846 595.5,208.5C 596.583,207.635 596.749,206.635 596,205.5C 568.892,173.557 539.059,144.557 506.5,118.5 Z"/></g>
<g><path style="opacity:1" fill="#363322" d="M 375.5,107.5 C 391.126,106.326 406.126,108.826 420.5,115C 422.874,115.848 424.874,117.181 426.5,119C 426.167,119.5 425.833,120 425.5,120.5C 409.117,112.433 391.784,109.1 373.5,110.5C 374.193,109.482 374.859,108.482 375.5,107.5 Z"/></g>
<g><path style="opacity:1" fill="#f7e981" d="M 382.5,115.5 C 375.825,115.334 369.158,115.5 362.5,116C 351.245,118.092 339.912,119.592 328.5,120.5C 311.861,121.221 296.195,125.221 281.5,132.5C 280.609,133.11 279.609,133.443 278.5,133.5C 275.101,134.016 271.768,134.85 268.5,136C 255.623,142.606 242.623,148.939 229.5,155C 227.237,156.617 225.237,158.45 223.5,160.5C 223.167,161.5 222.5,162.167 221.5,162.5C 219.407,163.045 217.407,163.878 215.5,165C 205.2,174.802 194.2,183.636 182.5,191.5C 183.211,187.618 185.544,185.118 189.5,184C 207.23,164.947 228.23,150.613 252.5,141C 264.842,133.212 278.176,127.546 292.5,124C 322.186,116.108 352.186,113.275 382.5,115.5 Z"/></g>
<g><path style="opacity:1" fill="#323126" d="M 382.5,115.5 C 385.187,115.336 387.854,115.503 390.5,116C 408.288,121.485 426.288,126.152 444.5,130C 471.316,137.568 494.983,150.568 515.5,169C 568.689,216.547 598.023,276.047 603.5,347.5C 605.53,420.047 582.363,483.047 534,536.5C 524.272,546.396 514.438,556.063 504.5,565.5C 492.078,576.404 478.411,585.571 463.5,593C 445.304,599.065 426.97,604.732 408.5,610C 376.604,616.67 344.937,615.837 313.5,607.5C 302.24,603.858 290.907,600.192 279.5,596.5C 249.89,583.366 222.89,566.199 198.5,545C 188.271,534.938 178.271,524.772 168.5,514.5C 160.652,502.803 152.319,491.469 143.5,480.5C 138.224,472.036 133.891,463.036 130.5,453.5C 131.5,453.5 132.5,453.5 133.5,453.5C 169.484,525.848 225.817,575.015 302.5,601C 307.717,602.743 313.05,603.91 318.5,604.5C 329.106,608.019 340.106,610.019 351.5,610.5C 382.137,614.123 411.47,609.456 439.5,596.5C 443.468,595.285 447.468,594.285 451.5,593.5C 465.456,589.691 477.789,583.025 488.5,573.5C 493.952,570.437 498.618,566.437 502.5,561.5C 546.674,525.86 576.341,480.526 591.5,425.5C 601.135,394.008 603.468,362.008 598.5,329.5C 595.911,301.74 587.911,275.74 574.5,251.5C 549.99,200.823 512.323,163.323 461.5,139C 456.007,136.779 450.34,135.279 444.5,134.5C 432.777,130.235 420.777,126.902 408.5,124.5C 393.604,118.697 378.271,117.03 362.5,119.5C 355.954,119.981 349.621,120.981 343.5,122.5C 294.766,127.013 251.433,144.513 213.5,175C 177.53,203.787 150.53,239.287 132.5,281.5C 124.201,297.413 119.534,314.413 118.5,332.5C 116.969,361.74 117.803,391.073 121,420.5C 123.168,428.506 125.335,436.506 127.5,444.5C 127.376,445.107 127.043,445.44 126.5,445.5C 121.156,433.47 117.656,420.804 116,407.5C 114.628,382.513 114.295,357.513 115,332.5C 117.723,306.5 125.556,282.166 138.5,259.5C 146.741,245.356 155.741,231.69 165.5,218.5C 175.57,206.926 186.237,195.759 197.5,185C 209.112,174.875 221.112,165.375 233.5,156.5C 248.128,148.02 263.128,140.353 278.5,133.5C 279.609,133.443 280.609,133.11 281.5,132.5C 297.156,128.003 312.823,124.003 328.5,120.5C 339.912,119.592 351.245,118.092 362.5,116C 369.158,115.5 375.825,115.334 382.5,115.5 Z"/></g>
<g><path style="opacity:0.722" fill="#8d8541" d="M 502.5,114.5 C 504.404,114.738 505.738,115.738 506.5,117.5C 506.5,117.833 506.5,118.167 506.5,118.5C 505.292,117.766 503.959,117.433 502.5,117.5C 502.5,116.5 502.5,115.5 502.5,114.5 Z"/></g>
<g><path style="opacity:0.999" fill="#eae099" d="M 362.5,119.5 C 378.271,117.03 393.604,118.697 408.5,124.5C 393.232,122.248 377.898,120.581 362.5,119.5 Z"/></g>
<g><path style="opacity:1" fill="#e8dc90" d="M 328.5,120.5 C 312.823,124.003 297.156,128.003 281.5,132.5C 296.195,125.221 311.861,121.221 328.5,120.5 Z"/></g>
<g><path style="opacity:1" fill="#363222" d="M 240.5,122.5 C 242.288,122.215 243.955,122.548 245.5,123.5C 224.712,132.724 205.712,144.724 188.5,159.5C 184.98,163.186 181.647,167.019 178.5,171C 177.552,171.483 176.552,171.649 175.5,171.5C 175.491,169.692 175.991,168.025 177,166.5C 188.05,154.44 200.55,144.273 214.5,136C 223.385,131.726 232.052,127.226 240.5,122.5 Z"/></g>
<g><path style="opacity:1" fill="#f7f7f6" d="M 343.5,122.5 C 362.223,122.133 380.889,122.966 399.5,125C 415.685,128.546 431.685,132.713 447.5,137.5C 448.609,137.557 449.609,137.89 450.5,138.5C 450.859,140.371 451.859,141.871 453.5,143C 457.402,145.119 461.402,146.952 465.5,148.5C 496.29,164.445 522.456,186.112 544,213.5C 552.358,221.236 559.524,229.903 565.5,239.5C 566.167,240.833 566.833,242.167 567.5,243.5C 569.932,249.36 572.599,255.027 575.5,260.5C 585.613,286.344 592.78,313.011 597,340.5C 598.778,368.169 596.612,395.503 590.5,422.5C 590.685,423.584 591.018,424.584 591.5,425.5C 576.341,480.526 546.674,525.86 502.5,561.5C 491.555,567.977 480.555,574.477 469.5,581C 456.842,588.003 443.842,593.837 430.5,598.5C 429.609,599.11 428.609,599.443 427.5,599.5C 418.35,600.537 409.35,602.37 400.5,605C 381.212,607.085 361.879,607.751 342.5,607C 334.584,605.344 326.584,604.51 318.5,604.5C 313.05,603.91 307.717,602.743 302.5,601C 225.817,575.015 169.484,525.848 133.5,453.5C 131.097,443.544 127.93,433.877 124,424.5C 123.168,417.516 122.501,410.516 122,403.5C 119.697,394.69 118.864,385.69 119.5,376.5C 119.576,362.82 120.076,349.153 121,335.5C 123.541,323.254 125.541,310.921 127,298.5C 130.532,293.367 132.366,287.7 132.5,281.5C 150.53,239.287 177.53,203.787 213.5,175C 251.433,144.513 294.766,127.013 343.5,122.5 Z"/></g>
<g><path style="opacity:0.999" fill="#f0eac2" d="M 362.5,119.5 C 377.898,120.581 393.232,122.248 408.5,124.5C 420.777,126.902 432.777,130.235 444.5,134.5C 445.694,135.272 446.694,136.272 447.5,137.5C 431.685,132.713 415.685,128.546 399.5,125C 380.889,122.966 362.223,122.133 343.5,122.5C 349.621,120.981 355.954,119.981 362.5,119.5 Z"/></g>
<g><path style="opacity:0.999" fill="#fdf5bf" d="M 450.5,138.5 C 463.606,141.384 474.939,147.384 484.5,156.5C 480.128,154.947 476.128,152.78 472.5,150C 470.385,149.443 468.385,148.609 466.5,147.5C 465.893,147.624 465.56,147.957 465.5,148.5C 461.402,146.952 457.402,145.119 453.5,143C 451.859,141.871 450.859,140.371 450.5,138.5 Z"/></g>
<g><path style="opacity:1" fill="#38352a" d="M 347.5,144.5 C 361.842,144.697 376.175,145.197 390.5,146C 398.246,147.789 405.079,151.289 411,156.5C 415.279,163.6 416.612,171.266 415,179.5C 404.647,207.249 396.313,235.582 390,264.5C 386.881,272.739 383.214,280.739 379,288.5C 371.667,298.5 364.333,308.5 357,318.5C 351.501,329.16 348.501,340.494 348,352.5C 346.23,354.418 344.063,354.918 341.5,354C 337.964,350.799 334.797,347.299 332,343.5C 321.921,324.34 311.587,305.34 301,286.5C 282.301,267.469 263.968,248.136 246,228.5C 240.069,219.81 236.235,210.31 234.5,200C 235.265,185.89 242.265,176.224 255.5,171C 286.032,161.206 316.698,152.372 347.5,144.5 Z"/></g>
<g><path style="opacity:1" fill="#ece3ac" d="M 278.5,133.5 C 263.128,140.353 248.128,148.02 233.5,156.5C 229.922,157.292 226.588,158.625 223.5,160.5C 225.237,158.45 227.237,156.617 229.5,155C 242.623,148.939 255.623,142.606 268.5,136C 271.768,134.85 275.101,134.016 278.5,133.5 Z"/></g>
<g><path style="opacity:1" fill="#f9e874" d="M 346.5,147.5 C 360.171,147.333 373.837,147.5 387.5,148C 396.693,149.679 404.527,153.846 411,160.5C 413,168.833 413,177.167 411,185.5C 408.279,193.941 405.279,202.274 402,210.5C 397.295,230.372 391.961,250.039 386,269.5C 378.577,286.03 368.91,301.03 357,314.5C 350.732,325.698 347.398,337.698 347,350.5C 345.582,352.363 343.749,352.863 341.5,352C 338.667,348.5 335.833,345 333,341.5C 322.921,322.34 312.587,303.34 302,284.5C 282.6,265.102 263.933,245.102 246,224.5C 237.631,211.548 236.298,197.882 242,183.5C 246.346,178.826 251.513,175.326 257.5,173C 287.159,164.006 316.826,155.506 346.5,147.5 Z"/></g>
<g><path style="opacity:1" fill="#eddf8d" d="M 444.5,134.5 C 450.34,135.279 456.007,136.779 461.5,139C 512.323,163.323 549.99,200.823 574.5,251.5C 572.167,248.833 569.833,246.167 567.5,243.5C 566.833,242.167 566.167,240.833 565.5,239.5C 565.628,237.345 565.128,235.345 564,233.5C 543.508,201.506 517.008,175.839 484.5,156.5C 474.939,147.384 463.606,141.384 450.5,138.5C 449.609,137.89 448.609,137.557 447.5,137.5C 446.694,136.272 445.694,135.272 444.5,134.5 Z"/></g>
<g><path style="opacity:1" fill="#fefadd" d="M 484.5,156.5 C 517.008,175.839 543.508,201.506 564,233.5C 565.128,235.345 565.628,237.345 565.5,239.5C 559.524,229.903 552.358,221.236 544,213.5C 522.456,186.112 496.29,164.445 465.5,148.5C 465.56,147.957 465.893,147.624 466.5,147.5C 468.385,148.609 470.385,149.443 472.5,150C 476.128,152.78 480.128,154.947 484.5,156.5 Z"/></g>
<g><path style="opacity:1" fill="#423c1f" d="M 344.5,164.5 C 347.734,164.205 350.734,164.871 353.5,166.5C 342.715,167.15 332.882,170.484 324,176.5C 323.312,175.668 323.479,175.002 324.5,174.5C 330.763,170.201 337.429,166.867 344.5,164.5 Z"/></g>
<g><path style="opacity:0.899" fill="#302d20" d="M 154.5,172.5 C 155.833,172.5 157.167,172.5 158.5,172.5C 158.762,173.978 158.429,175.311 157.5,176.5C 151.266,180.228 145.766,184.895 141,190.5C 119.852,220.121 102.852,252.121 90,286.5C 85.4676,299.829 82.4676,313.495 81,327.5C 78.0905,370.442 81.7572,412.775 92,454.5C 101.903,476.881 112.57,498.881 124,520.5C 140.361,547.862 161.861,570.362 188.5,588C 190.421,589.241 190.754,590.741 189.5,592.5C 187.167,591.333 184.833,590.167 182.5,589C 155.736,569.903 134.236,546.07 118,517.5C 109.583,499.662 100.417,482.329 90.5,465.5C 82.4537,443.238 77.6204,420.238 76,396.5C 73.4047,363.62 75.0713,330.953 81,298.5C 92.294,266.58 106.294,235.913 123,206.5C 130.996,192.835 141.496,181.502 154.5,172.5 Z"/></g>
<g><path style="opacity:1" fill="#3d391c" d="M 361.5,165.5 C 373.374,166.292 384.374,169.792 394.5,176C 395.899,177.062 396.899,178.395 397.5,180C 397.15,181.257 396.483,181.591 395.5,181C 391.39,176.891 386.723,173.557 381.5,171C 374.576,169.109 367.909,167.275 361.5,165.5 Z"/></g>
<g><path style="opacity:1" fill="#e8e2be" d="M 233.5,156.5 C 221.112,165.375 209.112,174.875 197.5,185C 186.237,195.759 175.57,206.926 165.5,218.5C 169.175,213.317 172.675,207.983 176,202.5C 183.197,194.969 190.697,187.802 198.5,181C 206.644,175.349 214.31,169.182 221.5,162.5C 222.5,162.167 223.167,161.5 223.5,160.5C 226.588,158.625 229.922,157.292 233.5,156.5 Z"/></g>
<g><path style="opacity:1" fill="#2c2b1f" d="M 555.5,179.5 C 557.167,179.5 558.833,179.5 560.5,179.5C 560.664,182.187 560.497,184.854 560,187.5C 557.416,188.861 555.416,188.195 554,185.5C 553.252,183.16 553.752,181.16 555.5,179.5 Z"/></g>
<g><path style="opacity:1" fill="#3f3a1e" d="M 276.5,214.5 C 275.833,217.167 275.167,219.833 274.5,222.5C 273.515,204.97 280.182,191.136 294.5,181C 295.944,180.219 297.277,180.386 298.5,181.5C 288.198,187.972 281.031,196.972 277,208.5C 276.505,210.473 276.338,212.473 276.5,214.5 Z"/></g>
<g><path style="opacity:1" fill="#373324" d="M 163.5,181.5 C 170.263,181.547 172.263,184.714 169.5,191C 164.398,193.888 161.732,192.388 161.5,186.5C 161.437,184.486 162.103,182.819 163.5,181.5 Z"/></g>
<g><path style="opacity:1" fill="#413b1f" d="M 266.5,184.5 C 267.873,184.343 269.207,184.51 270.5,185C 261.513,192.383 259.013,201.55 263,212.5C 258.769,202.403 259.935,193.07 266.5,184.5 Z"/></g>
<g><path style="opacity:1" fill="#f7eb9b" d="M 221.5,162.5 C 214.31,169.182 206.644,175.349 198.5,181C 190.697,187.802 183.197,194.969 176,202.5C 172.675,207.983 169.175,213.317 165.5,218.5C 155.741,231.69 146.741,245.356 138.5,259.5C 138.728,251.975 141.562,245.641 147,240.5C 149.333,235.833 151.667,231.167 154,226.5C 162.956,214.379 172.456,202.712 182.5,191.5C 194.2,183.636 205.2,174.802 215.5,165C 217.407,163.878 219.407,163.045 221.5,162.5 Z"/></g>
<g><path style="opacity:1" fill="#373218" d="M 365.5,186.5 C 366.622,185.844 367.955,185.511 369.5,185.5C 371.808,185.365 373.808,186.031 375.5,187.5C 374.833,187.833 374.167,188.167 373.5,188.5C 370.815,187.829 368.148,187.162 365.5,186.5 Z"/></g>
<g><path style="opacity:1" fill="#373424" d="M 567.5,185.5 C 568.552,185.351 569.552,185.517 570.5,186C 591.004,209.167 605.671,235.667 614.5,265.5C 613.5,265.5 612.5,265.5 611.5,265.5C 602.683,236.523 588.183,210.857 568,188.5C 567.517,187.552 567.351,186.552 567.5,185.5 Z"/></g>
<g><path style="opacity:1" fill="#998f49" d="M 164.5,184.5 C 167.297,184.967 168.631,186.633 168.5,189.5C 167.167,189.5 165.833,189.5 164.5,189.5C 164.5,187.833 164.5,186.167 164.5,184.5 Z"/></g>
<g><path style="opacity:1" fill="#3c3824" d="M 150.5,193.5 C 156.089,193.083 158.422,195.417 157.5,200.5C 151.699,202.035 149.365,199.701 150.5,193.5 Z"/></g>
<g><path style="opacity:1" fill="#322f22" d="M 163.5,200.5 C 165.288,200.215 166.955,200.548 168.5,201.5C 167.667,201.833 166.833,202.167 166,202.5C 164.624,202.316 163.791,201.649 163.5,200.5 Z"/></g>
<g><path style="opacity:0.998" fill="#343122" d="M 614.5,235.5 C 615.315,236.429 616.148,237.429 617,238.5C 619.067,243.741 620.9,249.074 622.5,254.5C 631.848,292.271 637.848,330.605 640.5,369.5C 639.849,376.522 639.016,383.522 638,390.5C 634.489,405.389 631.489,420.389 629,435.5C 610.982,483.244 584.649,525.577 550,562.5C 543.5,569 537,575.5 530.5,582C 506.464,598.879 481.797,614.713 456.5,629.5C 453.05,631.208 449.383,632.541 445.5,633.5C 440.833,634.5 436.167,635.5 431.5,636.5C 431.238,635.022 431.571,633.689 432.5,632.5C 441.282,629.629 449.948,626.462 458.5,623C 483.908,608.91 508.242,593.243 531.5,576C 568.663,540.192 597.83,498.692 619,451.5C 629.639,419.315 634.972,386.315 635,352.5C 632.012,323.226 627.345,294.226 621,265.5C 616.329,248.827 608.996,233.494 599,219.5C 598.51,218.207 598.343,216.873 598.5,215.5C 600.903,215.393 602.736,216.393 604,218.5C 607.525,224.231 611.025,229.897 614.5,235.5 Z"/></g>
<g><path style="opacity:1" fill="#fefbea" d="M 336.5,217.5 C 337.117,217.611 337.617,217.944 338,218.5C 338.667,220.833 338.667,223.167 338,225.5C 337.178,222.883 336.678,220.216 336.5,217.5 Z"/></g>
<g><path style="opacity:1" fill="#7d7338" d="M 276.5,214.5 C 276.274,219.562 276.608,224.562 277.5,229.5C 276.833,229.5 276.5,229.833 276.5,230.5C 275.232,228.095 274.565,225.428 274.5,222.5C 275.167,219.833 275.833,217.167 276.5,214.5 Z"/></g>
<g><path style="opacity:1" fill="#fff8d4" d="M 376.5,224.5 C 377.931,224.881 378.764,225.881 379,227.5C 379.667,231.167 379.667,234.833 379,238.5C 377.025,234.037 376.192,229.371 376.5,224.5 Z"/></g>
<g><path style="opacity:1" fill="#fef8da" d="M 296.5,219.5 C 298.076,226.689 299.243,234.023 300,241.5C 296.984,234.485 295.817,227.152 296.5,219.5 Z"/></g>
<g><path style="opacity:1" fill="#363329" d="M 207.5,208.5 C 214.061,209.613 220.061,212.113 225.5,216C 243.369,234.867 260.869,254.034 278,273.5C 285.241,287.965 294.908,300.632 307,311.5C 317.92,326.33 327.587,341.996 336,358.5C 337.023,362.317 336.523,365.817 334.5,369C 330.448,370.101 326.281,370.601 322,370.5C 300.669,368.416 279.503,369.249 258.5,373C 227.013,374.925 196.013,371.925 165.5,364C 154.211,360.106 144.711,353.606 137,344.5C 134.402,340.372 133.235,335.872 133.5,331C 138.168,297.18 150.668,266.68 171,239.5C 184.445,230.691 196.612,220.357 207.5,208.5 Z"/></g>
<g><path style="opacity:1" fill="#f9e874" d="M 207.5,211.5 C 212.601,211.7 217.267,213.2 221.5,216C 241.035,236.533 260.202,257.367 279,278.5C 285.092,291.251 293.425,302.251 304,311.5C 314.995,326.15 324.995,341.484 334,357.5C 334.929,361.244 334.429,364.744 332.5,368C 317.996,368.5 303.496,368.333 289,367.5C 281.027,367.21 273.194,368.044 265.5,370C 244.474,370.874 223.474,370.54 202.5,369C 177.952,368.494 156.786,359.994 139,343.5C 135.669,337.618 134.669,331.285 136,324.5C 142.184,295.815 153.517,269.481 170,245.5C 177.495,237.346 185.995,230.513 195.5,225C 200.102,220.906 204.102,216.406 207.5,211.5 Z"/></g>
<g><path style="opacity:1" fill="#413c1e" d="M 277.5,229.5 C 278.487,231.473 279.487,233.473 280.5,235.5C 279.726,236.711 278.893,236.711 278,235.5C 276.991,233.975 276.491,232.308 276.5,230.5C 276.5,229.833 276.833,229.5 277.5,229.5 Z"/></g>
<g><path style="opacity:1" fill="#332f18" d="M 209.5,234.5 C 210.978,234.238 212.311,234.571 213.5,235.5C 210.283,237.078 206.949,237.911 203.5,238C 205.727,237.059 207.727,235.892 209.5,234.5 Z"/></g>
<g><path style="opacity:1" fill="#fffae7" d="M 359.5,233.5 C 360.239,233.369 360.906,233.536 361.5,234C 357.07,238.766 353.903,244.266 352,250.5C 351.333,248.5 351.333,246.5 352,244.5C 354.33,240.678 356.83,237.012 359.5,233.5 Z"/></g>
<g><path style="opacity:1" fill="#464021" d="M 205.5,244.5 C 214.464,243.188 223.131,244.688 231.5,249C 232.687,250.019 233.687,251.186 234.5,252.5C 233.635,253.583 232.635,253.749 231.5,253C 229.399,250.23 226.732,248.23 223.5,247C 217.381,246.825 211.381,245.992 205.5,244.5 Z"/></g>
<g><path style="opacity:1" fill="#fff9dc" d="M 313.5,237.5 C 317.238,240.626 319.738,244.626 321,249.5C 322.579,253.12 322.745,256.786 321.5,260.5C 320.453,256.888 319.62,253.221 319,249.5C 316.881,245.598 315.048,241.598 313.5,237.5 Z"/></g>
<g><path style="opacity:1" fill="#fffae0" d="M 303.5,263.5 C 310.205,268.573 313.372,275.24 313,283.5C 312.578,279.991 311.578,276.657 310,273.5C 307.563,270.28 305.397,266.947 303.5,263.5 Z"/></g>
<g><path style="opacity:1" fill="#e6deab" d="M 567.5,243.5 C 569.833,246.167 572.167,248.833 574.5,251.5C 587.911,275.74 595.911,301.74 598.5,329.5C 593.018,306.544 586.185,283.878 578,261.5C 577.329,260.748 576.496,260.414 575.5,260.5C 572.599,255.027 569.932,249.36 567.5,243.5 Z"/></g>
<g><path style="opacity:1" fill="#fff8d6" d="M 338.5,271.5 C 339.75,271.577 340.583,272.244 341,273.5C 341.667,276.5 341.667,279.5 341,282.5C 339.69,278.93 338.857,275.263 338.5,271.5 Z"/></g>
<g><path style="opacity:1" fill="#fff9db" d="M 364.5,266.5 C 365.748,267.334 366.415,268.667 366.5,270.5C 366.459,273.331 365.792,275.998 364.5,278.5C 364.002,274.575 364.002,270.575 364.5,266.5 Z"/></g>
<g><path style="opacity:1" fill="#3f3a1d" d="M 192.5,240.5 C 194.355,240.272 195.188,240.939 195,242.5C 182.01,250.824 172.676,262.157 167,276.5C 163.06,288.321 158.727,299.988 154,311.5C 158.479,290.538 166.812,271.205 179,253.5C 183.395,248.936 187.895,244.602 192.5,240.5 Z"/></g>
<g><path style="opacity:1" fill="#fff9dd" d="M 259.5,287.5 C 259.897,286.475 260.563,286.308 261.5,287C 264.4,289.397 266.733,292.23 268.5,295.5C 267.998,296.521 267.332,296.688 266.5,296C 264.745,292.636 262.412,289.802 259.5,287.5 Z"/></g>
<g><path style="opacity:1" fill="#fefadf" d="M 229.5,297.5 C 230.251,296.427 231.251,296.26 232.5,297C 235.203,300.038 238.203,302.705 241.5,305C 240.5,305.667 239.5,305.667 238.5,305C 235.335,302.665 232.335,300.165 229.5,297.5 Z"/></g>
<g><path style="opacity:1" fill="#fffae0" d="M 353.5,291.5 C 354.376,291.369 355.043,291.702 355.5,292.5C 350.066,304.362 349.399,304.029 353.5,291.5 Z"/></g>
<g><path style="opacity:1" fill="#ece8cf" d="M 575.5,260.5 C 576.496,260.414 577.329,260.748 578,261.5C 586.185,283.878 593.018,306.544 598.5,329.5C 603.468,362.008 601.135,394.008 591.5,425.5C 591.018,424.584 590.685,423.584 590.5,422.5C 596.612,395.503 598.778,368.169 597,340.5C 592.78,313.011 585.613,286.344 575.5,260.5 Z"/></g>
<g><path style="opacity:1" fill="#ece8ce" d="M 132.5,281.5 C 132.366,287.7 130.532,293.367 127,298.5C 125.541,310.921 123.541,323.254 121,335.5C 120.076,349.153 119.576,362.82 119.5,376.5C 118.504,362.01 118.171,347.343 118.5,332.5C 119.534,314.413 124.201,297.413 132.5,281.5 Z"/></g>
<g><path style="opacity:1" fill="#fffbe6" d="M 327.5,295.5 C 330.806,300.278 331.973,305.612 331,311.5C 329.513,306.221 328.347,300.888 327.5,295.5 Z"/></g>
<g><path style="opacity:1" fill="#343227" d="M 445.5,159.5 C 455.227,158.466 463.894,160.966 471.5,167C 493.692,188.193 515.526,209.693 537,231.5C 548.355,245.533 557.689,260.866 565,277.5C 568.737,287.966 569.404,298.633 567,309.5C 564.303,314.436 560.136,317.27 554.5,318C 513.757,318.583 473.423,322.916 433.5,331C 428.934,332.642 424.268,333.975 419.5,335C 402.447,344.025 384.78,351.692 366.5,358C 362.726,359.183 359.559,358.349 357,355.5C 356.19,350.743 356.524,346.076 358,341.5C 360.333,336.833 362.667,332.167 365,327.5C 375.928,315.322 384.594,301.655 391,286.5C 403.435,251.764 415.101,216.764 426,181.5C 430.595,172.409 437.095,165.076 445.5,159.5 Z"/></g>
<g><path style="opacity:1" fill="#f9e874" d="M 447.5,160.5 C 456.711,160.605 464.711,163.772 471.5,170C 484.833,182.667 498.167,195.333 511.5,208C 533.337,226.826 550.171,249.326 562,275.5C 566.589,286.194 567.589,297.194 565,308.5C 562.337,312.161 558.837,314.661 554.5,316C 508.002,315.474 462.336,321.141 417.5,333C 401.968,341.1 385.968,348.1 369.5,354C 360.405,357.907 357.238,355.074 360,345.5C 361,342.833 362,340.167 363,337.5C 369.667,327.5 376.333,317.5 383,307.5C 387.194,300.446 390.861,293.112 394,285.5C 405.606,251.681 416.606,217.681 427,183.5C 431.93,174.073 438.764,166.407 447.5,160.5 Z"/></g>
<g><path style="opacity:1" fill="#958a43" d="M 537.5,306.5 C 534.972,307.166 532.306,307.832 529.5,308.5C 529.957,309.298 530.624,309.631 531.5,309.5C 530.791,310.404 529.791,310.737 528.5,310.5C 528.5,309.167 528.5,307.833 528.5,306.5C 531.5,306.5 534.5,306.5 537.5,306.5 Z"/></g>
<g><path style="opacity:1" fill="#fefae3" d="M 435.5,298.5 C 436.552,298.351 437.552,298.517 438.5,299C 434.049,302.728 429.049,305.062 423.5,306C 427.732,303.725 431.732,301.225 435.5,298.5 Z"/></g>
<g><path style="opacity:1" fill="#fefae5" d="M 396.5,296.5 C 397.497,296.47 398.164,296.97 398.5,298C 396.819,302.85 393.819,306.683 389.5,309.5C 388.479,308.998 388.312,308.332 389,307.5C 392.994,304.844 395.494,301.178 396.5,296.5 Z"/></g>
<g><path style="opacity:1" fill="#635c2e" d="M 539.5,291.5 C 545.705,291.037 547.705,293.704 545.5,299.5C 543.298,300.78 541.132,300.78 539,299.5C 538.278,296.739 538.445,294.073 539.5,291.5 Z"/></g>
<g><path style="opacity:1" fill="#3c361a" d="M 553.5,296.5 C 560.985,297.805 562.319,301.305 557.5,307C 552,308.167 549.833,306 551,300.5C 551.662,299.016 552.496,297.683 553.5,296.5 Z"/></g>
<g><path style="opacity:1" fill="#d6c764" d="M 553.5,299.5 C 558.478,299.952 559.478,302.119 556.5,306C 555.216,306.684 554.049,306.517 553,305.5C 552.51,303.455 552.677,301.455 553.5,299.5 Z"/></g>
<g><path style="opacity:1" fill="#e1d269" d="M 541.5,294.5 C 542.5,294.5 543.5,294.5 544.5,294.5C 544.5,295.833 544.5,297.167 544.5,298.5C 543.5,298.5 542.5,298.5 541.5,298.5C 541.5,297.167 541.5,295.833 541.5,294.5 Z"/></g>
<g><path style="opacity:1" fill="#fefbea" d="M 500.5,292.5 C 503.518,292.335 506.518,292.502 509.5,293C 504.903,294.455 500.237,295.122 495.5,295C 497.315,294.243 498.981,293.41 500.5,292.5 Z"/></g>
<g><path style="opacity:1" fill="#fffae8" d="M 467.5,288.5 C 473.732,288.027 474.399,288.861 469.5,291C 465.833,291.667 462.167,291.667 458.5,291C 461.678,290.34 464.678,289.507 467.5,288.5 Z"/></g>
<g><path style="opacity:1" fill="#fef9da" d="M 416.5,277.5 C 418.225,277.843 418.725,278.843 418,280.5C 416.444,285.28 414.111,289.613 411,293.5C 413.06,288.351 414.893,283.017 416.5,277.5 Z"/></g>
<g><path style="opacity:1" fill="#4c4623" d="M 548.5,279.5 C 555.729,278.588 558.063,281.588 555.5,288.5C 548.428,289.415 546.095,286.415 548.5,279.5 Z"/></g>
<g><path style="opacity:1" fill="#e8d76b" d="M 550.5,281.5 C 551.833,281.5 553.167,281.5 554.5,281.5C 554.5,283.5 554.5,285.5 554.5,287.5C 550.932,287.241 549.599,285.241 550.5,281.5 Z"/></g>
<g><path style="opacity:1" fill="#fefae2" d="M 436.5,263.5 C 437.239,263.369 437.906,263.536 438.5,264C 436.333,266.833 434.167,269.667 432,272.5C 430.867,274.211 429.367,274.711 427.5,274C 431.085,270.922 434.085,267.422 436.5,263.5 Z"/></g>
<g><path style="opacity:1" fill="#fefade" d="M 458.5,258.5 C 459.376,258.369 460.043,258.702 460.5,259.5C 457.806,263.554 455.639,267.888 454,272.5C 454.375,267.538 455.875,262.872 458.5,258.5 Z"/></g>
<g><path style="opacity:1" fill="#fefbea" d="M 484.5,250.5 C 486.028,250.517 486.528,251.184 486,252.5C 476.797,260.435 476.297,259.769 484.5,250.5 Z"/></g>
<g><path style="opacity:1" fill="#fefae0" d="M 415.5,246.5 C 416.16,247.964 416.493,249.631 416.5,251.5C 416.588,253.712 416.088,255.712 415,257.5C 414.421,253.797 414.588,250.131 415.5,246.5 Z"/></g>
<g><path style="opacity:1" fill="#3e391d" d="M 487.5,200.5 C 488.922,200.709 490.255,201.209 491.5,202C 510.629,219.447 527.129,238.947 541,260.5C 543.437,263.938 544.27,267.605 543.5,271.5C 530.91,245.397 513.243,223.23 490.5,205C 488.859,203.871 487.859,202.371 487.5,200.5 Z"/></g>
<g><path style="opacity:1" fill="#fef9df" d="M 453.5,228.5 C 455.875,231.317 455.709,234.317 453,237.5C 452.956,234.525 453.123,231.525 453.5,228.5 Z"/></g>
<g><path style="opacity:1" fill="#3e371a" d="M 440.5,203.5 C 441.675,203.281 442.675,203.614 443.5,204.5C 440.236,208.028 437.736,212.028 436,216.5C 435.663,222.539 434.997,228.539 434,234.5C 431.913,223.194 434.079,212.861 440.5,203.5 Z"/></g>
<g><path style="opacity:1" fill="#3a351b" d="M 458.5,187.5 C 467.709,187.463 476.042,190.463 483.5,196.5C 482.635,197.583 481.635,197.749 480.5,197C 474.031,191.935 466.698,188.768 458.5,187.5 Z"/></g>
<g><path style="opacity:1" fill="#36311a" d="M 531.5,309.5 C 530.624,309.631 529.957,309.298 529.5,308.5C 532.306,307.832 534.972,307.166 537.5,306.5C 538.93,306.579 540.264,306.246 541.5,305.5C 542.774,306.359 542.608,307.026 541,307.5C 537.906,308.566 534.74,309.232 531.5,309.5 Z"/></g>
<g><path style="opacity:1" fill="#fef9df" d="M 461.5,306.5 C 463.655,306.372 465.655,306.872 467.5,308C 461.895,308.568 456.562,310.068 451.5,312.5C 450.429,310.675 451.096,309.508 453.5,309C 456.379,308.454 459.046,307.621 461.5,306.5 Z"/></g>
<g><path style="opacity:1" fill="#fffae6" d="M 201.5,312.5 C 207.665,310.885 212.999,312.551 217.5,317.5C 217,317.833 216.5,318.167 216,318.5C 213.844,317.015 211.677,315.515 209.5,314C 206.746,313.728 204.079,313.228 201.5,312.5 Z"/></g>
<g><path style="opacity:1" fill="#fef8d4" d="M 270.5,316.5 C 270.897,315.475 271.563,315.308 272.5,316C 276.333,319.833 280.167,323.667 284,327.5C 285.602,329.369 286.602,331.369 287,333.5C 281.27,327.938 275.77,322.271 270.5,316.5 Z"/></g>
<g><path style="opacity:1" fill="#3f381e" d="M 169.5,321.5 C 172.271,321.421 174.937,321.921 177.5,323C 176.167,323.167 174.833,323.333 173.5,323.5C 171.667,323.415 170.334,322.748 169.5,321.5 Z"/></g>
<g><path style="opacity:1" fill="#fff9df" d="M 338.5,321.5 C 339.649,321.791 340.316,322.624 340.5,324C 340.333,324.833 340.167,325.667 340,326.5C 338.991,324.975 338.491,323.308 338.5,321.5 Z"/></g>
<g><path style="opacity:1" fill="#fff9db" d="M 239.5,320.5 C 243.97,320.783 247.97,322.283 251.5,325C 248.177,324.529 244.843,323.695 241.5,322.5C 240.287,322.253 239.62,321.586 239.5,320.5 Z"/></g>
<g><path style="opacity:1" fill="#fef8d4" d="M 406.5,323.5 C 410.29,323.008 410.956,323.841 408.5,326C 400.49,328.351 399.824,327.517 406.5,323.5 Z"/></g>
<g><path style="opacity:1" fill="#3b361c" d="M 142.5,324.5 C 147.376,323.404 149.043,325.071 147.5,329.5C 145.604,330.466 143.604,330.799 141.5,330.5C 141.325,328.379 141.659,326.379 142.5,324.5 Z"/></g>
<g><path style="opacity:1" fill="#f8e775" d="M 564.5,324.5 C 568.214,328.883 571.547,333.55 574.5,338.5C 575.517,345.805 575.683,353.139 575,360.5C 571.972,381.945 568.305,403.279 564,424.5C 561.55,437.233 556.05,448.4 547.5,458C 540.635,461.57 533.968,461.237 527.5,457C 502.139,439.645 475.472,424.311 447.5,411C 427.049,402.275 406.716,393.275 386.5,384C 373.636,376.008 373.303,367.675 385.5,359C 389.048,357.059 392.714,355.393 396.5,354C 412.802,351.474 428.802,347.807 444.5,343C 484.573,337.151 524.573,330.984 564.5,324.5 Z"/></g>
<g><path style="opacity:1" fill="#363117" d="M 154.5,325.5 C 159.906,324.735 161.906,327.069 160.5,332.5C 155.677,332.673 153.677,330.339 154.5,325.5 Z"/></g>
<g><path style="opacity:1" fill="#fffadf" d="M 292.5,321.5 C 295.964,324.462 299.297,327.629 302.5,331C 301.5,331.667 300.5,331.667 299.5,331C 296.924,327.937 294.591,324.771 292.5,321.5 Z"/></g>
<g><path style="opacity:1" fill="#948a44" d="M 143.5,326.5 C 147.31,327.754 147.31,328.754 143.5,329.5C 143.5,328.5 143.5,327.5 143.5,326.5 Z"/></g>
<g><path style="opacity:1" fill="#dacb65" d="M 156.5,327.5 C 158.337,327.639 158.67,328.306 157.5,329.5C 156.702,329.043 156.369,328.376 156.5,327.5 Z"/></g>
<g><path style="opacity:1" fill="#fefae0" d="M 391.5,324.5 C 395.29,324.008 395.956,324.841 393.5,327C 388.916,329.58 384.916,332.913 381.5,337C 380.5,337.667 379.5,337.667 378.5,337C 382.729,332.602 387.062,328.436 391.5,324.5 Z"/></g>
<g><path style="opacity:1" fill="#332f1a" d="M 145.5,335.5 C 147.167,335.5 148.833,335.5 150.5,335.5C 150.299,339.35 148.466,340.35 145,338.5C 144.53,337.423 144.697,336.423 145.5,335.5 Z"/></g>
<g><path style="opacity:1" fill="#433c1f" d="M 529.5,336.5 C 533.582,336.344 537.582,336.844 541.5,338C 533.464,338.478 525.631,339.978 518,342.5C 517.5,342.167 517,341.833 516.5,341.5C 521.065,340.201 525.399,338.535 529.5,336.5 Z"/></g>
<g><path style="opacity:1" fill="#fefae2" d="M 219.5,339.5 C 224.922,341.03 230.255,342.863 235.5,345C 230.779,344.664 226.113,343.664 221.5,342C 220.244,341.583 219.577,340.75 219.5,339.5 Z"/></g>
<g><path style="opacity:1" fill="#3c361b" d="M 553.5,338.5 C 555.757,337.197 557.59,337.864 559,340.5C 562.888,346.064 564.388,352.23 563.5,359C 563.437,377.183 559.271,394.35 551,410.5C 553.298,402.932 555.631,395.265 558,387.5C 561.645,374.295 562.311,360.961 560,347.5C 558.301,344.079 556.135,341.079 553.5,338.5 Z"/></g>
<g><path style="opacity:1" fill="#fef9dc" d="M 299.5,344.5 C 299.897,343.475 300.563,343.308 301.5,344C 305.725,347.722 309.392,351.888 312.5,356.5C 311.998,357.521 311.332,357.688 310.5,357C 306.968,352.64 303.301,348.473 299.5,344.5 Z"/></g>
<g><path style="opacity:1" fill="#fffae4" d="M 260.5,349.5 C 261.097,348.861 261.93,348.528 263,348.5C 267.422,349.898 271.922,350.898 276.5,351.5C 276.5,352.5 276.5,353.5 276.5,354.5C 271.311,352.437 265.978,350.771 260.5,349.5 Z"/></g>
<g><path style="opacity:1" fill="#fef7d1" d="M 221.5,357.5 C 226.537,357.042 231.204,358.042 235.5,360.5C 235.167,360.833 234.833,361.167 234.5,361.5C 229.88,360.38 225.547,359.047 221.5,357.5 Z"/></g>
<g><path style="opacity:1" fill="#363327" d="M 368.5,384.5 C 370.199,384.34 371.866,384.506 373.5,385C 381.5,390.333 389.5,395.667 397.5,401C 417.5,410.333 437.5,419.667 457.5,429C 466.681,435.758 475.681,442.758 484.5,450C 496.956,455.728 509.289,461.728 521.5,468C 530.437,474.544 532.937,483.044 529,493.5C 523.081,505.093 515.247,515.26 505.5,524C 485.308,539.517 466.308,556.517 448.5,575C 428.942,590.993 415.108,587.159 407,563.5C 406.206,560.529 405.539,557.529 405,554.5C 404.048,539.847 403.381,525.18 403,510.5C 401.211,499.344 397.878,488.677 393,478.5C 382.476,460.118 374.143,440.784 368,420.5C 365.876,408.387 366.043,396.387 368.5,384.5 Z"/></g>
<g><path style="opacity:1" fill="#f8e774" d="M 369.5,388.5 C 371.989,388.298 374.323,388.798 376.5,390C 385.777,397.92 396.11,404.253 407.5,409C 421.716,415.608 436.049,421.941 450.5,428C 461.78,435.613 472.78,443.613 483.5,452C 495.779,457.473 507.779,463.473 519.5,470C 528.622,476.702 530.788,485.202 526,495.5C 523.394,500.435 520.394,505.102 517,509.5C 505.128,520.374 492.962,530.874 480.5,541C 469.138,552.696 457.471,564.03 445.5,575C 429.91,587.386 418.077,584.553 410,566.5C 408.263,562.339 407.263,558.005 407,553.5C 406.072,538.512 405.405,523.512 405,508.5C 403.776,501.269 401.776,494.269 399,487.5C 388.627,467.755 379.627,447.422 372,426.5C 369.85,413.936 369.017,401.269 369.5,388.5 Z"/></g>
<g><path style="opacity:1" fill="#ecde78" d="M 603.5,347.5 C 608.661,414.847 589.827,474.513 547,526.5C 535.878,535.957 525.711,546.457 516.5,558C 512.585,560.771 508.585,563.271 504.5,565.5C 514.438,556.063 524.272,546.396 534,536.5C 582.363,483.047 605.53,420.047 603.5,347.5 Z"/></g>
<g><path style="opacity:1" fill="#2c291e" d="M 89.5,410.5 C 89.7852,412.288 89.4519,413.955 88.5,415.5C 87.5713,414.311 87.238,412.978 87.5,411.5C 87.1796,408.102 87.513,404.768 88.5,401.5C 89.4841,404.428 89.8174,407.428 89.5,410.5 Z"/></g>
<g><path style="opacity:0.984" fill="#918644" d="M 89.5,410.5 C 89.8174,407.428 89.4841,404.428 88.5,401.5C 87.513,404.768 87.1796,408.102 87.5,411.5C 86.5184,408.038 86.185,404.371 86.5,400.5C 87.8333,400.5 89.1667,400.5 90.5,400.5C 90.8128,404.042 90.4794,407.375 89.5,410.5 Z"/></g>
<g><path style="opacity:1" fill="#393623" d="M 608.5,406.5 C 609.675,406.281 610.675,406.614 611.5,407.5C 608.165,419.849 604.831,432.182 601.5,444.5C 600.5,444.5 599.5,444.5 598.5,444.5C 601.641,431.751 604.974,419.084 608.5,406.5 Z"/></g>
<g><path style="opacity:1" fill="#fef9de" d="M 380.5,407.5 C 381.75,407.577 382.583,408.244 383,409.5C 384.342,414.189 385.342,418.855 386,423.5C 383.475,418.426 381.642,413.093 380.5,407.5 Z"/></g>
<g><path style="opacity:1" fill="#fef9dc" d="M 402.5,417.5 C 403.5,417.5 404.5,417.5 405.5,417.5C 405.568,422.076 407.568,425.576 411.5,428C 405.951,426.936 402.951,423.436 402.5,417.5 Z"/></g>
<g><path style="opacity:1" fill="#353222" d="M 88.5,418.5 C 89.5,418.5 90.5,418.5 91.5,418.5C 96.2896,448.074 108.456,474.074 128,496.5C 128.749,497.635 128.583,498.635 127.5,499.5C 115.97,488.793 107.136,476.126 101,461.5C 95.1218,447.652 90.9551,433.319 88.5,418.5 Z"/></g>
<g><path style="opacity:1" fill="#49442a" d="M 614.5,424.5 C 617.833,424.5 619.5,426.167 619.5,429.5C 614.58,430.585 612.913,428.918 614.5,424.5 Z"/></g>
<g><path style="opacity:1" fill="#e2dbae" d="M 118.5,332.5 C 118.171,347.343 118.504,362.01 119.5,376.5C 118.864,385.69 119.697,394.69 122,403.5C 122.501,410.516 123.168,417.516 124,424.5C 127.93,433.877 131.097,443.544 133.5,453.5C 132.5,453.5 131.5,453.5 130.5,453.5C 130.261,450.143 128.927,447.476 126.5,445.5C 127.043,445.44 127.376,445.107 127.5,444.5C 125.335,436.506 123.168,428.506 121,420.5C 117.803,391.073 116.969,361.74 118.5,332.5 Z"/></g>
<g><path style="opacity:1" fill="#3d3b33" d="M 564.5,324.5 C 524.573,330.984 484.573,337.151 444.5,343C 428.802,347.807 412.802,351.474 396.5,354C 392.714,355.393 389.048,357.059 385.5,359C 373.303,367.675 373.636,376.008 386.5,384C 406.716,393.275 427.049,402.275 447.5,411C 475.472,424.311 502.139,439.645 527.5,457C 533.968,461.237 540.635,461.57 547.5,458C 556.05,448.4 561.55,437.233 564,424.5C 568.305,403.279 571.972,381.945 575,360.5C 575.683,353.139 575.517,345.805 574.5,338.5C 576.74,339.587 578.073,341.42 578.5,344C 576.048,377.88 569.882,411.046 560,443.5C 556.783,449.437 552.949,454.937 548.5,460C 542.139,463.272 535.806,463.272 529.5,460C 484.131,430.646 436.131,405.98 385.5,386C 379.428,382.618 375.761,377.618 374.5,371C 374.329,367.871 375.162,365.037 377,362.5C 391.103,352.34 406.936,346.84 424.5,346C 434.517,343.331 444.517,340.664 454.5,338C 491.291,333.318 527.958,327.818 564.5,321.5C 564.5,322.5 564.5,323.5 564.5,324.5 Z"/></g>
<g><path style="opacity:1" fill="#fef9db" d="M 466.5,401.5 C 474.345,404.172 482.011,407.339 489.5,411C 482.08,409.31 474.747,406.976 467.5,404C 466.748,403.329 466.414,402.496 466.5,401.5 Z"/></g>
<g><path style="opacity:1" fill="#fef9d9" d="M 512.5,396.5 C 518.179,398.226 523.846,400.06 529.5,402C 525.087,402.151 520.754,401.484 516.5,400C 514.456,399.502 513.122,398.335 512.5,396.5 Z"/></g>
<g><path style="opacity:1" fill="#fef9d9" d="M 439.5,389.5 C 447.715,389.269 455.715,391.102 463.5,395C 455.47,393.493 447.47,391.66 439.5,389.5 Z"/></g>
<g><path style="opacity:1" fill="#fef6c9" d="M 464.5,378.5 C 468.799,379.728 473.132,380.894 477.5,382C 473.336,382.813 469.336,382.313 465.5,380.5C 464.702,380.043 464.369,379.376 464.5,378.5 Z"/></g>
<g><path style="opacity:1" fill="#fefae3" d="M 409.5,378.5 C 412.772,379.758 416.106,380.925 419.5,382C 416.406,382.652 413.406,382.318 410.5,381C 409.748,380.329 409.414,379.496 409.5,378.5 Z"/></g>
<g><path style="opacity:1" fill="#fefae4" d="M 489.5,377.5 C 489.56,376.957 489.893,376.624 490.5,376.5C 493.202,378.347 496.202,379.513 499.5,380C 495.579,381.139 492.246,380.305 489.5,377.5 Z"/></g>
<g><path style="opacity:1" fill="#fef8da" d="M 431.5,374.5 C 436.074,373.165 440.74,373.332 445.5,375C 440.78,375.717 436.114,375.55 431.5,374.5 Z"/></g>
<g><path style="opacity:1" fill="#fef7d5" d="M 391.5,368.5 C 397.945,368.463 404.278,369.296 410.5,371C 404.146,370.46 397.813,370.627 391.5,371.5C 391.5,370.5 391.5,369.5 391.5,368.5 Z"/></g>
<g><path style="opacity:1" fill="#fef6ce" d="M 407.5,360.5 C 414.183,361.135 420.849,361.968 427.5,363C 421.833,363.667 416.167,363.667 410.5,363C 408.881,362.764 407.881,361.931 407.5,360.5 Z"/></g>
<g><path style="opacity:1" fill="#fefae2" d="M 459.5,357.5 C 463.046,358.959 466.712,360.126 470.5,361C 467.833,361.667 465.167,361.667 462.5,361C 460.574,360.578 459.574,359.411 459.5,357.5 Z"/></g>
<g><path style="opacity:1" fill="#fefae8" d="M 446.5,353.5 C 451.22,353.225 451.554,354.059 447.5,356C 435.944,358.203 435.611,357.369 446.5,353.5 Z"/></g>
<g><path style="opacity:1" fill="#fefbe6" d="M 497.5,351.5 C 501.819,352.035 506.152,352.535 510.5,353C 508.333,353.167 506.167,353.333 504,353.5C 501.39,353.467 499.223,352.8 497.5,351.5 Z"/></g>
<g><path style="opacity:1" fill="#2f2915" d="M 531.5,433.5 C 528.941,433.802 526.607,433.468 524.5,432.5C 532.947,432.738 540.447,430.072 547,424.5C 548.257,424.85 548.591,425.517 548,426.5C 543.139,430.348 537.639,432.681 531.5,433.5 Z"/></g>
<g><path style="opacity:1" fill="#948842" d="M 524.5,432.5 C 526.607,433.468 528.941,433.802 531.5,433.5C 528.976,434.8 526.309,434.8 523.5,433.5C 523.624,432.893 523.957,432.56 524.5,432.5 Z"/></g>
<g><path style="opacity:0.164" fill="#f4e373" d="M 622.5,254.5 C 632.778,278.694 638.944,304.027 641,330.5C 647.105,437.306 608.939,524.139 526.5,591C 510.17,603.171 492.837,613.838 474.5,623C 468.655,625.67 462.655,627.836 456.5,629.5C 481.797,614.713 506.464,598.879 530.5,582C 537,575.5 543.5,569 550,562.5C 584.649,525.577 610.982,483.244 629,435.5C 631.489,420.389 634.489,405.389 638,390.5C 639.016,383.522 639.849,376.522 640.5,369.5C 637.848,330.605 631.848,292.271 622.5,254.5 Z"/></g>
<g><path style="opacity:1" fill="#fefae0" d="M 432.5,430.5 C 441.61,435.044 450.61,439.877 459.5,445C 458.5,445.667 457.5,445.667 456.5,445C 449.446,440.806 442.112,437.139 434.5,434C 433.177,433.184 432.511,432.017 432.5,430.5 Z"/></g>
<g><path style="opacity:1" fill="#39331a" d="M 547.5,437.5 C 548.239,437.369 548.906,437.536 549.5,438C 546.782,442.092 543.115,444.426 538.5,445C 541.69,442.636 544.69,440.136 547.5,437.5 Z"/></g>
<g><path style="opacity:1" fill="#353222" d="M 607.5,440.5 C 608.675,440.281 609.675,440.614 610.5,441.5C 606.571,454.03 600.571,465.363 592.5,475.5C 592.167,475.167 591.833,474.833 591.5,474.5C 595.745,465.676 600.245,457.01 605,448.5C 605.941,445.846 606.774,443.179 607.5,440.5 Z"/></g>
<g><path style="opacity:1" fill="#312f20" d="M 103.5,446.5 C 104.675,446.281 105.675,446.614 106.5,447.5C 107.833,450.5 109.167,453.5 110.5,456.5C 110,456.833 109.5,457.167 109,457.5C 106.115,454.397 104.282,450.73 103.5,446.5 Z"/></g>
<g><path style="opacity:1" fill="#fefae3" d="M 395.5,441.5 C 398.367,444.233 399.867,447.566 400,451.5C 397.247,448.744 395.747,445.411 395.5,441.5 Z"/></g>
<g><path style="opacity:1" fill="#fef9db" d="M 416.5,446.5 C 420.298,449.796 423.964,453.296 427.5,457C 426.5,457.667 425.5,457.667 424.5,457C 420.825,454.172 418.158,450.672 416.5,446.5 Z"/></g>
<g><path style="opacity:1" fill="#fef9df" d="M 452.5,454.5 C 457.35,456.355 461.683,459.021 465.5,462.5C 465.167,462.833 464.833,463.167 464.5,463.5C 461.163,460.829 457.496,458.663 453.5,457C 452.748,456.329 452.414,455.496 452.5,454.5 Z"/></g>
<g><path style="opacity:1" fill="#fefae1" d="M 408.5,463.5 C 409.5,463.5 410.5,463.5 411.5,463.5C 411.762,481.975 410.762,481.975 408.5,463.5 Z"/></g>
<g><path style="opacity:1" fill="#fefae4" d="M 460.5,473.5 C 461.5,473.5 462.5,473.5 463.5,473.5C 463.839,476.786 464.673,479.786 466,482.5C 463.14,480.111 461.307,477.111 460.5,473.5 Z"/></g>
<g><path style="opacity:1" fill="#fefae5" d="M 436.5,476.5 C 437.189,475.226 438.023,475.226 439,476.5C 440.289,478.055 440.956,479.721 441,481.5C 439.264,479.937 437.764,478.27 436.5,476.5 Z"/></g>
<g><path style="opacity:1" fill="#7c7336" d="M 515.5,480.5 C 516.748,481.334 517.415,482.667 517.5,484.5C 517.167,485.833 516.833,487.167 516.5,488.5C 515.52,485.914 515.187,483.247 515.5,480.5 Z"/></g>
<g><path style="opacity:1" fill="#f0e6ab" d="M 143.5,480.5 C 152.319,491.469 160.652,502.803 168.5,514.5C 168.5,515.833 168.5,517.167 168.5,518.5C 163.531,512.688 158.697,506.688 154,500.5C 151.254,493.337 147.754,486.671 143.5,480.5 Z"/></g>
<g><path style="opacity:1" fill="#3e3a1e" d="M 513.5,490.5 C 515.225,490.843 515.725,491.843 515,493.5C 512.333,497.5 509.667,501.5 507,505.5C 506.333,504.5 506.333,503.5 507,502.5C 509.954,498.925 512.121,494.925 513.5,490.5 Z"/></g>
<g><path style="opacity:1" fill="#908440" d="M 422.5,524.5 C 422.167,524.5 421.833,524.5 421.5,524.5C 420.23,520.215 420.23,515.881 421.5,511.5C 422.492,515.783 422.826,520.116 422.5,524.5 Z"/></g>
<g><path style="opacity:1" fill="#322b14" d="M 477.5,518.5 C 479.028,518.517 479.528,519.184 479,520.5C 476.095,524.171 472.595,526.671 468.5,528C 471.704,524.964 474.704,521.797 477.5,518.5 Z"/></g>
<g><path style="opacity:1" fill="#373528" d="M 145.5,374.5 C 176.488,373.706 207.155,376.54 237.5,383C 261.214,384.354 284.547,382.021 307.5,376C 314.167,375.333 320.833,375.333 327.5,376C 333.215,381.747 334.048,388.247 330,395.5C 317.809,412.709 306.809,430.709 297,449.5C 292.941,459.011 289.274,468.678 286,478.5C 282.999,497.835 276.999,516.168 268,533.5C 264.159,538.003 259.326,540.837 253.5,542C 244.011,543.104 234.677,542.438 225.5,540C 194.744,521.578 171.244,496.412 155,464.5C 145.714,447.971 138.381,430.638 133,412.5C 131.669,404.536 131.335,396.536 132,388.5C 134.687,381.981 139.187,377.314 145.5,374.5 Z"/></g>
<g><path style="opacity:1" fill="#f9e874" d="M 148.5,376.5 C 162.863,376.23 177.196,376.73 191.5,378C 219.487,384.833 247.821,387.167 276.5,385C 290.195,381.927 304.029,379.761 318,378.5C 330.604,378.397 333.938,383.73 328,394.5C 311.667,415.487 298.667,438.487 289,463.5C 284.401,480.629 279.401,497.629 274,514.5C 271.423,523.493 266.923,531.327 260.5,538C 246.419,543.266 232.752,542.266 219.5,535C 187.22,511.381 163.053,481.214 147,444.5C 142.067,432.035 137.734,419.368 134,406.5C 130.088,391.995 134.921,381.995 148.5,376.5 Z"/></g>
<g><path style="opacity:1" fill="#3d371c" d="M 267.5,508.5 C 268.675,508.281 269.675,508.614 270.5,509.5C 266.901,517.626 260.901,522.459 252.5,524C 260.415,521.586 265.415,516.419 267.5,508.5 Z"/></g>
<g><path style="opacity:1" fill="#fefbea" d="M 250.5,492.5 C 251.675,492.281 252.675,492.614 253.5,493.5C 250.804,494.851 248.47,496.684 246.5,499C 245.833,499.667 245.167,499.667 244.5,499C 246.706,496.963 248.706,494.797 250.5,492.5 Z"/></g>
<g><path style="opacity:1" fill="#fefae1" d="M 226.5,457.5 C 229.124,459.198 229.124,461.031 226.5,463C 222.211,465.877 217.544,466.877 212.5,466C 216.22,464.987 219.886,463.82 223.5,462.5C 224.952,461.06 225.952,459.394 226.5,457.5 Z"/></g>
<g><path style="opacity:1" fill="#fefbe7" d="M 278.5,457.5 C 279.497,457.47 280.164,457.97 280.5,459C 277.298,465.572 274.798,472.405 273,479.5C 272.333,476.833 272.333,474.167 273,471.5C 275.134,466.928 276.967,462.261 278.5,457.5 Z"/></g>
<g><path style="opacity:1" fill="#fefae6" d="M 267.5,450.5 C 268.376,450.369 269.043,450.702 269.5,451.5C 266.472,455.361 263.639,459.361 261,463.5C 262.068,458.698 264.234,454.364 267.5,450.5 Z"/></g>
<g><path style="opacity:1" fill="#423d1e" d="M 151.5,419.5 C 156.791,439.764 164.624,459.097 175,477.5C 178.321,482.486 182.321,486.82 187,490.5C 187.688,491.332 187.521,491.998 186.5,492.5C 181.856,489.69 178.023,486.023 175,481.5C 163.521,462.21 155.688,441.544 151.5,419.5 Z"/></g>
<g><path style="opacity:1" fill="#fefae4" d="M 250.5,438.5 C 251.552,438.351 252.552,438.517 253.5,439C 251.938,441.115 249.938,442.115 247.5,442C 248.71,440.961 249.71,439.794 250.5,438.5 Z"/></g>
<g><path style="opacity:1" fill="#fefbe4" d="M 226.5,431.5 C 227.978,431.238 229.311,431.571 230.5,432.5C 226.855,434.994 222.855,436.161 218.5,436C 221.391,434.726 224.058,433.226 226.5,431.5 Z"/></g>
<g><path style="opacity:1" fill="#fefae0" d="M 285.5,418.5 C 286.675,418.281 287.675,418.614 288.5,419.5C 284.428,422.404 281.261,426.071 279,430.5C 278.333,429.5 278.333,428.5 279,427.5C 281.385,424.621 283.552,421.621 285.5,418.5 Z"/></g>
<g><path style="opacity:1" fill="#fefae3" d="M 263.5,414.5 C 264.675,414.281 265.675,414.614 266.5,415.5C 263.55,417.115 260.884,419.115 258.5,421.5C 258.167,421.167 257.833,420.833 257.5,420.5C 259.854,418.812 261.854,416.812 263.5,414.5 Z"/></g>
<g><path style="opacity:1" fill="#fefae2" d="M 239.5,408.5 C 240.5,408.5 241.5,408.5 242.5,408.5C 242.5,409.5 242.5,410.5 242.5,411.5C 239.824,412.008 237.157,412.175 234.5,412C 236.584,411.303 238.251,410.136 239.5,408.5 Z"/></g>
<g><path style="opacity:1" fill="#fefae3" d="M 304.5,393.5 C 305.978,393.238 307.311,393.571 308.5,394.5C 302.135,397.789 295.469,399.955 288.5,401C 294.149,398.961 299.482,396.461 304.5,393.5 Z"/></g>
<g><path style="opacity:1" fill="#635b2d" d="M 138.5,396.5 C 140.62,397.85 140.453,399.517 138,401.5C 137.616,399.803 137.782,398.137 138.5,396.5 Z"/></g>
<g><path style="opacity:1" fill="#fef9de" d="M 259.5,397.5 C 261.989,397.298 264.323,397.798 266.5,399C 263.367,399.393 260.367,400.226 257.5,401.5C 256.833,401.333 256.167,401.167 255.5,401C 257.093,400.051 258.426,398.885 259.5,397.5 Z"/></g>
<g><path style="opacity:1" fill="#fefade" d="M 219.5,398.5 C 220.978,398.238 222.311,398.571 223.5,399.5C 219.431,401.768 215.098,402.601 210.5,402C 213.718,401.1 216.718,399.933 219.5,398.5 Z"/></g>
<g><path style="opacity:1" fill="#4c4623" d="M 156.5,396.5 C 157.777,397.694 158.444,399.36 158.5,401.5C 158.333,403.167 158.167,404.833 158,406.5C 156.684,403.312 156.184,399.978 156.5,396.5 Z"/></g>
<g><path style="opacity:1" fill="#38331a" d="M 154.5,386.5 C 162.616,386.061 170.616,386.728 178.5,388.5C 170.221,388.6 161.888,388.766 153.5,389C 152.034,389.635 150.7,390.469 149.5,391.5C 149.167,391.167 148.833,390.833 148.5,390.5C 150.565,389.143 152.565,387.81 154.5,386.5 Z"/></g>
<g><path style="opacity:1" fill="#fcf4b8" d="M 170.5,520.5 C 182.527,532.194 194.527,543.861 206.5,555.5C 205.167,555.5 203.833,555.5 202.5,555.5C 201.457,552.944 199.79,550.777 197.5,549C 186.557,541.227 177.557,531.727 170.5,520.5 Z"/></g>
<g><path style="opacity:1" fill="#3e391d" d="M 203.5,503.5 C 212.339,517.833 224.672,527.999 240.5,534C 250.338,536.569 258.504,534.069 265,526.5C 265.667,527.5 265.667,528.5 265,529.5C 255.752,536.881 245.585,538.381 234.5,534C 222.987,528.653 213.487,520.82 206,510.5C 204.589,508.35 203.755,506.016 203.5,503.5 Z"/></g>
<g><path style="opacity:1" fill="#393218" d="M 421.5,524.5 C 421.833,524.5 422.167,524.5 422.5,524.5C 423.227,529.954 425.56,534.62 429.5,538.5C 426.558,538.456 424.391,536.789 423,533.5C 422.047,530.568 421.547,527.568 421.5,524.5 Z"/></g>
<g><path style="opacity:1" fill="#3b351a" d="M 501.5,509.5 C 503.028,509.517 503.528,510.184 503,511.5C 482.509,533.341 459.176,551.341 433,565.5C 432.5,565.167 432,564.833 431.5,564.5C 445.635,555.53 459.635,546.363 473.5,537C 483.338,528.328 492.672,519.161 501.5,509.5 Z"/></g>
<g><path style="opacity:1" fill="#363322" d="M 394.5,636.5 C 390.774,636.823 387.107,636.489 383.5,635.5C 386.977,634.833 390.311,634.166 393.5,633.5C 415.734,632.716 436.734,627.216 456.5,617C 486.968,600.213 514.302,579.213 538.5,554C 539.448,553.517 540.448,553.351 541.5,553.5C 541.649,554.552 541.483,555.552 541,556.5C 513.395,584.781 481.895,607.615 446.5,625C 429.788,631.678 412.454,635.512 394.5,636.5 Z"/></g>
<g><path style="opacity:0.999" fill="#fdf09c" d="M 202.5,555.5 C 203.833,555.5 205.167,555.5 206.5,555.5C 214.243,562.749 222.909,568.582 232.5,573C 234.141,574.129 235.141,575.629 235.5,577.5C 222.837,572.476 211.837,565.143 202.5,555.5 Z"/></g>
<g><path style="opacity:1" fill="#ece6c7" d="M 168.5,514.5 C 178.271,524.772 188.271,534.938 198.5,545C 222.89,566.199 249.89,583.366 279.5,596.5C 277.5,596.167 275.5,595.833 273.5,595.5C 272.833,595.167 272.167,594.833 271.5,594.5C 262.716,589.11 253.383,584.776 243.5,581.5C 240.86,580.18 238.193,578.847 235.5,577.5C 235.141,575.629 234.141,574.129 232.5,573C 222.909,568.582 214.243,562.749 206.5,555.5C 194.527,543.861 182.527,532.194 170.5,520.5C 169.5,520.167 168.833,519.5 168.5,518.5C 168.5,517.167 168.5,515.833 168.5,514.5 Z"/></g>
<g><path style="opacity:1" fill="#e5d98b" d="M 488.5,573.5 C 477.789,583.025 465.456,589.691 451.5,593.5C 456.492,589.097 462.325,586.097 469,584.5C 473.681,580.274 478.848,576.774 484.5,574C 485.946,572.702 487.279,572.535 488.5,573.5 Z"/></g>
<g><path style="opacity:1" fill="#f6efc1" d="M 502.5,561.5 C 498.618,566.437 493.952,570.437 488.5,573.5C 487.279,572.535 485.946,572.702 484.5,574C 478.848,576.774 473.681,580.274 469,584.5C 462.325,586.097 456.492,589.097 451.5,593.5C 447.468,594.285 443.468,595.285 439.5,596.5C 436.5,597.167 433.5,597.833 430.5,598.5C 443.842,593.837 456.842,588.003 469.5,581C 480.555,574.477 491.555,567.977 502.5,561.5 Z"/></g>
<g><path style="opacity:1" fill="#3d3924" d="M 215.5,583.5 C 223.356,582.687 226.689,586.02 225.5,593.5C 222.792,595.436 219.792,595.936 216.5,595C 214.99,593.649 213.99,591.982 213.5,590C 214.609,587.953 215.276,585.787 215.5,583.5 Z"/></g>
<g><path style="opacity:1" fill="#fdf1a6" d="M 243.5,581.5 C 253.383,584.776 262.716,589.11 271.5,594.5C 260.84,592.834 251.507,588.501 243.5,581.5 Z"/></g>
<g><path style="opacity:1" fill="#ebda6d" d="M 222.5,589.5 C 221.448,591.256 219.781,591.923 217.5,591.5C 217.5,590.5 217.5,589.5 217.5,588.5C 219.455,587.07 221.121,587.403 222.5,589.5 Z"/></g>
<g><path style="opacity:1" fill="#3a3623" d="M 232.5,588.5 C 238.496,587.333 240.996,589.666 240,595.5C 233.974,597.314 231.474,594.981 232.5,588.5 Z"/></g>
<g><path style="opacity:1" fill="#897f40" d="M 217.5,588.5 C 217.5,589.5 217.5,590.5 217.5,591.5C 219.781,591.923 221.448,591.256 222.5,589.5C 223.404,590.209 223.737,591.209 223.5,592.5C 221.167,592.5 218.833,592.5 216.5,592.5C 216.232,590.901 216.566,589.568 217.5,588.5 Z"/></g>
<g><path style="opacity:1" fill="#353122" d="M 416.5,642.5 C 415.833,642.5 415.167,642.5 414.5,642.5C 387.252,645.356 359.919,646.189 332.5,645C 283.822,640.253 238.822,624.919 197.5,599C 195.561,598.092 194.561,596.592 194.5,594.5C 210.248,602.875 226.248,611.042 242.5,619C 288.656,637.915 336.656,645.581 386.5,642C 396.785,639.884 407.119,639.051 417.5,639.5C 416.873,640.417 416.539,641.417 416.5,642.5 Z"/></g>
<g><path style="opacity:1" fill="#38352e" d="M 339.5,393.5 C 352.279,393.101 360.446,399.101 364,411.5C 366.246,426.467 368.246,441.467 370,456.5C 377.873,482.121 386.54,507.454 396,532.5C 399.493,546.805 402.826,561.138 406,575.5C 406.667,581.167 406.667,586.833 406,592.5C 405.065,595.102 403.232,596.602 400.5,597C 377.584,599.796 354.917,598.463 332.5,593C 312.755,587.53 293.422,580.863 274.5,573C 265.548,565.927 262.048,556.761 264,545.5C 270.938,533.567 278.271,521.9 286,510.5C 295.699,486.038 303.699,461.038 310,435.5C 316.831,423.166 324.165,411.166 332,399.5C 334.478,397.361 336.978,395.361 339.5,393.5 Z"/></g>
<g><path style="opacity:1" fill="#f7e674" d="M 340.5,396.5 C 350.458,395.896 357.291,400.229 361,409.5C 363.292,426.876 365.959,444.209 369,461.5C 377.333,485.167 385.667,508.833 394,532.5C 399.477,551.882 403.144,571.548 405,591.5C 403.786,593.049 402.286,594.215 400.5,595C 374.01,597.576 348.01,595.243 322.5,588C 306.539,583.124 290.872,577.458 275.5,571C 266.9,563.987 264.067,555.154 267,544.5C 271.164,536.005 276.498,528.339 283,521.5C 295.649,494.552 305.316,466.552 312,437.5C 318.415,426.334 325.082,415.334 332,404.5C 334.729,401.601 337.562,398.934 340.5,396.5 Z"/></g>
<g><path style="opacity:1" fill="#3b361c" d="M 355.5,581.5 C 365.482,585.109 375.815,587.109 386.5,587.5C 376.24,588.725 366.24,587.559 356.5,584C 355.748,583.329 355.414,582.496 355.5,581.5 Z"/></g>
<g><path style="opacity:1" fill="#423b1e" d="M 392.5,578.5 C 394.288,578.215 395.955,578.548 397.5,579.5C 393.272,581.143 388.938,581.977 384.5,582C 387.374,581.058 390.04,579.891 392.5,578.5 Z"/></g>
<g><path style="opacity:1" fill="#363019" d="M 393.5,562.5 C 394.496,562.414 395.329,562.748 396,563.5C 396.667,566.167 396.667,568.833 396,571.5C 395.605,568.348 394.772,565.348 393.5,562.5 Z"/></g>
<g><path style="opacity:1" fill="#443f21" d="M 288.5,556.5 C 293.018,559.505 297.684,562.338 302.5,565C 307.167,566 311.833,567 316.5,568C 307.148,568.328 298.481,565.994 290.5,561C 288.963,559.89 288.297,558.39 288.5,556.5 Z"/></g>
<g><path style="opacity:1" fill="#fefade" d="M 355.5,543.5 C 356.332,549.217 357.332,555.05 358.5,561C 358.612,562.662 357.946,563.829 356.5,564.5C 355.503,557.532 355.17,550.532 355.5,543.5 Z"/></g>
<g><path style="opacity:1" fill="#3f3a1e" d="M 284.5,539.5 C 285.376,539.369 286.043,539.702 286.5,540.5C 284.851,542.65 283.018,544.65 281,546.5C 280.105,548.804 279.271,551.138 278.5,553.5C 277.386,552.277 277.219,550.944 278,549.5C 279.431,545.626 281.597,542.293 284.5,539.5 Z"/></g>
<g><path style="opacity:1" fill="#fefade" d="M 330.5,524.5 C 331.586,524.62 332.253,525.287 332.5,526.5C 331.307,531.273 329.807,535.94 328,540.5C 328.491,535.166 329.324,529.833 330.5,524.5 Z"/></g>
<g><path style="opacity:1" fill="#fef9dd" d="M 368.5,522.5 C 369.496,522.414 370.329,522.748 371,523.5C 371.707,525.081 372.54,526.581 373.5,528C 370.404,527.73 368.737,525.897 368.5,522.5 Z"/></g>
<g><path style="opacity:1" fill="#fef7d0" d="M 347.5,519.5 C 349.385,521.795 349.885,524.462 349,527.5C 347.748,524.986 347.248,522.32 347.5,519.5 Z"/></g>
<g><path style="opacity:1" fill="#fefae1" d="M 314.5,504.5 C 315.239,504.369 315.906,504.536 316.5,505C 314.348,507.469 312.848,510.302 312,513.5C 311.131,510.007 311.964,507.007 314.5,504.5 Z"/></g>
<g><path style="opacity:1" fill="#fefcec" d="M 351.5,496.5 C 353.847,498.03 354.014,500.03 352,502.5C 351.505,500.527 351.338,498.527 351.5,496.5 Z"/></g>
<g><path style="opacity:1" fill="#fef8d6" d="M 333.5,484.5 C 334.586,484.62 335.253,485.287 335.5,486.5C 334.486,490.225 333.319,493.892 332,497.5C 331.269,493.016 331.769,488.682 333.5,484.5 Z"/></g>
<g><path style="opacity:1" fill="#fefae4" d="M 313.5,481.5 C 314.497,481.47 315.164,481.97 315.5,483C 313.89,487.054 311.89,490.887 309.5,494.5C 309.167,494.167 308.833,493.833 308.5,493.5C 310.738,489.697 312.404,485.697 313.5,481.5 Z"/></g>
<g><path style="opacity:1" fill="#fefae3" d="M 348.5,472.5 C 349.75,472.577 350.583,473.244 351,474.5C 351.667,476.5 351.667,478.5 351,480.5C 349.659,477.978 348.826,475.311 348.5,472.5 Z"/></g>
<g><path style="opacity:1" fill="#403b1e" d="M 349.5,414.5 C 351.984,416.12 353.484,418.453 354,421.5C 356.47,441.651 359.803,461.651 364,481.5C 366.542,491.314 370.709,500.314 376.5,508.5C 375.349,509.731 374.183,509.731 373,508.5C 367.84,499.693 363.84,490.36 361,480.5C 358.333,462.499 355.667,444.499 353,426.5C 352.331,422.329 351.164,418.329 349.5,414.5 Z"/></g>
<g><path style="opacity:1" fill="#fefae2" d="M 328.5,455.5 C 329.376,455.369 330.043,455.702 330.5,456.5C 328.726,459.715 327.226,463.048 326,466.5C 325.486,462.538 326.32,458.871 328.5,455.5 Z"/></g>
<g><path style="opacity:1" fill="#fefae3" d="M 343.5,442.5 C 344.586,442.62 345.253,443.287 345.5,444.5C 344.768,447.197 343.934,449.864 343,452.5C 342.341,449.112 342.508,445.779 343.5,442.5 Z"/></g>
<g><path style="opacity:1" fill="#fefae2" d="M 336.5,422.5 C 337.675,422.281 338.675,422.614 339.5,423.5C 336.198,429.299 332.698,434.966 329,440.5C 331.171,434.475 333.671,428.475 336.5,422.5 Z"/></g>
<g><path style="opacity:1" fill="#343121" d="M 231.5,601.5 C 232.5,601.5 233.5,601.5 234.5,601.5C 234.5,602.5 234.5,603.5 234.5,604.5C 233.5,604.5 232.5,604.5 231.5,604.5C 231.5,603.5 231.5,602.5 231.5,601.5 Z"/></g>
<g><path style="opacity:0.996" fill="#e8dd95" d="M 273.5,595.5 C 275.5,595.833 277.5,596.167 279.5,596.5C 290.907,600.192 302.24,603.858 313.5,607.5C 306.055,607.378 299.055,605.544 292.5,602C 287.766,601.317 283.1,600.317 278.5,599C 276.416,598.303 274.749,597.136 273.5,595.5 Z"/></g>
<g><path style="opacity:1" fill="#f3eecd" d="M 427.5,599.5 C 419.804,602.26 411.804,604.427 403.5,606C 386.225,608.228 368.891,609.728 351.5,610.5C 340.106,610.019 329.106,608.019 318.5,604.5C 326.584,604.51 334.584,605.344 342.5,607C 361.879,607.751 381.212,607.085 400.5,605C 409.35,602.37 418.35,600.537 427.5,599.5 Z"/></g>
<g><path style="opacity:1" fill="#e6dc9a" d="M 439.5,596.5 C 411.47,609.456 382.137,614.123 351.5,610.5C 368.891,609.728 386.225,608.228 403.5,606C 411.804,604.427 419.804,602.26 427.5,599.5C 428.609,599.443 429.609,599.11 430.5,598.5C 433.5,597.833 436.5,597.167 439.5,596.5 Z"/></g>
<g><path style="opacity:0.98" fill="#998d48" d="M 393.5,633.5 C 390.311,634.166 386.977,634.833 383.5,635.5C 387.107,636.489 390.774,636.823 394.5,636.5C 390.702,637.483 386.702,637.817 382.5,637.5C 382.5,636.167 382.5,634.833 382.5,633.5C 386.167,633.5 389.833,633.5 393.5,633.5 Z"/></g>
</svg>
