<?xml version="1.0" encoding="UTF-8"?>
<!DOCTYPE svg PUBLIC "-//W3C//DTD SVG 1.1//EN" "http://www.w3.org/Graphics/SVG/1.1/DTD/svg11.dtd">
<svg xmlns="http://www.w3.org/2000/svg" version="1.1" width="2200px" height="1150px" style="shape-rendering:geometricPrecision; text-rendering:geometricPrecision; image-rendering:optimizeQuality; fill-rule:evenodd; clip-rule:evenodd" xmlns:xlink="http://www.w3.org/1999/xlink">
<g><path style="opacity:0.862" fill="#27251d" d="M 1241.5,89.5 C 1241.5,90.5 1241.5,91.5 1241.5,92.5C 1242.96,92.4326 1244.29,92.7659 1245.5,93.5C 1278.06,119.557 1307.89,148.557 1335,180.5C 1335.75,181.635 1335.58,182.635 1334.5,183.5C 1313.01,161.846 1291.68,140.012 1270.5,118C 1251.39,101.271 1230.39,87.2712 1207.5,76C 1150.61,54.4708 1092.61,50.8041 1033.5,65C 1009.45,71.9048 986.78,81.9048 965.5,95C 951.443,105.39 937.11,115.39 922.5,125C 918.5,129 914.5,133 910.5,137C 909.552,137.483 908.552,137.649 907.5,137.5C 907.5,136.5 907.5,135.5 907.5,134.5C 909.22,131.269 911.553,128.436 914.5,126C 941,103.905 970,85.572 1001.5,71C 1054.44,49.9494 1108.77,45.6161 1164.5,58C 1192.51,63.0129 1218.18,73.5129 1241.5,89.5 Z"/></g>
<g><path style="opacity:0.962" fill="#f7e673" d="M 1245.5,93.5 C 1245.5,93.1667 1245.5,92.8333 1245.5,92.5C 1295.12,119.449 1331.12,158.782 1353.5,210.5C 1350.03,204.897 1346.53,199.231 1343,193.5C 1341.74,191.393 1339.9,190.393 1337.5,190.5C 1337.34,191.873 1337.51,193.207 1338,194.5C 1348,208.494 1355.33,223.827 1360,240.5C 1366.35,269.226 1371.01,298.226 1374,327.5C 1373.97,361.315 1368.64,394.315 1358,426.5C 1336.83,473.692 1307.66,515.192 1270.5,551C 1247.24,568.243 1222.91,583.91 1197.5,598C 1188.95,601.462 1180.28,604.629 1171.5,607.5C 1170.57,608.689 1170.24,610.022 1170.5,611.5C 1175.17,610.5 1179.83,609.5 1184.5,608.5C 1175.36,612.874 1165.69,615.874 1155.5,617.5C 1155.54,616.417 1155.87,615.417 1156.5,614.5C 1146.12,614.051 1135.79,614.884 1125.5,617C 1075.66,620.581 1027.66,612.915 981.5,594C 965.248,586.042 949.248,577.875 933.5,569.5C 933.561,571.592 934.561,573.092 936.5,574C 977.822,599.919 1022.82,615.253 1071.5,620C 1098.92,621.189 1126.25,620.356 1153.5,617.5C 1044.85,640.226 953.017,610.893 878,529.5C 856.118,503.078 839.951,473.412 829.5,440.5C 839.417,457.329 848.583,474.662 857,492.5C 873.236,521.07 894.736,544.903 921.5,564C 923.833,565.167 926.167,566.333 928.5,567.5C 929.754,565.741 929.421,564.241 927.5,563C 900.861,545.362 879.361,522.862 863,495.5C 851.57,473.881 840.903,451.881 831,429.5C 820.757,387.775 817.09,345.442 820,302.5C 821.468,288.495 824.468,274.829 829,261.5C 841.852,227.121 858.852,195.121 880,165.5C 884.766,159.895 890.266,155.228 896.5,151.5C 897.429,150.311 897.762,148.978 897.5,147.5C 896.167,147.5 894.833,147.5 893.5,147.5C 896.906,141.759 901.572,137.426 907.5,134.5C 907.5,135.5 907.5,136.5 907.5,137.5C 908.552,137.649 909.552,137.483 910.5,137C 914.5,133 918.5,129 922.5,125C 937.11,115.39 951.443,105.39 965.5,95C 986.78,81.9048 1009.45,71.9048 1033.5,65C 1092.61,50.8041 1150.61,54.4708 1207.5,76C 1230.39,87.2712 1251.39,101.271 1270.5,118C 1291.68,140.012 1313.01,161.846 1334.5,183.5C 1335.58,182.635 1335.75,181.635 1335,180.5C 1307.89,148.557 1278.06,119.557 1245.5,93.5 Z"/></g>
<g><path style="opacity:1" fill="#363322" d="M 1114.5,82.5 C 1130.13,81.3265 1145.13,83.8265 1159.5,90C 1161.87,90.8481 1163.87,92.1814 1165.5,94C 1165.17,94.5 1164.83,95 1164.5,95.5C 1148.12,87.4329 1130.78,84.0995 1112.5,85.5C 1113.19,84.4822 1113.86,83.4822 1114.5,82.5 Z"/></g>
<g><path style="opacity:1" fill="#f7e981" d="M 1121.5,90.5 C 1114.83,90.3337 1108.16,90.5004 1101.5,91C 1090.25,93.0921 1078.91,94.5921 1067.5,95.5C 1050.86,96.2208 1035.19,100.221 1020.5,107.5C 1019.61,108.11 1018.61,108.443 1017.5,108.5C 1014.1,109.016 1010.77,109.85 1007.5,111C 994.623,117.606 981.623,123.939 968.5,130C 966.237,131.617 964.237,133.45 962.5,135.5C 962.167,136.5 961.5,137.167 960.5,137.5C 958.407,138.045 956.407,138.878 954.5,140C 944.2,149.802 933.2,158.636 921.5,166.5C 922.211,162.618 924.544,160.118 928.5,159C 946.23,139.947 967.23,125.613 991.5,116C 1003.84,108.212 1017.18,102.546 1031.5,99C 1061.19,91.108 1091.19,88.2747 1121.5,90.5 Z"/></g>
<g><path style="opacity:1" fill="#323126" d="M 1121.5,90.5 C 1124.19,90.3359 1126.85,90.5026 1129.5,91C 1147.29,96.4849 1165.29,101.152 1183.5,105C 1210.32,112.568 1233.98,125.568 1254.5,144C 1307.69,191.547 1337.02,251.047 1342.5,322.5C 1344.53,395.047 1321.36,458.047 1273,511.5C 1263.27,521.396 1253.44,531.063 1243.5,540.5C 1231.08,551.404 1217.41,560.571 1202.5,568C 1184.3,574.065 1165.97,579.732 1147.5,585C 1115.6,591.67 1083.94,590.837 1052.5,582.5C 1041.24,578.858 1029.91,575.192 1018.5,571.5C 988.89,558.366 961.89,541.199 937.5,520C 927.271,509.938 917.271,499.772 907.5,489.5C 899.652,477.803 891.319,466.469 882.5,455.5C 877.224,447.036 872.891,438.036 869.5,428.5C 870.5,428.5 871.5,428.5 872.5,428.5C 908.484,500.848 964.817,550.015 1041.5,576C 1046.72,577.743 1052.05,578.91 1057.5,579.5C 1068.11,583.019 1079.11,585.019 1090.5,585.5C 1121.14,589.123 1150.47,584.456 1178.5,571.5C 1182.47,570.285 1186.47,569.285 1190.5,568.5C 1204.46,564.691 1216.79,558.025 1227.5,548.5C 1232.95,545.437 1237.62,541.437 1241.5,536.5C 1285.67,500.86 1315.34,455.526 1330.5,400.5C 1340.13,369.008 1342.47,337.008 1337.5,304.5C 1334.91,276.74 1326.91,250.74 1313.5,226.5C 1288.99,175.823 1251.32,138.323 1200.5,114C 1195.01,111.779 1189.34,110.279 1183.5,109.5C 1171.78,105.235 1159.78,101.902 1147.5,99.5C 1132.6,93.6971 1117.27,92.0305 1101.5,94.5C 1094.95,94.9809 1088.62,95.9809 1082.5,97.5C 1033.77,102.013 990.433,119.513 952.5,150C 916.53,178.787 889.53,214.287 871.5,256.5C 863.201,272.413 858.534,289.413 857.5,307.5C 855.969,336.74 856.803,366.073 860,395.5C 862.168,403.506 864.335,411.506 866.5,419.5C 866.376,420.107 866.043,420.44 865.5,420.5C 860.156,408.47 856.656,395.804 855,382.5C 853.628,357.513 853.295,332.513 854,307.5C 856.723,281.5 864.556,257.166 877.5,234.5C 885.741,220.356 894.741,206.69 904.5,193.5C 914.57,181.926 925.237,170.759 936.5,160C 948.112,149.875 960.112,140.375 972.5,131.5C 987.128,123.02 1002.13,115.353 1017.5,108.5C 1018.61,108.443 1019.61,108.11 1020.5,107.5C 1036.16,103.003 1051.82,99.0033 1067.5,95.5C 1078.91,94.5921 1090.25,93.0921 1101.5,91C 1108.16,90.5004 1114.83,90.3337 1121.5,90.5 Z"/></g>
<g><path style="opacity:0.722" fill="#8d8541" d="M 1241.5,89.5 C 1243.4,89.7376 1244.74,90.7376 1245.5,92.5C 1245.5,92.8333 1245.5,93.1667 1245.5,93.5C 1244.29,92.7659 1242.96,92.4326 1241.5,92.5C 1241.5,91.5 1241.5,90.5 1241.5,89.5 Z"/></g>
<g><path style="opacity:0.999" fill="#eae099" d="M 1101.5,94.5 C 1117.27,92.0305 1132.6,93.6971 1147.5,99.5C 1132.23,97.248 1116.9,95.5813 1101.5,94.5 Z"/></g>
<g><path style="opacity:1" fill="#e8dc90" d="M 1067.5,95.5 C 1051.82,99.0033 1036.16,103.003 1020.5,107.5C 1035.19,100.221 1050.86,96.2208 1067.5,95.5 Z"/></g>
<g><path style="opacity:1" fill="#363222" d="M 979.5,97.5 C 981.288,97.2148 982.955,97.5481 984.5,98.5C 963.712,107.724 944.712,119.724 927.5,134.5C 923.98,138.186 920.647,142.019 917.5,146C 916.552,146.483 915.552,146.649 914.5,146.5C 914.491,144.692 914.991,143.025 916,141.5C 927.05,129.44 939.55,119.273 953.5,111C 962.385,106.726 971.052,102.226 979.5,97.5 Z"/></g>
<g><path style="opacity:1" fill="#f7f7f6" d="M 1082.5,97.5 C 1101.22,97.133 1119.89,97.9663 1138.5,100C 1154.69,103.546 1170.69,107.713 1186.5,112.5C 1187.61,112.557 1188.61,112.89 1189.5,113.5C 1189.86,115.371 1190.86,116.871 1192.5,118C 1196.4,120.119 1200.4,121.952 1204.5,123.5C 1235.29,139.445 1261.46,161.112 1283,188.5C 1291.36,196.236 1298.52,204.903 1304.5,214.5C 1305.17,215.833 1305.83,217.167 1306.5,218.5C 1308.93,224.36 1311.6,230.027 1314.5,235.5C 1324.61,261.344 1331.78,288.011 1336,315.5C 1337.78,343.169 1335.61,370.503 1329.5,397.5C 1329.69,398.584 1330.02,399.584 1330.5,400.5C 1315.34,455.526 1285.67,500.86 1241.5,536.5C 1230.56,542.977 1219.56,549.477 1208.5,556C 1195.84,563.003 1182.84,568.837 1169.5,573.5C 1168.61,574.11 1167.61,574.443 1166.5,574.5C 1157.35,575.537 1148.35,577.37 1139.5,580C 1120.21,582.085 1100.88,582.751 1081.5,582C 1073.58,580.344 1065.58,579.51 1057.5,579.5C 1052.05,578.91 1046.72,577.743 1041.5,576C 964.817,550.015 908.484,500.848 872.5,428.5C 870.097,418.544 866.93,408.877 863,399.5C 862.168,392.516 861.501,385.516 861,378.5C 858.697,369.69 857.864,360.69 858.5,351.5C 858.576,337.82 859.076,324.153 860,310.5C 862.541,298.254 864.541,285.921 866,273.5C 869.532,268.367 871.366,262.7 871.5,256.5C 889.53,214.287 916.53,178.787 952.5,150C 990.433,119.513 1033.77,102.013 1082.5,97.5 Z"/></g>
<g><path style="opacity:0.999" fill="#f0eac2" d="M 1101.5,94.5 C 1116.9,95.5813 1132.23,97.248 1147.5,99.5C 1159.78,101.902 1171.78,105.235 1183.5,109.5C 1184.69,110.272 1185.69,111.272 1186.5,112.5C 1170.69,107.713 1154.69,103.546 1138.5,100C 1119.89,97.9663 1101.22,97.133 1082.5,97.5C 1088.62,95.9809 1094.95,94.9809 1101.5,94.5 Z"/></g>
<g><path style="opacity:0.999" fill="#fdf5bf" d="M 1189.5,113.5 C 1202.61,116.384 1213.94,122.384 1223.5,131.5C 1219.13,129.947 1215.13,127.78 1211.5,125C 1209.39,124.443 1207.39,123.609 1205.5,122.5C 1204.89,122.624 1204.56,122.957 1204.5,123.5C 1200.4,121.952 1196.4,120.119 1192.5,118C 1190.86,116.871 1189.86,115.371 1189.5,113.5 Z"/></g>
<g><path style="opacity:1" fill="#38352a" d="M 1086.5,119.5 C 1100.84,119.697 1115.18,120.197 1129.5,121C 1137.25,122.789 1144.08,126.289 1150,131.5C 1154.28,138.6 1155.61,146.266 1154,154.5C 1143.65,182.249 1135.31,210.582 1129,239.5C 1125.88,247.739 1122.21,255.739 1118,263.5C 1110.67,273.5 1103.33,283.5 1096,293.5C 1090.5,304.16 1087.5,315.494 1087,327.5C 1085.23,329.418 1083.06,329.918 1080.5,329C 1076.96,325.799 1073.8,322.299 1071,318.5C 1060.92,299.34 1050.59,280.34 1040,261.5C 1021.3,242.469 1002.97,223.136 985,203.5C 979.069,194.81 975.235,185.31 973.5,175C 974.265,160.89 981.265,151.224 994.5,146C 1025.03,136.206 1055.7,127.372 1086.5,119.5 Z"/></g>
<g><path style="opacity:1" fill="#ece3ac" d="M 1017.5,108.5 C 1002.13,115.353 987.128,123.02 972.5,131.5C 968.922,132.292 965.588,133.625 962.5,135.5C 964.237,133.45 966.237,131.617 968.5,130C 981.623,123.939 994.623,117.606 1007.5,111C 1010.77,109.85 1014.1,109.016 1017.5,108.5 Z"/></g>
<g><path style="opacity:1" fill="#f9e874" d="M 1085.5,122.5 C 1099.17,122.333 1112.84,122.5 1126.5,123C 1135.69,124.679 1143.53,128.846 1150,135.5C 1152,143.833 1152,152.167 1150,160.5C 1147.28,168.941 1144.28,177.274 1141,185.5C 1136.29,205.372 1130.96,225.039 1125,244.5C 1117.58,261.03 1107.91,276.03 1096,289.5C 1089.73,300.698 1086.4,312.698 1086,325.5C 1084.58,327.363 1082.75,327.863 1080.5,327C 1077.67,323.5 1074.83,320 1072,316.5C 1061.92,297.34 1051.59,278.34 1041,259.5C 1021.6,240.102 1002.93,220.102 985,199.5C 976.631,186.548 975.298,172.882 981,158.5C 985.346,153.826 990.513,150.326 996.5,148C 1026.16,139.006 1055.83,130.506 1085.5,122.5 Z"/></g>
<g><path style="opacity:1" fill="#eddf8d" d="M 1183.5,109.5 C 1189.34,110.279 1195.01,111.779 1200.5,114C 1251.32,138.323 1288.99,175.823 1313.5,226.5C 1311.17,223.833 1308.83,221.167 1306.5,218.5C 1305.83,217.167 1305.17,215.833 1304.5,214.5C 1304.63,212.345 1304.13,210.345 1303,208.5C 1282.51,176.506 1256.01,150.839 1223.5,131.5C 1213.94,122.384 1202.61,116.384 1189.5,113.5C 1188.61,112.89 1187.61,112.557 1186.5,112.5C 1185.69,111.272 1184.69,110.272 1183.5,109.5 Z"/></g>
<g><path style="opacity:1" fill="#fefadd" d="M 1223.5,131.5 C 1256.01,150.839 1282.51,176.506 1303,208.5C 1304.13,210.345 1304.63,212.345 1304.5,214.5C 1298.52,204.903 1291.36,196.236 1283,188.5C 1261.46,161.112 1235.29,139.445 1204.5,123.5C 1204.56,122.957 1204.89,122.624 1205.5,122.5C 1207.39,123.609 1209.39,124.443 1211.5,125C 1215.13,127.78 1219.13,129.947 1223.5,131.5 Z"/></g>
<g><path style="opacity:1" fill="#423c1f" d="M 1083.5,139.5 C 1086.73,139.205 1089.73,139.871 1092.5,141.5C 1081.72,142.15 1071.88,145.484 1063,151.5C 1062.31,150.668 1062.48,150.002 1063.5,149.5C 1069.76,145.201 1076.43,141.867 1083.5,139.5 Z"/></g>
<g><path style="opacity:0.899" fill="#302d20" d="M 893.5,147.5 C 894.833,147.5 896.167,147.5 897.5,147.5C 897.762,148.978 897.429,150.311 896.5,151.5C 890.266,155.228 884.766,159.895 880,165.5C 858.852,195.121 841.852,227.121 829,261.5C 824.468,274.829 821.468,288.495 820,302.5C 817.09,345.442 820.757,387.775 831,429.5C 840.903,451.881 851.57,473.881 863,495.5C 879.361,522.862 900.861,545.362 927.5,563C 929.421,564.241 929.754,565.741 928.5,567.5C 926.167,566.333 923.833,565.167 921.5,564C 894.736,544.903 873.236,521.07 857,492.5C 848.583,474.662 839.417,457.329 829.5,440.5C 821.454,418.238 816.62,395.238 815,371.5C 812.405,338.62 814.071,305.953 820,273.5C 831.294,241.58 845.294,210.913 862,181.5C 869.996,167.835 880.496,156.502 893.5,147.5 Z"/></g>
<g><path style="opacity:1" fill="#3d391c" d="M 1100.5,140.5 C 1112.37,141.292 1123.37,144.792 1133.5,151C 1134.9,152.062 1135.9,153.395 1136.5,155C 1136.15,156.257 1135.48,156.591 1134.5,156C 1130.39,151.891 1125.72,148.557 1120.5,146C 1113.58,144.109 1106.91,142.275 1100.5,140.5 Z"/></g>
<g><path style="opacity:1" fill="#e8e2be" d="M 972.5,131.5 C 960.112,140.375 948.112,149.875 936.5,160C 925.237,170.759 914.57,181.926 904.5,193.5C 908.175,188.317 911.675,182.983 915,177.5C 922.197,169.969 929.697,162.802 937.5,156C 945.644,150.349 953.31,144.182 960.5,137.5C 961.5,137.167 962.167,136.5 962.5,135.5C 965.588,133.625 968.922,132.292 972.5,131.5 Z"/></g>
<g><path style="opacity:1" fill="#2c2b1f" d="M 1294.5,154.5 C 1296.17,154.5 1297.83,154.5 1299.5,154.5C 1299.66,157.187 1299.5,159.854 1299,162.5C 1296.42,163.861 1294.42,163.195 1293,160.5C 1292.25,158.16 1292.75,156.16 1294.5,154.5 Z"/></g>
<g><path style="opacity:1" fill="#3f3a1e" d="M 1015.5,189.5 C 1014.83,192.167 1014.17,194.833 1013.5,197.5C 1012.52,179.97 1019.18,166.136 1033.5,156C 1034.94,155.219 1036.28,155.386 1037.5,156.5C 1027.2,162.972 1020.03,171.972 1016,183.5C 1015.5,185.473 1015.34,187.473 1015.5,189.5 Z"/></g>
<g><path style="opacity:1" fill="#373324" d="M 902.5,156.5 C 909.263,156.547 911.263,159.714 908.5,166C 903.398,168.888 900.732,167.388 900.5,161.5C 900.437,159.486 901.103,157.819 902.5,156.5 Z"/></g>
<g><path style="opacity:1" fill="#413b1f" d="M 1005.5,159.5 C 1006.87,159.343 1008.21,159.51 1009.5,160C 1000.51,167.383 998.013,176.55 1002,187.5C 997.769,177.403 998.935,168.07 1005.5,159.5 Z"/></g>
<g><path style="opacity:1" fill="#f7eb9b" d="M 960.5,137.5 C 953.31,144.182 945.644,150.349 937.5,156C 929.697,162.802 922.197,169.969 915,177.5C 911.675,182.983 908.175,188.317 904.5,193.5C 894.741,206.69 885.741,220.356 877.5,234.5C 877.728,226.975 880.562,220.641 886,215.5C 888.333,210.833 890.667,206.167 893,201.5C 901.956,189.379 911.456,177.712 921.5,166.5C 933.2,158.636 944.2,149.802 954.5,140C 956.407,138.878 958.407,138.045 960.5,137.5 Z"/></g>
<g><path style="opacity:1" fill="#373218" d="M 1104.5,161.5 C 1105.62,160.844 1106.95,160.511 1108.5,160.5C 1110.81,160.365 1112.81,161.031 1114.5,162.5C 1113.83,162.833 1113.17,163.167 1112.5,163.5C 1109.82,162.829 1107.15,162.162 1104.5,161.5 Z"/></g>
<g><path style="opacity:1" fill="#373424" d="M 1306.5,160.5 C 1307.55,160.351 1308.55,160.517 1309.5,161C 1330,184.167 1344.67,210.667 1353.5,240.5C 1352.5,240.5 1351.5,240.5 1350.5,240.5C 1341.68,211.523 1327.18,185.857 1307,163.5C 1306.52,162.552 1306.35,161.552 1306.5,160.5 Z"/></g>
<g><path style="opacity:1" fill="#998f49" d="M 903.5,159.5 C 906.297,159.967 907.631,161.633 907.5,164.5C 906.167,164.5 904.833,164.5 903.5,164.5C 903.5,162.833 903.5,161.167 903.5,159.5 Z"/></g>
<g><path style="opacity:1" fill="#3c3824" d="M 889.5,168.5 C 895.089,168.083 897.422,170.417 896.5,175.5C 890.699,177.035 888.365,174.701 889.5,168.5 Z"/></g>
<g><path style="opacity:1" fill="#322f22" d="M 902.5,175.5 C 904.288,175.215 905.955,175.548 907.5,176.5C 906.667,176.833 905.833,177.167 905,177.5C 903.624,177.316 902.791,176.649 902.5,175.5 Z"/></g>
<g><path style="opacity:0.998" fill="#343122" d="M 1353.5,210.5 C 1354.31,211.429 1355.15,212.429 1356,213.5C 1358.07,218.741 1359.9,224.074 1361.5,229.5C 1370.85,267.271 1376.85,305.605 1379.5,344.5C 1378.85,351.522 1378.02,358.522 1377,365.5C 1373.49,380.389 1370.49,395.389 1368,410.5C 1349.98,458.244 1323.65,500.577 1289,537.5C 1282.5,544 1276,550.5 1269.5,557C 1245.46,573.879 1220.8,589.713 1195.5,604.5C 1192.05,606.208 1188.38,607.541 1184.5,608.5C 1179.83,609.5 1175.17,610.5 1170.5,611.5C 1170.24,610.022 1170.57,608.689 1171.5,607.5C 1180.28,604.629 1188.95,601.462 1197.5,598C 1222.91,583.91 1247.24,568.243 1270.5,551C 1307.66,515.192 1336.83,473.692 1358,426.5C 1368.64,394.315 1373.97,361.315 1374,327.5C 1371.01,298.226 1366.35,269.226 1360,240.5C 1355.33,223.827 1348,208.494 1338,194.5C 1337.51,193.207 1337.34,191.873 1337.5,190.5C 1339.9,190.393 1341.74,191.393 1343,193.5C 1346.53,199.231 1350.03,204.897 1353.5,210.5 Z"/></g>
<g><path style="opacity:1" fill="#fefbea" d="M 1075.5,192.5 C 1076.12,192.611 1076.62,192.944 1077,193.5C 1077.67,195.833 1077.67,198.167 1077,200.5C 1076.18,197.883 1075.68,195.216 1075.5,192.5 Z"/></g>
<g><path style="opacity:1" fill="#7d7338" d="M 1015.5,189.5 C 1015.27,194.562 1015.61,199.562 1016.5,204.5C 1015.83,204.5 1015.5,204.833 1015.5,205.5C 1014.23,203.095 1013.57,200.428 1013.5,197.5C 1014.17,194.833 1014.83,192.167 1015.5,189.5 Z"/></g>
<g><path style="opacity:1" fill="#fff8d4" d="M 1115.5,199.5 C 1116.93,199.881 1117.76,200.881 1118,202.5C 1118.67,206.167 1118.67,209.833 1118,213.5C 1116.03,209.037 1115.19,204.371 1115.5,199.5 Z"/></g>
<g><path style="opacity:1" fill="#fef8da" d="M 1035.5,194.5 C 1037.08,201.689 1038.24,209.023 1039,216.5C 1035.98,209.485 1034.82,202.152 1035.5,194.5 Z"/></g>
<g><path style="opacity:1" fill="#363329" d="M 946.5,183.5 C 953.061,184.613 959.061,187.113 964.5,191C 982.369,209.867 999.869,229.034 1017,248.5C 1024.24,262.965 1033.91,275.632 1046,286.5C 1056.92,301.33 1066.59,316.996 1075,333.5C 1076.02,337.317 1075.52,340.817 1073.5,344C 1069.45,345.101 1065.28,345.601 1061,345.5C 1039.67,343.416 1018.5,344.249 997.5,348C 966.013,349.925 935.013,346.925 904.5,339C 893.211,335.106 883.711,328.606 876,319.5C 873.402,315.372 872.235,310.872 872.5,306C 877.168,272.18 889.668,241.68 910,214.5C 923.445,205.691 935.612,195.357 946.5,183.5 Z"/></g>
<g><path style="opacity:1" fill="#f9e874" d="M 946.5,186.5 C 951.601,186.7 956.267,188.2 960.5,191C 980.035,211.533 999.202,232.367 1018,253.5C 1024.09,266.251 1032.43,277.251 1043,286.5C 1054,301.15 1064,316.484 1073,332.5C 1073.93,336.244 1073.43,339.744 1071.5,343C 1057,343.5 1042.5,343.333 1028,342.5C 1020.03,342.21 1012.19,343.044 1004.5,345C 983.474,345.874 962.474,345.54 941.5,344C 916.952,343.494 895.786,334.994 878,318.5C 874.669,312.618 873.669,306.285 875,299.5C 881.184,270.815 892.517,244.481 909,220.5C 916.495,212.346 924.995,205.513 934.5,200C 939.102,195.906 943.102,191.406 946.5,186.5 Z"/></g>
<g><path style="opacity:1" fill="#413c1e" d="M 1016.5,204.5 C 1017.49,206.473 1018.49,208.473 1019.5,210.5C 1018.73,211.711 1017.89,211.711 1017,210.5C 1015.99,208.975 1015.49,207.308 1015.5,205.5C 1015.5,204.833 1015.83,204.5 1016.5,204.5 Z"/></g>
<g><path style="opacity:1" fill="#332f18" d="M 948.5,209.5 C 949.978,209.238 951.311,209.571 952.5,210.5C 949.283,212.078 945.949,212.911 942.5,213C 944.727,212.059 946.727,210.892 948.5,209.5 Z"/></g>
<g><path style="opacity:1" fill="#fffae7" d="M 1098.5,208.5 C 1099.24,208.369 1099.91,208.536 1100.5,209C 1096.07,213.766 1092.9,219.266 1091,225.5C 1090.33,223.5 1090.33,221.5 1091,219.5C 1093.33,215.678 1095.83,212.012 1098.5,208.5 Z"/></g>
<g><path style="opacity:1" fill="#464021" d="M 944.5,219.5 C 953.464,218.188 962.131,219.688 970.5,224C 971.687,225.019 972.687,226.186 973.5,227.5C 972.635,228.583 971.635,228.749 970.5,228C 968.399,225.23 965.732,223.23 962.5,222C 956.381,221.825 950.381,220.992 944.5,219.5 Z"/></g>
<g><path style="opacity:1" fill="#fff9dc" d="M 1052.5,212.5 C 1056.24,215.626 1058.74,219.626 1060,224.5C 1061.58,228.12 1061.75,231.786 1060.5,235.5C 1059.45,231.888 1058.62,228.221 1058,224.5C 1055.88,220.598 1054.05,216.598 1052.5,212.5 Z"/></g>
<g><path style="opacity:1" fill="#fffae0" d="M 1042.5,238.5 C 1049.21,243.573 1052.37,250.24 1052,258.5C 1051.58,254.991 1050.58,251.657 1049,248.5C 1046.56,245.28 1044.4,241.947 1042.5,238.5 Z"/></g>
<g><path style="opacity:1" fill="#e6deab" d="M 1306.5,218.5 C 1308.83,221.167 1311.17,223.833 1313.5,226.5C 1326.91,250.74 1334.91,276.74 1337.5,304.5C 1332.02,281.544 1325.18,258.878 1317,236.5C 1316.33,235.748 1315.5,235.414 1314.5,235.5C 1311.6,230.027 1308.93,224.36 1306.5,218.5 Z"/></g>
<g><path style="opacity:1" fill="#fff8d6" d="M 1077.5,246.5 C 1078.75,246.577 1079.58,247.244 1080,248.5C 1080.67,251.5 1080.67,254.5 1080,257.5C 1078.69,253.93 1077.86,250.263 1077.5,246.5 Z"/></g>
<g><path style="opacity:1" fill="#fff9db" d="M 1103.5,241.5 C 1104.75,242.334 1105.41,243.667 1105.5,245.5C 1105.46,248.331 1104.79,250.998 1103.5,253.5C 1103,249.575 1103,245.575 1103.5,241.5 Z"/></g>
<g><path style="opacity:1" fill="#3f3a1d" d="M 931.5,215.5 C 933.355,215.272 934.188,215.939 934,217.5C 921.01,225.824 911.676,237.157 906,251.5C 902.06,263.321 897.727,274.988 893,286.5C 897.479,265.538 905.812,246.205 918,228.5C 922.395,223.936 926.895,219.602 931.5,215.5 Z"/></g>
<g><path style="opacity:1" fill="#fff9dd" d="M 998.5,262.5 C 998.897,261.475 999.563,261.308 1000.5,262C 1003.4,264.397 1005.73,267.23 1007.5,270.5C 1007,271.521 1006.33,271.688 1005.5,271C 1003.74,267.636 1001.41,264.802 998.5,262.5 Z"/></g>
<g><path style="opacity:1" fill="#fefadf" d="M 968.5,272.5 C 969.251,271.427 970.251,271.26 971.5,272C 974.203,275.038 977.203,277.705 980.5,280C 979.5,280.667 978.5,280.667 977.5,280C 974.335,277.665 971.335,275.165 968.5,272.5 Z"/></g>
<g><path style="opacity:1" fill="#fffae0" d="M 1092.5,266.5 C 1093.38,266.369 1094.04,266.702 1094.5,267.5C 1089.07,279.362 1088.4,279.029 1092.5,266.5 Z"/></g>
<g><path style="opacity:1" fill="#ece8cf" d="M 1314.5,235.5 C 1315.5,235.414 1316.33,235.748 1317,236.5C 1325.18,258.878 1332.02,281.544 1337.5,304.5C 1342.47,337.008 1340.13,369.008 1330.5,400.5C 1330.02,399.584 1329.69,398.584 1329.5,397.5C 1335.61,370.503 1337.78,343.169 1336,315.5C 1331.78,288.011 1324.61,261.344 1314.5,235.5 Z"/></g>
<g><path style="opacity:1" fill="#ece8ce" d="M 871.5,256.5 C 871.366,262.7 869.532,268.367 866,273.5C 864.541,285.921 862.541,298.254 860,310.5C 859.076,324.153 858.576,337.82 858.5,351.5C 857.504,337.01 857.171,322.343 857.5,307.5C 858.534,289.413 863.201,272.413 871.5,256.5 Z"/></g>
<g><path style="opacity:1" fill="#fffbe6" d="M 1066.5,270.5 C 1069.81,275.278 1070.97,280.612 1070,286.5C 1068.51,281.221 1067.35,275.888 1066.5,270.5 Z"/></g>
<g><path style="opacity:1" fill="#343227" d="M 1184.5,134.5 C 1194.23,133.466 1202.89,135.966 1210.5,142C 1232.69,163.193 1254.53,184.693 1276,206.5C 1287.36,220.533 1296.69,235.866 1304,252.5C 1307.74,262.966 1308.4,273.633 1306,284.5C 1303.3,289.436 1299.14,292.27 1293.5,293C 1252.76,293.583 1212.42,297.916 1172.5,306C 1167.93,307.642 1163.27,308.975 1158.5,310C 1141.45,319.025 1123.78,326.692 1105.5,333C 1101.73,334.183 1098.56,333.349 1096,330.5C 1095.19,325.743 1095.52,321.076 1097,316.5C 1099.33,311.833 1101.67,307.167 1104,302.5C 1114.93,290.322 1123.59,276.655 1130,261.5C 1142.43,226.764 1154.1,191.764 1165,156.5C 1169.59,147.409 1176.09,140.076 1184.5,134.5 Z"/></g>
<g><path style="opacity:1" fill="#f9e874" d="M 1186.5,135.5 C 1195.71,135.605 1203.71,138.772 1210.5,145C 1223.83,157.667 1237.17,170.333 1250.5,183C 1272.34,201.826 1289.17,224.326 1301,250.5C 1305.59,261.194 1306.59,272.194 1304,283.5C 1301.34,287.161 1297.84,289.661 1293.5,291C 1247,290.474 1201.34,296.141 1156.5,308C 1140.97,316.1 1124.97,323.1 1108.5,329C 1099.41,332.907 1096.24,330.074 1099,320.5C 1100,317.833 1101,315.167 1102,312.5C 1108.67,302.5 1115.33,292.5 1122,282.5C 1126.19,275.446 1129.86,268.112 1133,260.5C 1144.61,226.681 1155.61,192.681 1166,158.5C 1170.93,149.073 1177.76,141.407 1186.5,135.5 Z"/></g>
<g><path style="opacity:1" fill="#958a43" d="M 1276.5,281.5 C 1273.97,282.166 1271.31,282.832 1268.5,283.5C 1268.96,284.298 1269.62,284.631 1270.5,284.5C 1269.79,285.404 1268.79,285.737 1267.5,285.5C 1267.5,284.167 1267.5,282.833 1267.5,281.5C 1270.5,281.5 1273.5,281.5 1276.5,281.5 Z"/></g>
<g><path style="opacity:1" fill="#fefae3" d="M 1174.5,273.5 C 1175.55,273.351 1176.55,273.517 1177.5,274C 1173.05,277.728 1168.05,280.062 1162.5,281C 1166.73,278.725 1170.73,276.225 1174.5,273.5 Z"/></g>
<g><path style="opacity:1" fill="#fefae5" d="M 1135.5,271.5 C 1136.5,271.47 1137.16,271.97 1137.5,273C 1135.82,277.85 1132.82,281.683 1128.5,284.5C 1127.48,283.998 1127.31,283.332 1128,282.5C 1131.99,279.844 1134.49,276.178 1135.5,271.5 Z"/></g>
<g><path style="opacity:1" fill="#635c2e" d="M 1278.5,266.5 C 1284.71,266.037 1286.71,268.704 1284.5,274.5C 1282.3,275.78 1280.13,275.78 1278,274.5C 1277.28,271.739 1277.44,269.073 1278.5,266.5 Z"/></g>
<g><path style="opacity:1" fill="#3c361a" d="M 1292.5,271.5 C 1299.99,272.805 1301.32,276.305 1296.5,282C 1291,283.167 1288.83,281 1290,275.5C 1290.66,274.016 1291.5,272.683 1292.5,271.5 Z"/></g>
<g><path style="opacity:1" fill="#d6c764" d="M 1292.5,274.5 C 1297.48,274.952 1298.48,277.119 1295.5,281C 1294.22,281.684 1293.05,281.517 1292,280.5C 1291.51,278.455 1291.68,276.455 1292.5,274.5 Z"/></g>
<g><path style="opacity:1" fill="#e1d269" d="M 1280.5,269.5 C 1281.5,269.5 1282.5,269.5 1283.5,269.5C 1283.5,270.833 1283.5,272.167 1283.5,273.5C 1282.5,273.5 1281.5,273.5 1280.5,273.5C 1280.5,272.167 1280.5,270.833 1280.5,269.5 Z"/></g>
<g><path style="opacity:1" fill="#fefbea" d="M 1239.5,267.5 C 1242.52,267.335 1245.52,267.502 1248.5,268C 1243.9,269.455 1239.24,270.122 1234.5,270C 1236.31,269.243 1237.98,268.41 1239.5,267.5 Z"/></g>
<g><path style="opacity:1" fill="#fffae8" d="M 1206.5,263.5 C 1212.73,263.027 1213.4,263.861 1208.5,266C 1204.83,266.667 1201.17,266.667 1197.5,266C 1200.68,265.34 1203.68,264.507 1206.5,263.5 Z"/></g>
<g><path style="opacity:1" fill="#fef9da" d="M 1155.5,252.5 C 1157.23,252.843 1157.73,253.843 1157,255.5C 1155.44,260.28 1153.11,264.613 1150,268.5C 1152.06,263.351 1153.89,258.017 1155.5,252.5 Z"/></g>
<g><path style="opacity:1" fill="#4c4623" d="M 1287.5,254.5 C 1294.73,253.588 1297.06,256.588 1294.5,263.5C 1287.43,264.415 1285.09,261.415 1287.5,254.5 Z"/></g>
<g><path style="opacity:1" fill="#e8d76b" d="M 1289.5,256.5 C 1290.83,256.5 1292.17,256.5 1293.5,256.5C 1293.5,258.5 1293.5,260.5 1293.5,262.5C 1289.93,262.241 1288.6,260.241 1289.5,256.5 Z"/></g>
<g><path style="opacity:1" fill="#fefae2" d="M 1175.5,238.5 C 1176.24,238.369 1176.91,238.536 1177.5,239C 1175.33,241.833 1173.17,244.667 1171,247.5C 1169.87,249.211 1168.37,249.711 1166.5,249C 1170.08,245.922 1173.08,242.422 1175.5,238.5 Z"/></g>
<g><path style="opacity:1" fill="#fefade" d="M 1197.5,233.5 C 1198.38,233.369 1199.04,233.702 1199.5,234.5C 1196.81,238.554 1194.64,242.888 1193,247.5C 1193.38,242.538 1194.88,237.872 1197.5,233.5 Z"/></g>
<g><path style="opacity:1" fill="#fefbea" d="M 1223.5,225.5 C 1225.03,225.517 1225.53,226.184 1225,227.5C 1215.8,235.435 1215.3,234.769 1223.5,225.5 Z"/></g>
<g><path style="opacity:1" fill="#fefae0" d="M 1154.5,221.5 C 1155.16,222.964 1155.49,224.631 1155.5,226.5C 1155.59,228.712 1155.09,230.712 1154,232.5C 1153.42,228.797 1153.59,225.131 1154.5,221.5 Z"/></g>
<g><path style="opacity:1" fill="#3e391d" d="M 1226.5,175.5 C 1227.92,175.709 1229.26,176.209 1230.5,177C 1249.63,194.447 1266.13,213.947 1280,235.5C 1282.44,238.938 1283.27,242.605 1282.5,246.5C 1269.91,220.397 1252.24,198.23 1229.5,180C 1227.86,178.871 1226.86,177.371 1226.5,175.5 Z"/></g>
<g><path style="opacity:1" fill="#fef9df" d="M 1192.5,203.5 C 1194.88,206.317 1194.71,209.317 1192,212.5C 1191.96,209.525 1192.12,206.525 1192.5,203.5 Z"/></g>
<g><path style="opacity:1" fill="#3e371a" d="M 1179.5,178.5 C 1180.68,178.281 1181.68,178.614 1182.5,179.5C 1179.24,183.028 1176.74,187.028 1175,191.5C 1174.66,197.539 1174,203.539 1173,209.5C 1170.91,198.194 1173.08,187.861 1179.5,178.5 Z"/></g>
<g><path style="opacity:1" fill="#3a351b" d="M 1197.5,162.5 C 1206.71,162.463 1215.04,165.463 1222.5,171.5C 1221.64,172.583 1220.64,172.749 1219.5,172C 1213.03,166.935 1205.7,163.768 1197.5,162.5 Z"/></g>
<g><path style="opacity:1" fill="#36311a" d="M 1270.5,284.5 C 1269.62,284.631 1268.96,284.298 1268.5,283.5C 1271.31,282.832 1273.97,282.166 1276.5,281.5C 1277.93,281.579 1279.26,281.246 1280.5,280.5C 1281.77,281.359 1281.61,282.026 1280,282.5C 1276.91,283.566 1273.74,284.232 1270.5,284.5 Z"/></g>
<g><path style="opacity:1" fill="#fef9df" d="M 1200.5,281.5 C 1202.65,281.372 1204.65,281.872 1206.5,283C 1200.89,283.568 1195.56,285.068 1190.5,287.5C 1189.43,285.675 1190.1,284.508 1192.5,284C 1195.38,283.454 1198.05,282.621 1200.5,281.5 Z"/></g>
<g><path style="opacity:1" fill="#fffae6" d="M 940.5,287.5 C 946.665,285.885 951.999,287.551 956.5,292.5C 956,292.833 955.5,293.167 955,293.5C 952.844,292.015 950.677,290.515 948.5,289C 945.746,288.728 943.079,288.228 940.5,287.5 Z"/></g>
<g><path style="opacity:1" fill="#fef8d4" d="M 1009.5,291.5 C 1009.9,290.475 1010.56,290.308 1011.5,291C 1015.33,294.833 1019.17,298.667 1023,302.5C 1024.6,304.369 1025.6,306.369 1026,308.5C 1020.27,302.938 1014.77,297.271 1009.5,291.5 Z"/></g>
<g><path style="opacity:1" fill="#3f381e" d="M 908.5,296.5 C 911.271,296.421 913.937,296.921 916.5,298C 915.167,298.167 913.833,298.333 912.5,298.5C 910.667,298.415 909.334,297.748 908.5,296.5 Z"/></g>
<g><path style="opacity:1" fill="#fff9df" d="M 1077.5,296.5 C 1078.65,296.791 1079.32,297.624 1079.5,299C 1079.33,299.833 1079.17,300.667 1079,301.5C 1077.99,299.975 1077.49,298.308 1077.5,296.5 Z"/></g>
<g><path style="opacity:1" fill="#fff9db" d="M 978.5,295.5 C 982.97,295.783 986.97,297.283 990.5,300C 987.177,299.529 983.843,298.695 980.5,297.5C 979.287,297.253 978.62,296.586 978.5,295.5 Z"/></g>
<g><path style="opacity:1" fill="#fef8d4" d="M 1145.5,298.5 C 1149.29,298.008 1149.96,298.841 1147.5,301C 1139.49,303.351 1138.82,302.517 1145.5,298.5 Z"/></g>
<g><path style="opacity:1" fill="#3b361c" d="M 881.5,299.5 C 886.376,298.404 888.043,300.071 886.5,304.5C 884.604,305.466 882.604,305.799 880.5,305.5C 880.325,303.379 880.659,301.379 881.5,299.5 Z"/></g>
<g><path style="opacity:1" fill="#f8e775" d="M 1303.5,299.5 C 1307.21,303.883 1310.55,308.55 1313.5,313.5C 1314.52,320.805 1314.68,328.139 1314,335.5C 1310.97,356.945 1307.31,378.279 1303,399.5C 1300.55,412.233 1295.05,423.4 1286.5,433C 1279.63,436.57 1272.97,436.237 1266.5,432C 1241.14,414.645 1214.47,399.311 1186.5,386C 1166.05,377.275 1145.72,368.275 1125.5,359C 1112.64,351.008 1112.3,342.675 1124.5,334C 1128.05,332.059 1131.71,330.393 1135.5,329C 1151.8,326.474 1167.8,322.807 1183.5,318C 1223.57,312.151 1263.57,305.984 1303.5,299.5 Z"/></g>
<g><path style="opacity:1" fill="#363117" d="M 893.5,300.5 C 898.906,299.735 900.906,302.069 899.5,307.5C 894.677,307.673 892.677,305.339 893.5,300.5 Z"/></g>
<g><path style="opacity:1" fill="#fffadf" d="M 1031.5,296.5 C 1034.96,299.462 1038.3,302.629 1041.5,306C 1040.5,306.667 1039.5,306.667 1038.5,306C 1035.92,302.937 1033.59,299.771 1031.5,296.5 Z"/></g>
<g><path style="opacity:1" fill="#948a44" d="M 882.5,301.5 C 886.31,302.754 886.31,303.754 882.5,304.5C 882.5,303.5 882.5,302.5 882.5,301.5 Z"/></g>
<g><path style="opacity:1" fill="#dacb65" d="M 895.5,302.5 C 897.337,302.639 897.67,303.306 896.5,304.5C 895.702,304.043 895.369,303.376 895.5,302.5 Z"/></g>
<g><path style="opacity:1" fill="#fefae0" d="M 1130.5,299.5 C 1134.29,299.008 1134.96,299.841 1132.5,302C 1127.92,304.58 1123.92,307.913 1120.5,312C 1119.5,312.667 1118.5,312.667 1117.5,312C 1121.73,307.602 1126.06,303.436 1130.5,299.5 Z"/></g>
<g><path style="opacity:1" fill="#332f1a" d="M 884.5,310.5 C 886.167,310.5 887.833,310.5 889.5,310.5C 889.299,314.35 887.466,315.35 884,313.5C 883.53,312.423 883.697,311.423 884.5,310.5 Z"/></g>
<g><path style="opacity:1" fill="#433c1f" d="M 1268.5,311.5 C 1272.58,311.344 1276.58,311.844 1280.5,313C 1272.46,313.478 1264.63,314.978 1257,317.5C 1256.5,317.167 1256,316.833 1255.5,316.5C 1260.07,315.201 1264.4,313.535 1268.5,311.5 Z"/></g>
<g><path style="opacity:1" fill="#fefae2" d="M 958.5,314.5 C 963.922,316.03 969.255,317.863 974.5,320C 969.779,319.664 965.113,318.664 960.5,317C 959.244,316.583 958.577,315.75 958.5,314.5 Z"/></g>
<g><path style="opacity:1" fill="#3c361b" d="M 1292.5,313.5 C 1294.76,312.197 1296.59,312.864 1298,315.5C 1301.89,321.064 1303.39,327.23 1302.5,334C 1302.44,352.183 1298.27,369.35 1290,385.5C 1292.3,377.932 1294.63,370.265 1297,362.5C 1300.64,349.295 1301.31,335.961 1299,322.5C 1297.3,319.079 1295.13,316.079 1292.5,313.5 Z"/></g>
<g><path style="opacity:1" fill="#fef9dc" d="M 1038.5,319.5 C 1038.9,318.475 1039.56,318.308 1040.5,319C 1044.72,322.722 1048.39,326.888 1051.5,331.5C 1051,332.521 1050.33,332.688 1049.5,332C 1045.97,327.64 1042.3,323.473 1038.5,319.5 Z"/></g>
<g><path style="opacity:1" fill="#fffae4" d="M 999.5,324.5 C 1000.1,323.861 1000.93,323.528 1002,323.5C 1006.42,324.898 1010.92,325.898 1015.5,326.5C 1015.5,327.5 1015.5,328.5 1015.5,329.5C 1010.31,327.437 1004.98,325.771 999.5,324.5 Z"/></g>
<g><path style="opacity:1" fill="#fef7d1" d="M 960.5,332.5 C 965.537,332.042 970.204,333.042 974.5,335.5C 974.167,335.833 973.833,336.167 973.5,336.5C 968.88,335.38 964.547,334.047 960.5,332.5 Z"/></g>
<g><path style="opacity:1" fill="#363327" d="M 1107.5,359.5 C 1109.2,359.34 1110.87,359.506 1112.5,360C 1120.5,365.333 1128.5,370.667 1136.5,376C 1156.5,385.333 1176.5,394.667 1196.5,404C 1205.68,410.758 1214.68,417.758 1223.5,425C 1235.96,430.728 1248.29,436.728 1260.5,443C 1269.44,449.544 1271.94,458.044 1268,468.5C 1262.08,480.093 1254.25,490.26 1244.5,499C 1224.31,514.517 1205.31,531.517 1187.5,550C 1167.94,565.993 1154.11,562.159 1146,538.5C 1145.21,535.529 1144.54,532.529 1144,529.5C 1143.05,514.847 1142.38,500.18 1142,485.5C 1140.21,474.344 1136.88,463.677 1132,453.5C 1121.48,435.118 1113.14,415.784 1107,395.5C 1104.88,383.387 1105.04,371.387 1107.5,359.5 Z"/></g>
<g><path style="opacity:1" fill="#f8e774" d="M 1108.5,363.5 C 1110.99,363.298 1113.32,363.798 1115.5,365C 1124.78,372.92 1135.11,379.253 1146.5,384C 1160.72,390.608 1175.05,396.941 1189.5,403C 1200.78,410.613 1211.78,418.613 1222.5,427C 1234.78,432.473 1246.78,438.473 1258.5,445C 1267.62,451.702 1269.79,460.202 1265,470.5C 1262.39,475.435 1259.39,480.102 1256,484.5C 1244.13,495.374 1231.96,505.874 1219.5,516C 1208.14,527.696 1196.47,539.03 1184.5,550C 1168.91,562.386 1157.08,559.553 1149,541.5C 1147.26,537.339 1146.26,533.005 1146,528.5C 1145.07,513.512 1144.41,498.512 1144,483.5C 1142.78,476.269 1140.78,469.269 1138,462.5C 1127.63,442.755 1118.63,422.422 1111,401.5C 1108.85,388.936 1108.02,376.269 1108.5,363.5 Z"/></g>
<g><path style="opacity:1" fill="#ecde78" d="M 1342.5,322.5 C 1347.66,389.847 1328.83,449.513 1286,501.5C 1274.88,510.957 1264.71,521.457 1255.5,533C 1251.58,535.771 1247.58,538.271 1243.5,540.5C 1253.44,531.063 1263.27,521.396 1273,511.5C 1321.36,458.047 1344.53,395.047 1342.5,322.5 Z"/></g>
<g><path style="opacity:1" fill="#2c291e" d="M 828.5,385.5 C 828.785,387.288 828.452,388.955 827.5,390.5C 826.571,389.311 826.238,387.978 826.5,386.5C 826.18,383.102 826.513,379.768 827.5,376.5C 828.484,379.428 828.817,382.428 828.5,385.5 Z"/></g>
<g><path style="opacity:0.984" fill="#918644" d="M 828.5,385.5 C 828.817,382.428 828.484,379.428 827.5,376.5C 826.513,379.768 826.18,383.102 826.5,386.5C 825.518,383.038 825.185,379.371 825.5,375.5C 826.833,375.5 828.167,375.5 829.5,375.5C 829.813,379.042 829.479,382.375 828.5,385.5 Z"/></g>
<g><path style="opacity:1" fill="#393623" d="M 1347.5,381.5 C 1348.68,381.281 1349.68,381.614 1350.5,382.5C 1347.16,394.849 1343.83,407.182 1340.5,419.5C 1339.5,419.5 1338.5,419.5 1337.5,419.5C 1340.64,406.751 1343.97,394.084 1347.5,381.5 Z"/></g>
<g><path style="opacity:1" fill="#fef9de" d="M 1119.5,382.5 C 1120.75,382.577 1121.58,383.244 1122,384.5C 1123.34,389.189 1124.34,393.855 1125,398.5C 1122.48,393.426 1120.64,388.093 1119.5,382.5 Z"/></g>
<g><path style="opacity:1" fill="#fef9dc" d="M 1141.5,392.5 C 1142.5,392.5 1143.5,392.5 1144.5,392.5C 1144.57,397.076 1146.57,400.576 1150.5,403C 1144.95,401.936 1141.95,398.436 1141.5,392.5 Z"/></g>
<g><path style="opacity:1" fill="#353222" d="M 827.5,393.5 C 828.5,393.5 829.5,393.5 830.5,393.5C 835.29,423.074 847.456,449.074 867,471.5C 867.749,472.635 867.583,473.635 866.5,474.5C 854.97,463.793 846.136,451.126 840,436.5C 834.122,422.652 829.955,408.319 827.5,393.5 Z"/></g>
<g><path style="opacity:1" fill="#49442a" d="M 1353.5,399.5 C 1356.83,399.5 1358.5,401.167 1358.5,404.5C 1353.58,405.585 1351.91,403.918 1353.5,399.5 Z"/></g>
<g><path style="opacity:1" fill="#e2dbae" d="M 857.5,307.5 C 857.171,322.343 857.504,337.01 858.5,351.5C 857.864,360.69 858.697,369.69 861,378.5C 861.501,385.516 862.168,392.516 863,399.5C 866.93,408.877 870.097,418.544 872.5,428.5C 871.5,428.5 870.5,428.5 869.5,428.5C 869.261,425.143 867.927,422.476 865.5,420.5C 866.043,420.44 866.376,420.107 866.5,419.5C 864.335,411.506 862.168,403.506 860,395.5C 856.803,366.073 855.969,336.74 857.5,307.5 Z"/></g>
<g><path style="opacity:1" fill="#3d3b33" d="M 1303.5,299.5 C 1263.57,305.984 1223.57,312.151 1183.5,318C 1167.8,322.807 1151.8,326.474 1135.5,329C 1131.71,330.393 1128.05,332.059 1124.5,334C 1112.3,342.675 1112.64,351.008 1125.5,359C 1145.72,368.275 1166.05,377.275 1186.5,386C 1214.47,399.311 1241.14,414.645 1266.5,432C 1272.97,436.237 1279.63,436.57 1286.5,433C 1295.05,423.4 1300.55,412.233 1303,399.5C 1307.31,378.279 1310.97,356.945 1314,335.5C 1314.68,328.139 1314.52,320.805 1313.5,313.5C 1315.74,314.587 1317.07,316.42 1317.5,319C 1315.05,352.88 1308.88,386.046 1299,418.5C 1295.78,424.437 1291.95,429.937 1287.5,435C 1281.14,438.272 1274.81,438.272 1268.5,435C 1223.13,405.646 1175.13,380.98 1124.5,361C 1118.43,357.618 1114.76,352.618 1113.5,346C 1113.33,342.871 1114.16,340.037 1116,337.5C 1130.1,327.34 1145.94,321.84 1163.5,321C 1173.52,318.331 1183.52,315.664 1193.5,313C 1230.29,308.318 1266.96,302.818 1303.5,296.5C 1303.5,297.5 1303.5,298.5 1303.5,299.5 Z"/></g>
<g><path style="opacity:1" fill="#fef9db" d="M 1205.5,376.5 C 1213.34,379.172 1221.01,382.339 1228.5,386C 1221.08,384.31 1213.75,381.976 1206.5,379C 1205.75,378.329 1205.41,377.496 1205.5,376.5 Z"/></g>
<g><path style="opacity:1" fill="#fef9d9" d="M 1251.5,371.5 C 1257.18,373.226 1262.85,375.06 1268.5,377C 1264.09,377.151 1259.75,376.484 1255.5,375C 1253.46,374.502 1252.12,373.335 1251.5,371.5 Z"/></g>
<g><path style="opacity:1" fill="#fef9d9" d="M 1178.5,364.5 C 1186.71,364.269 1194.71,366.102 1202.5,370C 1194.47,368.493 1186.47,366.66 1178.5,364.5 Z"/></g>
<g><path style="opacity:1" fill="#fef6c9" d="M 1203.5,353.5 C 1207.8,354.728 1212.13,355.894 1216.5,357C 1212.34,357.813 1208.34,357.313 1204.5,355.5C 1203.7,355.043 1203.37,354.376 1203.5,353.5 Z"/></g>
<g><path style="opacity:1" fill="#fefae3" d="M 1148.5,353.5 C 1151.77,354.758 1155.11,355.925 1158.5,357C 1155.41,357.652 1152.41,357.318 1149.5,356C 1148.75,355.329 1148.41,354.496 1148.5,353.5 Z"/></g>
<g><path style="opacity:1" fill="#fefae4" d="M 1228.5,352.5 C 1228.56,351.957 1228.89,351.624 1229.5,351.5C 1232.2,353.347 1235.2,354.513 1238.5,355C 1234.58,356.139 1231.25,355.305 1228.5,352.5 Z"/></g>
<g><path style="opacity:1" fill="#fef8da" d="M 1170.5,349.5 C 1175.07,348.165 1179.74,348.332 1184.5,350C 1179.78,350.717 1175.11,350.55 1170.5,349.5 Z"/></g>
<g><path style="opacity:1" fill="#fef7d5" d="M 1130.5,343.5 C 1136.94,343.463 1143.28,344.296 1149.5,346C 1143.15,345.46 1136.81,345.627 1130.5,346.5C 1130.5,345.5 1130.5,344.5 1130.5,343.5 Z"/></g>
<g><path style="opacity:1" fill="#fef6ce" d="M 1146.5,335.5 C 1153.18,336.135 1159.85,336.968 1166.5,338C 1160.83,338.667 1155.17,338.667 1149.5,338C 1147.88,337.764 1146.88,336.931 1146.5,335.5 Z"/></g>
<g><path style="opacity:1" fill="#fefae2" d="M 1198.5,332.5 C 1202.05,333.959 1205.71,335.126 1209.5,336C 1206.83,336.667 1204.17,336.667 1201.5,336C 1199.57,335.578 1198.57,334.411 1198.5,332.5 Z"/></g>
<g><path style="opacity:1" fill="#fefae8" d="M 1185.5,328.5 C 1190.22,328.225 1190.55,329.059 1186.5,331C 1174.94,333.203 1174.61,332.369 1185.5,328.5 Z"/></g>
<g><path style="opacity:1" fill="#fefbe6" d="M 1236.5,326.5 C 1240.82,327.035 1245.15,327.535 1249.5,328C 1247.33,328.167 1245.17,328.333 1243,328.5C 1240.39,328.467 1238.22,327.8 1236.5,326.5 Z"/></g>
<g><path style="opacity:1" fill="#2f2915" d="M 1270.5,408.5 C 1267.94,408.802 1265.61,408.468 1263.5,407.5C 1271.95,407.738 1279.45,405.072 1286,399.5C 1287.26,399.85 1287.59,400.517 1287,401.5C 1282.14,405.348 1276.64,407.681 1270.5,408.5 Z"/></g>
<g><path style="opacity:1" fill="#948842" d="M 1263.5,407.5 C 1265.61,408.468 1267.94,408.802 1270.5,408.5C 1267.98,409.8 1265.31,409.8 1262.5,408.5C 1262.62,407.893 1262.96,407.56 1263.5,407.5 Z"/></g>
<g><path style="opacity:0.164" fill="#f4e373" d="M 1361.5,229.5 C 1371.78,253.694 1377.94,279.027 1380,305.5C 1386.11,412.306 1347.94,499.139 1265.5,566C 1249.17,578.171 1231.84,588.838 1213.5,598C 1207.66,600.67 1201.66,602.836 1195.5,604.5C 1220.8,589.713 1245.46,573.879 1269.5,557C 1276,550.5 1282.5,544 1289,537.5C 1323.65,500.577 1349.98,458.244 1368,410.5C 1370.49,395.389 1373.49,380.389 1377,365.5C 1378.02,358.522 1378.85,351.522 1379.5,344.5C 1376.85,305.605 1370.85,267.271 1361.5,229.5 Z"/></g>
<g><path style="opacity:1" fill="#fefae0" d="M 1171.5,405.5 C 1180.61,410.044 1189.61,414.877 1198.5,420C 1197.5,420.667 1196.5,420.667 1195.5,420C 1188.45,415.806 1181.11,412.139 1173.5,409C 1172.18,408.184 1171.51,407.017 1171.5,405.5 Z"/></g>
<g><path style="opacity:1" fill="#39331a" d="M 1286.5,412.5 C 1287.24,412.369 1287.91,412.536 1288.5,413C 1285.78,417.092 1282.11,419.426 1277.5,420C 1280.69,417.636 1283.69,415.136 1286.5,412.5 Z"/></g>
<g><path style="opacity:1" fill="#353222" d="M 1346.5,415.5 C 1347.68,415.281 1348.68,415.614 1349.5,416.5C 1345.57,429.03 1339.57,440.363 1331.5,450.5C 1331.17,450.167 1330.83,449.833 1330.5,449.5C 1334.74,440.676 1339.24,432.01 1344,423.5C 1344.94,420.846 1345.77,418.179 1346.5,415.5 Z"/></g>
<g><path style="opacity:1" fill="#312f20" d="M 842.5,421.5 C 843.675,421.281 844.675,421.614 845.5,422.5C 846.833,425.5 848.167,428.5 849.5,431.5C 849,431.833 848.5,432.167 848,432.5C 845.115,429.397 843.282,425.73 842.5,421.5 Z"/></g>
<g><path style="opacity:1" fill="#fefae3" d="M 1134.5,416.5 C 1137.37,419.233 1138.87,422.566 1139,426.5C 1136.25,423.744 1134.75,420.411 1134.5,416.5 Z"/></g>
<g><path style="opacity:1" fill="#fef9db" d="M 1155.5,421.5 C 1159.3,424.796 1162.96,428.296 1166.5,432C 1165.5,432.667 1164.5,432.667 1163.5,432C 1159.83,429.172 1157.16,425.672 1155.5,421.5 Z"/></g>
<g><path style="opacity:1" fill="#fef9df" d="M 1191.5,429.5 C 1196.35,431.355 1200.68,434.021 1204.5,437.5C 1204.17,437.833 1203.83,438.167 1203.5,438.5C 1200.16,435.829 1196.5,433.663 1192.5,432C 1191.75,431.329 1191.41,430.496 1191.5,429.5 Z"/></g>
<g><path style="opacity:1" fill="#fefae1" d="M 1147.5,438.5 C 1148.5,438.5 1149.5,438.5 1150.5,438.5C 1150.76,456.975 1149.76,456.975 1147.5,438.5 Z"/></g>
<g><path style="opacity:1" fill="#fefae4" d="M 1199.5,448.5 C 1200.5,448.5 1201.5,448.5 1202.5,448.5C 1202.84,451.786 1203.67,454.786 1205,457.5C 1202.14,455.111 1200.31,452.111 1199.5,448.5 Z"/></g>
<g><path style="opacity:1" fill="#fefae5" d="M 1175.5,451.5 C 1176.19,450.226 1177.02,450.226 1178,451.5C 1179.29,453.055 1179.96,454.721 1180,456.5C 1178.26,454.937 1176.76,453.27 1175.5,451.5 Z"/></g>
<g><path style="opacity:1" fill="#7c7336" d="M 1254.5,455.5 C 1255.75,456.334 1256.41,457.667 1256.5,459.5C 1256.17,460.833 1255.83,462.167 1255.5,463.5C 1254.52,460.914 1254.19,458.247 1254.5,455.5 Z"/></g>
<g><path style="opacity:1" fill="#f0e6ab" d="M 882.5,455.5 C 891.319,466.469 899.652,477.803 907.5,489.5C 907.5,490.833 907.5,492.167 907.5,493.5C 902.531,487.688 897.697,481.688 893,475.5C 890.254,468.337 886.754,461.671 882.5,455.5 Z"/></g>
<g><path style="opacity:1" fill="#3e3a1e" d="M 1252.5,465.5 C 1254.23,465.843 1254.73,466.843 1254,468.5C 1251.33,472.5 1248.67,476.5 1246,480.5C 1245.33,479.5 1245.33,478.5 1246,477.5C 1248.95,473.925 1251.12,469.925 1252.5,465.5 Z"/></g>
<g><path style="opacity:1" fill="#908440" d="M 1161.5,499.5 C 1161.17,499.5 1160.83,499.5 1160.5,499.5C 1159.23,495.215 1159.23,490.881 1160.5,486.5C 1161.49,490.783 1161.83,495.116 1161.5,499.5 Z"/></g>
<g><path style="opacity:1" fill="#322b14" d="M 1216.5,493.5 C 1218.03,493.517 1218.53,494.184 1218,495.5C 1215.09,499.171 1211.59,501.671 1207.5,503C 1210.7,499.964 1213.7,496.797 1216.5,493.5 Z"/></g>
<g><path style="opacity:1" fill="#373528" d="M 884.5,349.5 C 915.488,348.706 946.155,351.54 976.5,358C 1000.21,359.354 1023.55,357.021 1046.5,351C 1053.17,350.333 1059.83,350.333 1066.5,351C 1072.21,356.747 1073.05,363.247 1069,370.5C 1056.81,387.709 1045.81,405.709 1036,424.5C 1031.94,434.011 1028.27,443.678 1025,453.5C 1022,472.835 1016,491.168 1007,508.5C 1003.16,513.003 998.326,515.837 992.5,517C 983.011,518.104 973.677,517.438 964.5,515C 933.744,496.578 910.244,471.412 894,439.5C 884.714,422.971 877.381,405.638 872,387.5C 870.669,379.536 870.335,371.536 871,363.5C 873.687,356.981 878.187,352.314 884.5,349.5 Z"/></g>
<g><path style="opacity:1" fill="#f9e874" d="M 887.5,351.5 C 901.863,351.23 916.196,351.73 930.5,353C 958.487,359.833 986.821,362.167 1015.5,360C 1029.2,356.927 1043.03,354.761 1057,353.5C 1069.6,353.397 1072.94,358.73 1067,369.5C 1050.67,390.487 1037.67,413.487 1028,438.5C 1023.4,455.629 1018.4,472.629 1013,489.5C 1010.42,498.493 1005.92,506.327 999.5,513C 985.419,518.266 971.752,517.266 958.5,510C 926.22,486.381 902.053,456.214 886,419.5C 881.067,407.035 876.734,394.368 873,381.5C 869.088,366.995 873.921,356.995 887.5,351.5 Z"/></g>
<g><path style="opacity:1" fill="#3d371c" d="M 1006.5,483.5 C 1007.68,483.281 1008.68,483.614 1009.5,484.5C 1005.9,492.626 999.901,497.459 991.5,499C 999.415,496.586 1004.41,491.419 1006.5,483.5 Z"/></g>
<g><path style="opacity:1" fill="#fefbea" d="M 989.5,467.5 C 990.675,467.281 991.675,467.614 992.5,468.5C 989.804,469.851 987.47,471.684 985.5,474C 984.833,474.667 984.167,474.667 983.5,474C 985.706,471.963 987.706,469.797 989.5,467.5 Z"/></g>
<g><path style="opacity:1" fill="#fefae1" d="M 965.5,432.5 C 968.124,434.198 968.124,436.031 965.5,438C 961.211,440.877 956.544,441.877 951.5,441C 955.22,439.987 958.886,438.82 962.5,437.5C 963.952,436.06 964.952,434.394 965.5,432.5 Z"/></g>
<g><path style="opacity:1" fill="#fefbe7" d="M 1017.5,432.5 C 1018.5,432.47 1019.16,432.97 1019.5,434C 1016.3,440.572 1013.8,447.405 1012,454.5C 1011.33,451.833 1011.33,449.167 1012,446.5C 1014.13,441.928 1015.97,437.261 1017.5,432.5 Z"/></g>
<g><path style="opacity:1" fill="#fefae6" d="M 1006.5,425.5 C 1007.38,425.369 1008.04,425.702 1008.5,426.5C 1005.47,430.361 1002.64,434.361 1000,438.5C 1001.07,433.698 1003.23,429.364 1006.5,425.5 Z"/></g>
<g><path style="opacity:1" fill="#423d1e" d="M 890.5,394.5 C 895.791,414.764 903.624,434.097 914,452.5C 917.321,457.486 921.321,461.82 926,465.5C 926.688,466.332 926.521,466.998 925.5,467.5C 920.856,464.69 917.023,461.023 914,456.5C 902.521,437.21 894.688,416.544 890.5,394.5 Z"/></g>
<g><path style="opacity:1" fill="#fefae4" d="M 989.5,413.5 C 990.552,413.351 991.552,413.517 992.5,414C 990.938,416.115 988.938,417.115 986.5,417C 987.71,415.961 988.71,414.794 989.5,413.5 Z"/></g>
<g><path style="opacity:1" fill="#fefbe4" d="M 965.5,406.5 C 966.978,406.238 968.311,406.571 969.5,407.5C 965.855,409.994 961.855,411.161 957.5,411C 960.391,409.726 963.058,408.226 965.5,406.5 Z"/></g>
<g><path style="opacity:1" fill="#fefae0" d="M 1024.5,393.5 C 1025.68,393.281 1026.68,393.614 1027.5,394.5C 1023.43,397.404 1020.26,401.071 1018,405.5C 1017.33,404.5 1017.33,403.5 1018,402.5C 1020.39,399.621 1022.55,396.621 1024.5,393.5 Z"/></g>
<g><path style="opacity:1" fill="#fefae3" d="M 1002.5,389.5 C 1003.68,389.281 1004.68,389.614 1005.5,390.5C 1002.55,392.115 999.884,394.115 997.5,396.5C 997.167,396.167 996.833,395.833 996.5,395.5C 998.854,393.812 1000.85,391.812 1002.5,389.5 Z"/></g>
<g><path style="opacity:1" fill="#fefae2" d="M 978.5,383.5 C 979.5,383.5 980.5,383.5 981.5,383.5C 981.5,384.5 981.5,385.5 981.5,386.5C 978.824,387.008 976.157,387.175 973.5,387C 975.584,386.303 977.251,385.136 978.5,383.5 Z"/></g>
<g><path style="opacity:1" fill="#fefae3" d="M 1043.5,368.5 C 1044.98,368.238 1046.31,368.571 1047.5,369.5C 1041.14,372.789 1034.47,374.955 1027.5,376C 1033.15,373.961 1038.48,371.461 1043.5,368.5 Z"/></g>
<g><path style="opacity:1" fill="#635b2d" d="M 877.5,371.5 C 879.62,372.85 879.453,374.517 877,376.5C 876.616,374.803 876.782,373.137 877.5,371.5 Z"/></g>
<g><path style="opacity:1" fill="#fef9de" d="M 998.5,372.5 C 1000.99,372.298 1003.32,372.798 1005.5,374C 1002.37,374.393 999.367,375.226 996.5,376.5C 995.833,376.333 995.167,376.167 994.5,376C 996.093,375.051 997.426,373.885 998.5,372.5 Z"/></g>
<g><path style="opacity:1" fill="#fefade" d="M 958.5,373.5 C 959.978,373.238 961.311,373.571 962.5,374.5C 958.431,376.768 954.098,377.601 949.5,377C 952.718,376.1 955.718,374.933 958.5,373.5 Z"/></g>
<g><path style="opacity:1" fill="#4c4623" d="M 895.5,371.5 C 896.777,372.694 897.444,374.36 897.5,376.5C 897.333,378.167 897.167,379.833 897,381.5C 895.684,378.312 895.184,374.978 895.5,371.5 Z"/></g>
<g><path style="opacity:1" fill="#38331a" d="M 893.5,361.5 C 901.616,361.061 909.616,361.728 917.5,363.5C 909.221,363.6 900.888,363.766 892.5,364C 891.034,364.635 889.7,365.469 888.5,366.5C 888.167,366.167 887.833,365.833 887.5,365.5C 889.565,364.143 891.565,362.81 893.5,361.5 Z"/></g>
<g><path style="opacity:1" fill="#fcf4b8" d="M 909.5,495.5 C 921.527,507.194 933.527,518.861 945.5,530.5C 944.167,530.5 942.833,530.5 941.5,530.5C 940.457,527.944 938.79,525.777 936.5,524C 925.557,516.227 916.557,506.727 909.5,495.5 Z"/></g>
<g><path style="opacity:1" fill="#3e391d" d="M 942.5,478.5 C 951.339,492.833 963.672,502.999 979.5,509C 989.338,511.569 997.504,509.069 1004,501.5C 1004.67,502.5 1004.67,503.5 1004,504.5C 994.752,511.881 984.585,513.381 973.5,509C 961.987,503.653 952.487,495.82 945,485.5C 943.589,483.35 942.755,481.016 942.5,478.5 Z"/></g>
<g><path style="opacity:1" fill="#393218" d="M 1160.5,499.5 C 1160.83,499.5 1161.17,499.5 1161.5,499.5C 1162.23,504.954 1164.56,509.62 1168.5,513.5C 1165.56,513.456 1163.39,511.789 1162,508.5C 1161.05,505.568 1160.55,502.568 1160.5,499.5 Z"/></g>
<g><path style="opacity:1" fill="#3b351a" d="M 1240.5,484.5 C 1242.03,484.517 1242.53,485.184 1242,486.5C 1221.51,508.341 1198.18,526.341 1172,540.5C 1171.5,540.167 1171,539.833 1170.5,539.5C 1184.64,530.53 1198.64,521.363 1212.5,512C 1222.34,503.328 1231.67,494.161 1240.5,484.5 Z"/></g>
<g><path style="opacity:1" fill="#363322" d="M 1133.5,611.5 C 1129.77,611.823 1126.11,611.489 1122.5,610.5C 1125.98,609.833 1129.31,609.166 1132.5,608.5C 1154.73,607.716 1175.73,602.216 1195.5,592C 1225.97,575.213 1253.3,554.213 1277.5,529C 1278.45,528.517 1279.45,528.351 1280.5,528.5C 1280.65,529.552 1280.48,530.552 1280,531.5C 1252.4,559.781 1220.9,582.615 1185.5,600C 1168.79,606.678 1151.45,610.512 1133.5,611.5 Z"/></g>
<g><path style="opacity:0.999" fill="#fdf09c" d="M 941.5,530.5 C 942.833,530.5 944.167,530.5 945.5,530.5C 953.243,537.749 961.909,543.582 971.5,548C 973.141,549.129 974.141,550.629 974.5,552.5C 961.837,547.476 950.837,540.143 941.5,530.5 Z"/></g>
<g><path style="opacity:1" fill="#ece6c7" d="M 907.5,489.5 C 917.271,499.772 927.271,509.938 937.5,520C 961.89,541.199 988.89,558.366 1018.5,571.5C 1016.5,571.167 1014.5,570.833 1012.5,570.5C 1011.83,570.167 1011.17,569.833 1010.5,569.5C 1001.72,564.11 992.383,559.776 982.5,556.5C 979.86,555.18 977.193,553.847 974.5,552.5C 974.141,550.629 973.141,549.129 971.5,548C 961.909,543.582 953.243,537.749 945.5,530.5C 933.527,518.861 921.527,507.194 909.5,495.5C 908.5,495.167 907.833,494.5 907.5,493.5C 907.5,492.167 907.5,490.833 907.5,489.5 Z"/></g>
<g><path style="opacity:1" fill="#e5d98b" d="M 1227.5,548.5 C 1216.79,558.025 1204.46,564.691 1190.5,568.5C 1195.49,564.097 1201.33,561.097 1208,559.5C 1212.68,555.274 1217.85,551.774 1223.5,549C 1224.95,547.702 1226.28,547.535 1227.5,548.5 Z"/></g>
<g><path style="opacity:1" fill="#f6efc1" d="M 1241.5,536.5 C 1237.62,541.437 1232.95,545.437 1227.5,548.5C 1226.28,547.535 1224.95,547.702 1223.5,549C 1217.85,551.774 1212.68,555.274 1208,559.5C 1201.33,561.097 1195.49,564.097 1190.5,568.5C 1186.47,569.285 1182.47,570.285 1178.5,571.5C 1175.5,572.167 1172.5,572.833 1169.5,573.5C 1182.84,568.837 1195.84,563.003 1208.5,556C 1219.56,549.477 1230.56,542.977 1241.5,536.5 Z"/></g>
<g><path style="opacity:1" fill="#3d3924" d="M 954.5,558.5 C 962.356,557.687 965.689,561.02 964.5,568.5C 961.792,570.436 958.792,570.936 955.5,570C 953.99,568.649 952.99,566.982 952.5,565C 953.609,562.953 954.276,560.787 954.5,558.5 Z"/></g>
<g><path style="opacity:1" fill="#fdf1a6" d="M 982.5,556.5 C 992.383,559.776 1001.72,564.11 1010.5,569.5C 999.84,567.834 990.507,563.501 982.5,556.5 Z"/></g>
<g><path style="opacity:1" fill="#ebda6d" d="M 961.5,564.5 C 960.448,566.256 958.781,566.923 956.5,566.5C 956.5,565.5 956.5,564.5 956.5,563.5C 958.455,562.07 960.121,562.403 961.5,564.5 Z"/></g>
<g><path style="opacity:1" fill="#3a3623" d="M 971.5,563.5 C 977.496,562.333 979.996,564.666 979,570.5C 972.974,572.314 970.474,569.981 971.5,563.5 Z"/></g>
<g><path style="opacity:1" fill="#897f40" d="M 956.5,563.5 C 956.5,564.5 956.5,565.5 956.5,566.5C 958.781,566.923 960.448,566.256 961.5,564.5C 962.404,565.209 962.737,566.209 962.5,567.5C 960.167,567.5 957.833,567.5 955.5,567.5C 955.232,565.901 955.566,564.568 956.5,563.5 Z"/></g>
<g><path style="opacity:1" fill="#353122" d="M 1155.5,617.5 C 1154.83,617.5 1154.17,617.5 1153.5,617.5C 1126.25,620.356 1098.92,621.189 1071.5,620C 1022.82,615.253 977.822,599.919 936.5,574C 934.561,573.092 933.561,571.592 933.5,569.5C 949.248,577.875 965.248,586.042 981.5,594C 1027.66,612.915 1075.66,620.581 1125.5,617C 1135.79,614.884 1146.12,614.051 1156.5,614.5C 1155.87,615.417 1155.54,616.417 1155.5,617.5 Z"/></g>
<g><path style="opacity:1" fill="#38352e" d="M 1078.5,368.5 C 1091.28,368.101 1099.45,374.101 1103,386.5C 1105.25,401.467 1107.25,416.467 1109,431.5C 1116.87,457.121 1125.54,482.454 1135,507.5C 1138.49,521.805 1141.83,536.138 1145,550.5C 1145.67,556.167 1145.67,561.833 1145,567.5C 1144.07,570.102 1142.23,571.602 1139.5,572C 1116.58,574.796 1093.92,573.463 1071.5,568C 1051.76,562.53 1032.42,555.863 1013.5,548C 1004.55,540.927 1001.05,531.761 1003,520.5C 1009.94,508.567 1017.27,496.9 1025,485.5C 1034.7,461.038 1042.7,436.038 1049,410.5C 1055.83,398.166 1063.16,386.166 1071,374.5C 1073.48,372.361 1075.98,370.361 1078.5,368.5 Z"/></g>
<g><path style="opacity:1" fill="#f7e674" d="M 1079.5,371.5 C 1089.46,370.896 1096.29,375.229 1100,384.5C 1102.29,401.876 1104.96,419.209 1108,436.5C 1116.33,460.167 1124.67,483.833 1133,507.5C 1138.48,526.882 1142.14,546.548 1144,566.5C 1142.79,568.049 1141.29,569.215 1139.5,570C 1113.01,572.576 1087.01,570.243 1061.5,563C 1045.54,558.124 1029.87,552.458 1014.5,546C 1005.9,538.987 1003.07,530.154 1006,519.5C 1010.16,511.005 1015.5,503.339 1022,496.5C 1034.65,469.552 1044.32,441.552 1051,412.5C 1057.42,401.334 1064.08,390.334 1071,379.5C 1073.73,376.601 1076.56,373.934 1079.5,371.5 Z"/></g>
<g><path style="opacity:1" fill="#3b361c" d="M 1094.5,556.5 C 1104.48,560.109 1114.82,562.109 1125.5,562.5C 1115.24,563.725 1105.24,562.559 1095.5,559C 1094.75,558.329 1094.41,557.496 1094.5,556.5 Z"/></g>
<g><path style="opacity:1" fill="#423b1e" d="M 1131.5,553.5 C 1133.29,553.215 1134.95,553.548 1136.5,554.5C 1132.27,556.143 1127.94,556.977 1123.5,557C 1126.37,556.058 1129.04,554.891 1131.5,553.5 Z"/></g>
<g><path style="opacity:1" fill="#363019" d="M 1132.5,537.5 C 1133.5,537.414 1134.33,537.748 1135,538.5C 1135.67,541.167 1135.67,543.833 1135,546.5C 1134.61,543.348 1133.77,540.348 1132.5,537.5 Z"/></g>
<g><path style="opacity:1" fill="#443f21" d="M 1027.5,531.5 C 1032.02,534.505 1036.68,537.338 1041.5,540C 1046.17,541 1050.83,542 1055.5,543C 1046.15,543.328 1037.48,540.994 1029.5,536C 1027.96,534.89 1027.3,533.39 1027.5,531.5 Z"/></g>
<g><path style="opacity:1" fill="#fefade" d="M 1094.5,518.5 C 1095.33,524.217 1096.33,530.05 1097.5,536C 1097.61,537.662 1096.95,538.829 1095.5,539.5C 1094.5,532.532 1094.17,525.532 1094.5,518.5 Z"/></g>
<g><path style="opacity:1" fill="#3f3a1e" d="M 1023.5,514.5 C 1024.38,514.369 1025.04,514.702 1025.5,515.5C 1023.85,517.65 1022.02,519.65 1020,521.5C 1019.1,523.804 1018.27,526.138 1017.5,528.5C 1016.39,527.277 1016.22,525.944 1017,524.5C 1018.43,520.626 1020.6,517.293 1023.5,514.5 Z"/></g>
<g><path style="opacity:1" fill="#fefade" d="M 1069.5,499.5 C 1070.59,499.62 1071.25,500.287 1071.5,501.5C 1070.31,506.273 1068.81,510.94 1067,515.5C 1067.49,510.166 1068.32,504.833 1069.5,499.5 Z"/></g>
<g><path style="opacity:1" fill="#fef9dd" d="M 1107.5,497.5 C 1108.5,497.414 1109.33,497.748 1110,498.5C 1110.71,500.081 1111.54,501.581 1112.5,503C 1109.4,502.73 1107.74,500.897 1107.5,497.5 Z"/></g>
<g><path style="opacity:1" fill="#fef7d0" d="M 1086.5,494.5 C 1088.38,496.795 1088.88,499.462 1088,502.5C 1086.75,499.986 1086.25,497.32 1086.5,494.5 Z"/></g>
<g><path style="opacity:1" fill="#fefae1" d="M 1053.5,479.5 C 1054.24,479.369 1054.91,479.536 1055.5,480C 1053.35,482.469 1051.85,485.302 1051,488.5C 1050.13,485.007 1050.96,482.007 1053.5,479.5 Z"/></g>
<g><path style="opacity:1" fill="#fefcec" d="M 1090.5,471.5 C 1092.85,473.03 1093.01,475.03 1091,477.5C 1090.5,475.527 1090.34,473.527 1090.5,471.5 Z"/></g>
<g><path style="opacity:1" fill="#fef8d6" d="M 1072.5,459.5 C 1073.59,459.62 1074.25,460.287 1074.5,461.5C 1073.49,465.225 1072.32,468.892 1071,472.5C 1070.27,468.016 1070.77,463.682 1072.5,459.5 Z"/></g>
<g><path style="opacity:1" fill="#fefae4" d="M 1052.5,456.5 C 1053.5,456.47 1054.16,456.97 1054.5,458C 1052.89,462.054 1050.89,465.887 1048.5,469.5C 1048.17,469.167 1047.83,468.833 1047.5,468.5C 1049.74,464.697 1051.4,460.697 1052.5,456.5 Z"/></g>
<g><path style="opacity:1" fill="#fefae3" d="M 1087.5,447.5 C 1088.75,447.577 1089.58,448.244 1090,449.5C 1090.67,451.5 1090.67,453.5 1090,455.5C 1088.66,452.978 1087.83,450.311 1087.5,447.5 Z"/></g>
<g><path style="opacity:1" fill="#403b1e" d="M 1088.5,389.5 C 1090.98,391.12 1092.48,393.453 1093,396.5C 1095.47,416.651 1098.8,436.651 1103,456.5C 1105.54,466.314 1109.71,475.314 1115.5,483.5C 1114.35,484.731 1113.18,484.731 1112,483.5C 1106.84,474.693 1102.84,465.36 1100,455.5C 1097.33,437.499 1094.67,419.499 1092,401.5C 1091.33,397.329 1090.16,393.329 1088.5,389.5 Z"/></g>
<g><path style="opacity:1" fill="#fefae2" d="M 1067.5,430.5 C 1068.38,430.369 1069.04,430.702 1069.5,431.5C 1067.73,434.715 1066.23,438.048 1065,441.5C 1064.49,437.538 1065.32,433.871 1067.5,430.5 Z"/></g>
<g><path style="opacity:1" fill="#fefae3" d="M 1082.5,417.5 C 1083.59,417.62 1084.25,418.287 1084.5,419.5C 1083.77,422.197 1082.93,424.864 1082,427.5C 1081.34,424.112 1081.51,420.779 1082.5,417.5 Z"/></g>
<g><path style="opacity:1" fill="#fefae2" d="M 1075.5,397.5 C 1076.68,397.281 1077.68,397.614 1078.5,398.5C 1075.2,404.299 1071.7,409.966 1068,415.5C 1070.17,409.475 1072.67,403.475 1075.5,397.5 Z"/></g>
<g><path style="opacity:1" fill="#343121" d="M 970.5,576.5 C 971.5,576.5 972.5,576.5 973.5,576.5C 973.5,577.5 973.5,578.5 973.5,579.5C 972.5,579.5 971.5,579.5 970.5,579.5C 970.5,578.5 970.5,577.5 970.5,576.5 Z"/></g>
<g><path style="opacity:0.996" fill="#e8dd95" d="M 1012.5,570.5 C 1014.5,570.833 1016.5,571.167 1018.5,571.5C 1029.91,575.192 1041.24,578.858 1052.5,582.5C 1045.06,582.378 1038.06,580.544 1031.5,577C 1026.77,576.317 1022.1,575.317 1017.5,574C 1015.42,573.303 1013.75,572.136 1012.5,570.5 Z"/></g>
<g><path style="opacity:1" fill="#f3eecd" d="M 1166.5,574.5 C 1158.8,577.26 1150.8,579.427 1142.5,581C 1125.22,583.228 1107.89,584.728 1090.5,585.5C 1079.11,585.019 1068.11,583.019 1057.5,579.5C 1065.58,579.51 1073.58,580.344 1081.5,582C 1100.88,582.751 1120.21,582.085 1139.5,580C 1148.35,577.37 1157.35,575.537 1166.5,574.5 Z"/></g>
<g><path style="opacity:1" fill="#e6dc9a" d="M 1178.5,571.5 C 1150.47,584.456 1121.14,589.123 1090.5,585.5C 1107.89,584.728 1125.22,583.228 1142.5,581C 1150.8,579.427 1158.8,577.26 1166.5,574.5C 1167.61,574.443 1168.61,574.11 1169.5,573.5C 1172.5,572.833 1175.5,572.167 1178.5,571.5 Z"/></g>
<g><path style="opacity:0.98" fill="#998d48" d="M 1132.5,608.5 C 1129.31,609.166 1125.98,609.833 1122.5,610.5C 1126.11,611.489 1129.77,611.823 1133.5,611.5C 1129.7,612.483 1125.7,612.817 1121.5,612.5C 1121.5,611.167 1121.5,609.833 1121.5,608.5C 1125.17,608.5 1128.83,608.5 1132.5,608.5 Z"/></g>
<g><path style="opacity:0.974" fill="#964031" d="M 576.5,737.5 C 589.173,736.135 601.173,738.302 612.5,744C 622.571,751.632 628.404,761.798 630,774.5C 630.667,788.5 630.667,802.5 630,816.5C 627.637,837.444 616.137,849.611 595.5,853C 577.297,856.374 561.797,851.541 549,838.5C 545.545,832.925 543.212,826.925 542,820.5C 540.468,806.537 540.134,792.537 541,778.5C 542.804,755.878 554.637,742.212 576.5,737.5 Z M 577.5,752.5 C 596.977,749.472 608.81,757.472 613,776.5C 613.911,790.88 613.578,805.214 612,819.5C 606.047,835.62 594.547,841.786 577.5,838C 567.118,834.952 560.951,828.119 559,817.5C 556.752,801.433 557.086,785.433 560,769.5C 563.109,760.889 568.943,755.222 577.5,752.5 Z"/></g>
<g><path style="opacity:0.974" fill="#964031" d="M 1448.5,737.5 C 1461.17,736.135 1473.17,738.302 1484.5,744C 1494.57,751.632 1500.4,761.798 1502,774.5C 1502.67,788.5 1502.67,802.5 1502,816.5C 1499.64,837.444 1488.14,849.611 1467.5,853C 1449.3,856.374 1433.8,851.541 1421,838.5C 1417.55,832.925 1415.21,826.925 1414,820.5C 1412.47,806.537 1412.13,792.537 1413,778.5C 1414.8,755.878 1426.64,742.212 1448.5,737.5 Z M 1449.5,752.5 C 1468.98,749.472 1480.81,757.472 1485,776.5C 1485.91,790.88 1485.58,805.214 1484,819.5C 1478.05,835.62 1466.55,841.786 1449.5,838C 1439.12,834.952 1432.95,828.119 1431,817.5C 1428.75,801.433 1429.09,785.433 1432,769.5C 1435.11,760.889 1440.94,755.222 1449.5,752.5 Z"/></g>
<g><path style="opacity:0.974" fill="#964031" d="M 1644.5,737.5 C 1657.17,736.135 1669.17,738.302 1680.5,744C 1690.57,751.632 1696.4,761.798 1698,774.5C 1698.67,788.5 1698.67,802.5 1698,816.5C 1695.64,837.444 1684.14,849.611 1663.5,853C 1645.3,856.374 1629.8,851.541 1617,838.5C 1613.55,832.925 1611.21,826.925 1610,820.5C 1608.47,806.537 1608.13,792.537 1609,778.5C 1610.8,755.878 1622.64,742.212 1644.5,737.5 Z M 1645.5,752.5 C 1664.98,749.472 1676.81,757.472 1681,776.5C 1681.91,790.88 1681.58,805.214 1680,819.5C 1674.05,835.62 1662.55,841.786 1645.5,838C 1635.12,834.952 1628.95,828.119 1627,817.5C 1624.75,801.433 1625.09,785.433 1628,769.5C 1631.11,760.889 1636.94,755.222 1645.5,752.5 Z"/></g>
<g><path style="opacity:0.972" fill="#964031" d="M 205.5,739.5 C 210.179,739.334 214.845,739.501 219.5,740C 220,740.5 220.5,741 221,741.5C 230.939,771.317 241.272,800.984 252,830.5C 262.333,800.833 272.667,771.167 283,741.5C 283.5,741 284,740.5 284.5,740C 289.419,739.198 294.252,739.365 299,740.5C 299.063,745.333 298.063,749.999 296,754.5C 284.692,786.759 273.192,818.926 261.5,851C 255.167,851.667 248.833,851.667 242.5,851C 242,850.5 241.5,850 241,849.5C 229.197,815.091 217.197,780.758 205,746.5C 204.297,744.071 204.463,741.738 205.5,739.5 Z"/></g>
<g><path style="opacity:0.945" fill="#963f31" d="M 318.5,739.5 C 323.762,739.195 328.928,739.529 334,740.5C 334.829,777.405 334.663,814.238 333.5,851C 331,851.167 328.5,851.333 326,851.5C 323.05,851.432 320.383,850.766 318,849.5C 317.18,812.792 317.346,776.125 318.5,739.5 Z"/></g>
<g><path style="opacity:0.997" fill="#954032" d="M 353.5,739.5 C 381.169,739.333 408.835,739.5 436.5,740C 437.629,744.079 437.796,748.245 437,752.5C 436.5,753 436,753.5 435.5,754C 424.839,754.5 414.172,754.667 403.5,754.5C 403.667,786.168 403.5,817.835 403,849.5C 400.617,850.766 397.95,851.432 395,851.5C 392.245,851.475 389.578,851.141 387,850.5C 386.5,818.502 386.333,786.502 386.5,754.5C 375.828,754.667 365.161,754.5 354.5,754C 352.162,749.396 351.829,744.562 353.5,739.5 Z"/></g>
<g><path style="opacity:0.997" fill="#954032" d="M 446.5,739.5 C 474.169,739.333 501.835,739.5 529.5,740C 530.629,744.079 530.796,748.245 530,752.5C 529.5,753 529,753.5 528.5,754C 517.839,754.5 507.172,754.667 496.5,754.5C 496.667,786.168 496.5,817.835 496,849.5C 493.617,850.766 490.95,851.432 488,851.5C 485.245,851.475 482.578,851.141 480,850.5C 479.5,818.502 479.333,786.502 479.5,754.5C 468.828,754.667 458.161,754.5 447.5,754C 445.162,749.396 444.829,744.562 446.5,739.5 Z"/></g>
<g><path style="opacity:0.961" fill="#964031" d="M 653.5,739.5 C 673.213,739.062 692.88,739.562 712.5,741C 731.538,747.896 739.038,761.396 735,781.5C 732.036,793.132 724.869,800.966 713.5,805C 722.033,819.371 730.366,833.871 738.5,848.5C 738.167,849.167 737.833,849.833 737.5,850.5C 732.533,851.662 727.533,851.829 722.5,851C 713.788,837.08 705.455,822.913 697.5,808.5C 688.19,807.502 678.857,807.168 669.5,807.5C 669.667,821.837 669.5,836.171 669,850.5C 666.422,851.141 663.755,851.475 661,851.5C 658.05,851.432 655.383,850.766 653,849.5C 652.186,812.804 652.352,776.137 653.5,739.5 Z M 669.5,753.5 C 680.505,753.333 691.505,753.5 702.5,754C 717.341,758.105 722.174,767.605 717,782.5C 714.708,786.788 711.208,789.622 706.5,791C 694.22,792.394 681.886,792.894 669.5,792.5C 669.5,779.5 669.5,766.5 669.5,753.5 Z"/></g>
<g><path style="opacity:0.945" fill="#963f31" d="M 758.5,739.5 C 763.762,739.195 768.928,739.529 774,740.5C 774.829,777.405 774.663,814.238 773.5,851C 771,851.167 768.5,851.333 766,851.5C 763.05,851.432 760.383,850.766 758,849.5C 757.18,812.792 757.346,776.125 758.5,739.5 Z"/></g>
<g><path style="opacity:0.97" fill="#964031" d="M 832.5,739.5 C 839.09,739.189 845.59,739.522 852,740.5C 865.277,774.056 878.277,807.722 891,841.5C 892.199,844.726 892.699,848.059 892.5,851.5C 887.456,851.827 882.456,851.494 877.5,850.5C 873.924,842.688 870.924,834.688 868.5,826.5C 851.163,826.333 833.83,826.5 816.5,827C 813.167,835 809.833,843 806.5,851C 801.581,851.802 796.748,851.635 792,850.5C 791.348,847.406 791.682,844.406 793,841.5C 806.077,807.432 819.243,773.432 832.5,739.5 Z M 841.5,757.5 C 848.723,774.966 855.723,792.632 862.5,810.5C 848.846,811.666 835.179,811.833 821.5,811C 828.467,793.264 835.134,775.431 841.5,757.5 Z"/></g>
<g><path style="opacity:0.97" fill="#964031" d="M 970.5,739.5 C 977.09,739.189 983.59,739.522 990,740.5C 1003.28,774.056 1016.28,807.722 1029,841.5C 1030.2,844.726 1030.7,848.059 1030.5,851.5C 1025.46,851.827 1020.46,851.494 1015.5,850.5C 1011.92,842.688 1008.92,834.688 1006.5,826.5C 989.163,826.333 971.83,826.5 954.5,827C 951.167,835 947.833,843 944.5,851C 939.581,851.802 934.748,851.635 930,850.5C 929.348,847.406 929.682,844.406 931,841.5C 944.077,807.432 957.243,773.432 970.5,739.5 Z M 979.5,757.5 C 986.723,774.966 993.723,792.632 1000.5,810.5C 986.846,811.666 973.179,811.833 959.5,811C 966.467,793.264 973.134,775.431 979.5,757.5 Z"/></g>
<g><path style="opacity:0.968" fill="#964031" d="M 1047.5,739.5 C 1052.18,739.334 1056.85,739.501 1061.5,740C 1079.71,766.91 1097.54,794.077 1115,821.5C 1115.33,794.5 1115.67,767.5 1116,740.5C 1120.78,739.198 1125.62,739.198 1130.5,740.5C 1131.83,777.167 1131.83,813.833 1130.5,850.5C 1125.87,851.662 1121.2,851.828 1116.5,851C 1098.63,824.757 1081.13,798.257 1064,771.5C 1063.67,797.5 1063.33,823.5 1063,849.5C 1062.5,850 1062,850.5 1061.5,851C 1056.8,851.828 1052.13,851.662 1047.5,850.5C 1046.18,813.512 1046.18,776.512 1047.5,739.5 Z"/></g>
<g><path style="opacity:0.964" fill="#964031" d="M 1158.5,739.5 C 1176.5,739.333 1194.5,739.5 1212.5,740C 1230.9,742.615 1241.4,753.115 1244,771.5C 1246.39,790.624 1245.73,809.624 1242,828.5C 1237.18,841.837 1227.68,849.337 1213.5,851C 1195.16,851.833 1176.82,851.666 1158.5,850.5C 1157.18,813.512 1157.18,776.512 1158.5,739.5 Z M 1174.5,753.5 C 1184.51,753.334 1194.51,753.5 1204.5,754C 1215.03,754.532 1222.2,759.699 1226,769.5C 1229.33,787.167 1229.33,804.833 1226,822.5C 1222.43,831.873 1215.6,836.707 1205.5,837C 1195.17,837.5 1184.84,837.666 1174.5,837.5C 1174.5,809.5 1174.5,781.5 1174.5,753.5 Z"/></g>
<g><path style="opacity:0.961" fill="#964031" d="M 1268.5,739.5 C 1288.21,739.062 1307.88,739.562 1327.5,741C 1346.54,747.896 1354.04,761.396 1350,781.5C 1347.04,793.132 1339.87,800.966 1328.5,805C 1337.03,819.371 1345.37,833.871 1353.5,848.5C 1353.17,849.167 1352.83,849.833 1352.5,850.5C 1347.53,851.662 1342.53,851.829 1337.5,851C 1328.79,837.08 1320.46,822.913 1312.5,808.5C 1303.19,807.502 1293.86,807.168 1284.5,807.5C 1284.67,821.837 1284.5,836.171 1284,850.5C 1281.42,851.141 1278.75,851.475 1276,851.5C 1273.05,851.432 1270.38,850.766 1268,849.5C 1267.19,812.804 1267.35,776.137 1268.5,739.5 Z M 1284.5,753.5 C 1295.51,753.333 1306.51,753.5 1317.5,754C 1332.34,758.105 1337.17,767.605 1332,782.5C 1329.71,786.788 1326.21,789.622 1321.5,791C 1309.22,792.394 1296.89,792.894 1284.5,792.5C 1284.5,779.5 1284.5,766.5 1284.5,753.5 Z"/></g>
<g><path style="opacity:0.945" fill="#963f31" d="M 1373.5,739.5 C 1378.76,739.195 1383.93,739.529 1389,740.5C 1389.83,777.405 1389.66,814.238 1388.5,851C 1386,851.167 1383.5,851.333 1381,851.5C 1378.05,851.432 1375.38,850.766 1373,849.5C 1372.18,812.792 1372.35,776.125 1373.5,739.5 Z"/></g>
<g><path style="opacity:0.958" fill="#963f31" d="M 1525.5,739.5 C 1530.76,739.195 1535.93,739.529 1541,740.5C 1541.5,772.832 1541.67,805.165 1541.5,837.5C 1560.41,837.174 1579.24,837.507 1598,838.5C 1598.8,842.755 1598.63,846.921 1597.5,851C 1573.49,851.833 1549.49,851.666 1525.5,850.5C 1524.17,813.5 1524.17,776.5 1525.5,739.5 Z"/></g>
<g><path style="opacity:0.961" fill="#964031" d="M 1798.5,739.5 C 1818.21,739.062 1837.88,739.562 1857.5,741C 1876.54,747.896 1884.04,761.396 1880,781.5C 1877.04,793.132 1869.87,800.966 1858.5,805C 1867.03,819.371 1875.37,833.871 1883.5,848.5C 1883.17,849.167 1882.83,849.833 1882.5,850.5C 1877.53,851.662 1872.53,851.829 1867.5,851C 1858.79,837.08 1850.46,822.913 1842.5,808.5C 1833.19,807.502 1823.86,807.168 1814.5,807.5C 1814.67,821.837 1814.5,836.171 1814,850.5C 1811.42,851.141 1808.75,851.475 1806,851.5C 1803.05,851.432 1800.38,850.766 1798,849.5C 1797.19,812.804 1797.35,776.137 1798.5,739.5 Z M 1814.5,753.5 C 1825.51,753.333 1836.51,753.5 1847.5,754C 1862.34,758.105 1867.17,767.605 1862,782.5C 1859.71,786.788 1856.21,789.622 1851.5,791C 1839.22,792.394 1826.89,792.894 1814.5,792.5C 1814.5,779.5 1814.5,766.5 1814.5,753.5 Z"/></g>
<g><path style="opacity:0.964" fill="#964031" d="M 1903.5,739.5 C 1921.5,739.333 1939.5,739.5 1957.5,740C 1975.9,742.615 1986.4,753.115 1989,771.5C 1991.39,790.624 1990.73,809.624 1987,828.5C 1982.18,841.837 1972.68,849.337 1958.5,851C 1940.16,851.833 1921.82,851.666 1903.5,850.5C 1902.18,813.512 1902.18,776.512 1903.5,739.5 Z M 1919.5,753.5 C 1929.51,753.334 1939.51,753.5 1949.5,754C 1960.03,754.532 1967.2,759.699 1971,769.5C 1974.33,787.167 1974.33,804.833 1971,822.5C 1967.43,831.873 1960.6,836.707 1950.5,837C 1940.17,837.5 1929.84,837.666 1919.5,837.5C 1919.5,809.5 1919.5,781.5 1919.5,753.5 Z"/></g>
<g><path style="opacity:0.964" fill="#954031" d="M 1718.5,832.5 C 1723.84,832.334 1729.18,832.501 1734.5,833C 1735.08,833.893 1735.41,834.893 1735.5,836C 1732.61,845.358 1728.94,854.358 1724.5,863C 1720.85,863.499 1717.18,863.665 1713.5,863.5C 1713.98,852.936 1715.65,842.602 1718.5,832.5 Z"/></g>
<g><path style="opacity:0.974" fill="#964031" d="M 1482.5,949.5 C 1530.27,949.107 1551.77,972.773 1547,1020.5C 1540.59,1051.08 1521.75,1067.08 1490.5,1068.5C 1453.56,1066.23 1434.56,1046.56 1433.5,1009.5C 1434.69,976.685 1451.02,956.685 1482.5,949.5 Z M 1485.5,953.5 C 1493.97,952.654 1501.14,955.32 1507,961.5C 1514.9,972.532 1519.23,984.865 1520,998.5C 1522.35,1018.43 1518.68,1037.1 1509,1054.5C 1495.95,1068.16 1483.62,1067.5 1472,1052.5C 1462.88,1035.26 1459.55,1016.93 1462,997.5C 1462.82,984.375 1466.82,972.375 1474,961.5C 1477.48,958.161 1481.32,955.494 1485.5,953.5 Z"/></g>
<g><path style="opacity:0.972" fill="#964031" d="M 516.5,951.5 C 526.172,952.665 535.839,952.831 545.5,952C 565.667,976.833 585.833,1001.67 606,1026.5C 606.915,1005.8 606.581,985.133 605,964.5C 602.449,958.797 597.949,955.963 591.5,956C 590.62,954.644 590.286,953.144 590.5,951.5C 601.171,952.76 611.838,952.76 622.5,951.5C 622.5,953.167 622.5,954.833 622.5,956.5C 619.253,956.415 616.419,957.415 614,959.5C 612.031,963.232 611.031,967.232 611,971.5C 610.5,1003.16 610.333,1034.83 610.5,1066.5C 607.482,1066.66 604.482,1066.5 601.5,1066C 579,1037.5 556.5,1009 534,980.5C 533.333,1004.17 533.333,1027.83 534,1051.5C 536.114,1058.65 540.948,1061.98 548.5,1061.5C 548.5,1062.83 548.5,1064.17 548.5,1065.5C 537.833,1065.5 527.167,1065.5 516.5,1065.5C 516.5,1064.17 516.5,1062.83 516.5,1061.5C 523.288,1061.53 527.122,1058.19 528,1051.5C 528.667,1021.5 528.667,991.5 528,961.5C 525.674,957.583 522.174,955.583 517.5,955.5C 516.571,954.311 516.238,952.978 516.5,951.5 Z"/></g>
<g><path style="opacity:0.96" fill="#964031" d="M 665.5,951.5 C 682.499,952.813 699.499,952.813 716.5,951.5C 716.762,952.978 716.429,954.311 715.5,955.5C 712.436,956.121 709.436,956.955 706.5,958C 705.107,959.171 704.273,960.671 704,962.5C 703.333,988.167 703.333,1013.83 704,1039.5C 704.278,1053.8 711.444,1061.14 725.5,1061.5C 736.208,1061.62 744.042,1056.95 749,1047.5C 750.802,1042.63 752.135,1037.63 753,1032.5C 753.667,1010.83 753.667,989.167 753,967.5C 751.586,960.089 747.086,956.256 739.5,956C 738.62,954.644 738.286,953.144 738.5,951.5C 749.169,952.798 759.836,952.798 770.5,951.5C 770.657,952.873 770.49,954.207 770,955.5C 764.081,956.421 760.414,959.755 759,965.5C 758.667,986.833 758.333,1008.17 758,1029.5C 757.583,1055.42 744.416,1068.42 718.5,1068.5C 704.782,1068.99 693.282,1064.32 684,1054.5C 680.622,1049.32 678.622,1043.65 678,1037.5C 677.667,1013.83 677.333,990.167 677,966.5C 677.5,959 674,955.5 666.5,956C 665.62,954.644 665.286,953.144 665.5,951.5 Z"/></g>
<g><path style="opacity:0.947" fill="#964031" d="M 811.5,951.5 C 844.5,952.833 877.5,952.833 910.5,951.5C 909.436,964.868 909.436,978.202 910.5,991.5C 908.955,992.452 907.288,992.785 905.5,992.5C 904.017,982.882 900.85,973.882 896,965.5C 890.533,958.518 883.366,955.518 874.5,956.5C 874.333,989.502 874.5,1022.5 875,1055.5C 875.785,1057.29 876.951,1058.79 878.5,1060C 882.751,1061.19 887.085,1061.69 891.5,1061.5C 891.5,1062.83 891.5,1064.17 891.5,1065.5C 871.167,1065.5 850.833,1065.5 830.5,1065.5C 830.5,1064.17 830.5,1062.83 830.5,1061.5C 834.915,1061.69 839.249,1061.19 843.5,1060C 845.487,1058.68 846.654,1056.85 847,1054.5C 847.5,1021.84 847.667,989.168 847.5,956.5C 835.099,955.617 826.599,960.95 822,972.5C 819.447,978.99 817.613,985.657 816.5,992.5C 814.833,992.5 813.167,992.5 811.5,992.5C 812.214,978.853 812.214,965.187 811.5,951.5 Z"/></g>
<g><path style="opacity:0.971" fill="#964032" d="M 954.5,951.5 C 970.664,952.779 986.831,952.779 1003,951.5C 1014.65,951.28 1025.82,953.447 1036.5,958C 1049.9,967.998 1052.74,980.498 1045,995.5C 1038.2,1004.65 1029.03,1009.82 1017.5,1011C 1025.83,1011.66 1033,1014.83 1039,1020.5C 1040.86,1022.89 1042.19,1025.55 1043,1028.5C 1045.02,1037.92 1047.35,1047.25 1050,1056.5C 1053.61,1060.39 1057.28,1060.39 1061,1056.5C 1062.28,1056.61 1063.11,1057.28 1063.5,1058.5C 1058.07,1065.37 1050.91,1068.71 1042,1068.5C 1036.42,1068.38 1031.25,1066.88 1026.5,1064C 1023.77,1061.37 1021.94,1058.21 1021,1054.5C 1019.12,1045.88 1017.45,1037.21 1016,1028.5C 1014.01,1014.69 1006.18,1009.36 992.5,1012.5C 992.084,1027.55 992.584,1042.55 994,1057.5C 996.654,1060.87 1000.15,1062.2 1004.5,1061.5C 1004.5,1062.83 1004.5,1064.17 1004.5,1065.5C 987.833,1065.5 971.167,1065.5 954.5,1065.5C 954.5,1064.17 954.5,1062.83 954.5,1061.5C 957.607,1061.65 960.607,1061.15 963.5,1060C 965.004,1058.51 965.837,1056.68 966,1054.5C 966.667,1023.83 966.667,993.167 966,962.5C 965.727,960.671 964.893,959.171 963.5,958C 960.895,956.979 958.228,956.145 955.5,955.5C 954.571,954.311 954.238,952.978 954.5,951.5 Z M 1000.5,955.5 C 1012.46,955.627 1019.29,961.627 1021,973.5C 1025.78,997.194 1016.28,1008.86 992.5,1008.5C 992.333,994.163 992.5,979.829 993,965.5C 992.901,959.97 995.401,956.637 1000.5,955.5 Z"/></g>
<g><path style="opacity:0.972" fill="#964031" d="M 1100.5,951.5 C 1117.17,952.812 1133.83,952.812 1150.5,951.5C 1150.71,953.144 1150.38,954.644 1149.5,956C 1145.84,955.963 1142.67,957.129 1140,959.5C 1138.88,975.963 1138.38,992.463 1138.5,1009C 1138.37,1025.21 1138.87,1041.38 1140,1057.5C 1142.65,1060.87 1146.15,1062.2 1150.5,1061.5C 1150.5,1062.83 1150.5,1064.17 1150.5,1065.5C 1133.83,1065.5 1117.17,1065.5 1100.5,1065.5C 1100.5,1064.17 1100.5,1062.83 1100.5,1061.5C 1103.61,1061.65 1106.61,1061.15 1109.5,1060C 1111,1058.51 1111.84,1056.68 1112,1054.5C 1112.67,1023.83 1112.67,993.167 1112,962.5C 1111.73,960.671 1110.89,959.171 1109.5,958C 1106.89,956.979 1104.23,956.145 1101.5,955.5C 1100.57,954.311 1100.24,952.978 1100.5,951.5 Z"/></g>
<g><path style="opacity:0.947" fill="#964031" d="M 1194.5,951.5 C 1227.5,952.833 1260.5,952.833 1293.5,951.5C 1292.44,964.868 1292.44,978.202 1293.5,991.5C 1291.95,992.452 1290.29,992.785 1288.5,992.5C 1287.02,982.882 1283.85,973.882 1279,965.5C 1273.53,958.518 1266.37,955.518 1257.5,956.5C 1257.33,989.502 1257.5,1022.5 1258,1055.5C 1258.78,1057.29 1259.95,1058.79 1261.5,1060C 1265.75,1061.19 1270.08,1061.69 1274.5,1061.5C 1274.5,1062.83 1274.5,1064.17 1274.5,1065.5C 1254.17,1065.5 1233.83,1065.5 1213.5,1065.5C 1213.5,1064.17 1213.5,1062.83 1213.5,1061.5C 1217.92,1061.69 1222.25,1061.19 1226.5,1060C 1228.49,1058.68 1229.65,1056.85 1230,1054.5C 1230.5,1021.84 1230.67,989.168 1230.5,956.5C 1218.1,955.617 1209.6,960.95 1205,972.5C 1202.45,978.99 1200.61,985.657 1199.5,992.5C 1197.83,992.5 1196.17,992.5 1194.5,992.5C 1195.21,978.853 1195.21,965.187 1194.5,951.5 Z"/></g>
<g><path style="opacity:0.972" fill="#964031" d="M 1337.5,951.5 C 1354.17,952.812 1370.83,952.812 1387.5,951.5C 1387.71,953.144 1387.38,954.644 1386.5,956C 1382.84,955.963 1379.67,957.129 1377,959.5C 1375.88,975.963 1375.38,992.463 1375.5,1009C 1375.37,1025.21 1375.87,1041.38 1377,1057.5C 1379.65,1060.87 1383.15,1062.2 1387.5,1061.5C 1387.5,1062.83 1387.5,1064.17 1387.5,1065.5C 1370.83,1065.5 1354.17,1065.5 1337.5,1065.5C 1337.5,1064.17 1337.5,1062.83 1337.5,1061.5C 1340.61,1061.65 1343.61,1061.15 1346.5,1060C 1348,1058.51 1348.84,1056.68 1349,1054.5C 1349.67,1023.83 1349.67,993.167 1349,962.5C 1348.73,960.671 1347.89,959.171 1346.5,958C 1343.89,956.979 1341.23,956.145 1338.5,955.5C 1337.57,954.311 1337.24,952.978 1337.5,951.5 Z"/></g>
<g><path style="opacity:0.972" fill="#964031" d="M 1594.5,951.5 C 1604.17,952.665 1613.84,952.831 1623.5,952C 1643.67,976.833 1663.83,1001.67 1684,1026.5C 1684.91,1005.8 1684.58,985.133 1683,964.5C 1680.45,958.797 1675.95,955.963 1669.5,956C 1668.62,954.644 1668.29,953.144 1668.5,951.5C 1679.17,952.76 1689.84,952.76 1700.5,951.5C 1700.5,953.167 1700.5,954.833 1700.5,956.5C 1697.25,956.415 1694.42,957.415 1692,959.5C 1690.03,963.232 1689.03,967.232 1689,971.5C 1688.5,1003.16 1688.33,1034.83 1688.5,1066.5C 1685.48,1066.66 1682.48,1066.5 1679.5,1066C 1657,1037.5 1634.5,1009 1612,980.5C 1611.33,1004.17 1611.33,1027.83 1612,1051.5C 1614.11,1058.65 1618.95,1061.98 1626.5,1061.5C 1626.5,1062.83 1626.5,1064.17 1626.5,1065.5C 1615.83,1065.5 1605.17,1065.5 1594.5,1065.5C 1594.5,1064.17 1594.5,1062.83 1594.5,1061.5C 1601.29,1061.53 1605.12,1058.19 1606,1051.5C 1606.67,1021.5 1606.67,991.5 1606,961.5C 1603.67,957.583 1600.17,955.583 1595.5,955.5C 1594.57,954.311 1594.24,952.978 1594.5,951.5 Z"/></g>
</svg>
